<?xml version="1.0" encoding="UTF-8"?>
<svg id="Layer_2" data-name="Layer 2" xmlns="http://www.w3.org/2000/svg" viewBox="0 0 155.04 175.35">
  <defs>
    <style>
      .cls-1 {
        fill: #db7f2c;
      }

      .cls-2 {
        fill: #542b00;
      }

      .cls-3 {
        fill: #c96d2f;
      }

      .cls-4 {
        fill: #bb233e;
      }

      .cls-5 {
        fill: #f9cfc7;
      }

      .cls-6 {
        fill: #eef5e9;
      }

      .cls-7 {
        fill: #fbe36c;
      }

      .cls-8 {
        fill: #ef973f;
      }

      .cls-9 {
        fill: #2b1209;
      }
    </style>
  </defs>
  <g id="OBJECTS">
    <g>
      <g>
        <path class="cls-1" d="M124.91,0c3.53,0,5.19,21.97,3.71,27.62-1.65-2.29-3.53-4.71-5.75-7.18-3.38-3.77-7.31-5.77-10.63-6.83,0,0,9.14-13.61,12.67-13.61Z"/>
        <g>
          <path class="cls-8" d="M137.32,39.8c-2.52-2.64-5.03-7.06-8.7-12.17h0c-1.65-2.3-3.53-4.72-5.75-7.19-3.38-3.77-7.31-5.77-10.63-6.83-4.14-1.33-7.34-1.2-7.34-1.2l-.42,.26c-1.32-1.06-3.61-1.71-7.17-1.22-7.81,1.07-14.98,8.77-14.98,8.77,0,0-14.33-13.48-17.43-11.12-3.1,2.35-1.18,23.1,3.85,31.12,0,0-3.1,13.16-7.38,19.79-3.08,4.77-3.43,7.28,1.07,8.56,1.04,.3,2.18,.31,3.28,.12-.4,1.67-.08,3.33,1.64,4.27,4.92,2.67,11.76-2.36,11.76-2.36,0,0,.21,.11,.61,.31,3.17,1.62,17.95,8.8,27.18,7.09,8.41-1.56,18.67-10.1,22.25-13.27,.84-.74,1.31-1.19,1.31-1.19,0,0,7.81,.65,9.84-4.06,.84-1.95,.48-3.61-.41-4.88,1.9-.46,3.82-1.74,5.22-4.43,1.31-2.51-1.9-4.2-7.8-10.37Z"/>
          <path class="cls-8" d="M134.32,89.16c.07-2.12-1.29-3.25-2.88-3.7,2.23-4.01-3.65-12.29-3.65-12.29-2.9,3.13-10.29,8.74-21.39,10.48-11.82,1.86-26.21-5.45-27.28-7.16,0,0-18.77,10.27-28.56,41.07-5.31,16.71-6.93,27.52-6.19,34.76h-.16s-26.49,3.32-26.91-7.8c-.43-11.13,18.99-27.64,17.54-42.15-1.5-14.97-30.17-25.88-34.44-16.26-4.1,9.22,24.81,11.98,20.96,21.18S-3.03,134.25,4.67,149.23c7.71,14.97,32.55,15.52,41.41,9.69,1.1,2.37,2.64,4.12,4.48,5.49,7.06,5.3,21.34,4.02,25.52,6.58,4.17,2.57,8.34,4.82,9.94,3.69,.19-.13,.34-.28,.46-.44,0,0,1.86,.49,2.97-.87,0,0,2.85-.45,2.83-4.14v-.1h.28c.05,.95,.3,1.83,.84,2.51,.81,1.01,3.44,.45,3.44,.45l.03-.03c1.85,1.45,5.67-.42,5.67-.42,2.9,1.44,9.12-1.5,9.7-4.12-.06,1.98,3.98,2.01,6.2,2.51,1.63,.36,4.58,1.38,5.73-.12l.48,.12s4.85,.52,5.77-1.82l.13,.06c6.02-2.01-1.36-9.31-2.97-11.72-1.6-2.4,.64-50.54,.64-50.54,0,0,1.45-1.76,3.05-4.97,1.61-3.21-1.97-5.52-1.97-5.52,0,0,4.86-1.38,5.02-6.36Z"/>
        </g>
        <path class="cls-4" d="M129.16,64.73s.32,5.02,0,6.52c-.07,.33-.53,1.02-1.37,1.92-2.9,3.13-10.29,8.74-21.39,10.48-11.82,1.86-26.21-5.45-27.28-7.16s.49-5.35,.49-5.35l.12-.23c3.17,1.62,17.95,7.61,27.18,5.9,8.41-1.56,18.67-8.91,22.25-12.08Z"/>
      </g>
      <g>
        <path d="M110.15,41.55c-.1-1.39,.08-2.76,.62-4.09,.27-.67,.66-1.3,1.13-1.88,.5-.57,1.12-1.05,1.81-1.42,1.39-.67,2.95-.77,4.33-.5,1.4,.27,2.65,.82,3.79,1.64,.21,.15,.26,.45,.11,.67-.12,.17-.34,.24-.54,.18h-.04c-1.16-.39-2.39-.65-3.55-.73-1.17-.07-2.28,.08-3.22,.55-.91,.46-1.65,1.27-2.22,2.28-.54,1.01-.98,2.19-1.27,3.37v.04c-.07,.26-.33,.41-.59,.35-.21-.05-.35-.23-.36-.43Z"/>
        <path d="M118.79,38.43c.33,2.4-.87,4.55-2.67,4.79-1.8,.25-3.53-1.5-3.85-3.9-.33-2.4,.87-4.55,2.67-4.79,1.8-.25,3.53,1.5,3.85,3.9Z"/>
      </g>
      <g>
        <path d="M94.72,44.64c-.67-1.02-1.47-1.98-2.32-2.76-.87-.76-1.83-1.28-2.85-1.41-1.04-.13-2.14,.1-3.22,.55-1.06,.47-2.14,1.12-3.1,1.86l-.03,.03c-.21,.16-.51,.12-.67-.09-.13-.17-.13-.4-.01-.56,.8-1.14,1.8-2.08,3.03-2.8,1.22-.71,2.72-1.13,4.26-.96,.77,.12,1.52,.37,2.18,.74,.64,.4,1.22,.86,1.69,1.4,.95,1.08,1.58,2.31,1.94,3.65,.07,.26-.08,.52-.34,.59-.2,.06-.41-.03-.53-.2l-.02-.04Z"/>
        <path d="M87.08,44.04c.36,2.4,2.12,4.12,3.91,3.84s2.96-2.44,2.59-4.83-2.12-4.12-3.91-3.84c-1.8,.27-2.96,2.44-2.59,4.83Z"/>
      </g>
      <path class="cls-2" d="M105.28,55.81c-.26,0-.48-.2-.5-.46l-.52-7.06c-.02-.28,.19-.52,.46-.54,.27-.02,.51,.19,.54,.46l.52,7.06c.02,.28-.19,.52-.46,.54-.01,0-.02,0-.04,0Z"/>
      <path class="cls-2" d="M97.44,52.41c1.21,.85,2.7,1.4,4.15,1.72,1.47,.3,3,.37,4.49,.18,1.46-.16,2.86-.65,4.09-1.47,1.22-.8,2.35-1.92,3.17-3.18l.03-.05c.14-.22,.44-.28,.66-.14,.19,.12,.26,.35,.19,.55-.58,1.68-1.62,3.11-3.01,4.23-1.38,1.13-3.13,1.81-4.89,2.03-.88,.12-1.74,.1-2.61,.06-.87-.1-1.74-.22-2.57-.5-1.67-.53-3.21-1.4-4.39-2.78-.17-.2-.15-.5,.05-.67,.17-.14,.41-.15,.58-.03l.06,.04Z"/>
      <path class="cls-6" d="M107.25,76.48c.69,.47,1.06,1.07,1.34,1.74,.28,.66,.38,1.37,.4,2.06,.01,.69-.09,1.37-.27,2.01-.19,.64-.46,1.25-.84,1.8-.16,.23-.47,.28-.7,.12-.13-.09-.2-.23-.21-.38v-.02c-.04-.64,0-1.23,.02-1.81,0-.58,.04-1.14,.01-1.69,0-.55-.04-1.08-.11-1.61-.07-.51-.2-1.08-.31-1.56l-.04-.17c-.06-.25,.09-.51,.34-.57,.13-.03,.27,0,.38,.07Z"/>
      <g>
        <path class="cls-7" d="M113.39,88.4c-.42-2.98-3.17-5.06-6.15-4.64-2.98,.42-5.06,3.17-4.64,6.15,.42,2.98,3.17,5.06,6.15,4.64,2.98-.42,5.06-3.17,4.64-6.15Z"/>
        <path class="cls-9" d="M109.54,88.68c-.12-.87-.93-1.48-1.8-1.36-.87,.12-1.48,.93-1.36,1.8,.12,.87,.93,1.48,1.8,1.36,.87-.12,1.48-.93,1.36-1.8Z"/>
        <path class="cls-9" d="M108.05,88.64l1.3-.23c.43-.08,.85-.16,1.27-.25,.42-.09,.82-.21,1.24-.33,.41-.13,.79-.29,1.21-.46h.02c.12-.06,.27,0,.32,.13,.03,.09,.01,.18-.04,.25-.65,.73-1.59,1.16-2.51,1.38-.47,.1-.94,.16-1.42,.16-.48,0-.94-.04-1.42-.18-.13-.04-.2-.17-.17-.3,.03-.09,.1-.16,.19-.17h.01Z"/>
      </g>
      <path class="cls-3" d="M82.16,20.06c3.28-3.43,7.11-6.43,11.63-8.16,2.26-.87,4.71-1.23,7.15-1.02,1.22,.14,2.47,.46,3.55,1.19,1.06,.71,1.92,1.95,1.94,3.32,.02,.68-.15,1.37-.51,1.96-.36,.59-.85,1.02-1.37,1.39-1.04,.73-2.2,1.22-3.48,1.38-.33,.03-.66,.04-1.01-.02-.17-.02-.36-.1-.54-.16-.17-.11-.37-.2-.5-.39-.07-.09-.13-.18-.19-.28-.04-.1-.07-.2-.1-.31-.06-.19-.07-.45-.01-.65,.11-.42,.35-.72,.59-.96,1-.93,2.2-1.32,3.42-1.56,1.21-.22,2.51-.21,3.72,.27,.6,.24,1.15,.64,1.56,1.15,.43,.51,.65,1.13,.82,1.74,.11,.63,.17,1.29-.02,1.92-.17,.62-.46,1.2-.86,1.68-.79,.97-1.81,1.66-2.93,2.17-.12,.05-.26,0-.31-.12-.05-.12,0-.26,.11-.31h.01c1.01-.5,1.97-1.22,2.64-2.1,.69-.88,.93-2.01,.65-3.05-.27-1.08-.97-1.94-1.98-2.32-1-.38-2.16-.38-3.25-.16-1.08,.23-2.19,.66-2.93,1.36-.17,.17-.3,.37-.34,.52-.02,.08-.02,.13,.01,.21l.03,.12s.05,.05,.07,.08c.16,.24,.74,.29,1.24,.24,1.05-.13,2.14-.59,3.01-1.23,.92-.63,1.51-1.51,1.45-2.53-.02-1.01-.63-1.96-1.5-2.55-.88-.6-1.98-.91-3.09-1.04-1.12-.14-2.27-.04-3.41,.07-1.13,.18-2.25,.43-3.33,.83-2.17,.77-4.24,1.89-6.16,3.22-1.93,1.31-3.77,2.79-5.42,4.44h0c-.09,.1-.24,.1-.34,0-.09-.09-.09-.24,0-.33Z"/>
      <path class="cls-3" d="M79.26,70.8c-1.48,1.09-3.09,1.96-4.82,2.61-1.73,.6-3.63,.98-5.53,.58l-.7-.17c-.23-.07-.45-.18-.67-.27-.45-.17-.88-.44-1.27-.78-.37-.35-.69-.78-.89-1.26-.2-.48-.29-.99-.3-1.49,.01-2.01,.95-3.77,2.16-5.21,.64-.7,1.35-1.38,2.38-1.73,.49-.18,1.23-.16,1.73,.28,.46,.35,.74,1.05,.61,1.64-.1,.59-.41,1.03-.74,1.41-.33,.38-.7,.69-1.09,.97-.78,.55-1.63,.97-2.52,1.27-1.76,.6-3.74,.81-5.56,.2-.87-.3-1.77-.68-2.47-1.39-.73-.71-.94-1.84-.72-2.75h0c.03-.14,.16-.22,.29-.19,.12,.03,.2,.15,.18,.27-.14,.85,.07,1.69,.68,2.24,.6,.55,1.43,.88,2.26,1.12,1.64,.5,3.43,.27,5.05-.33,.81-.3,1.58-.71,2.27-1.2,.66-.48,1.33-1.14,1.43-1.78,.05-.3-.06-.55-.3-.76-.19-.16-.47-.2-.82-.08-.69,.23-1.36,.82-1.91,1.45-1.1,1.27-1.95,2.92-1.96,4.54,0,.81,.3,1.55,.87,2.08,.29,.26,.62,.48,1.02,.63,.19,.08,.38,.18,.57,.25l.61,.17c1.64,.41,3.43,.11,5.1-.42,1.67-.54,3.3-1.32,4.77-2.3h0c.11-.08,.26-.05,.33,.06,.07,.11,.04,.25-.06,.32Z"/>
      <path class="cls-3" d="M145.51,48.28c.16,.43,.21,.93,.1,1.39-.11,.47-.35,.85-.54,1.22-.42,.75-.93,1.47-1.54,2.1-1.24,1.25-2.93,2.09-4.71,2.24-.89,.09-1.78,.03-2.65-.18-.86-.22-1.71-.53-2.47-1.12-.19-.15-.37-.32-.53-.56-.14-.23-.34-.56-.2-1.01,.15-.43,.48-.6,.73-.71,.25-.07,.49-.16,.73-.18,.97-.11,1.87,.1,2.71,.42,.83,.34,1.6,.83,2.27,1.44,.67,.6,1.23,1.37,1.53,2.25,.3,.87,.42,1.83,.21,2.73-.04,.46-.26,.87-.39,1.3-.22,.39-.4,.83-.7,1.17-1.12,1.47-2.82,2.24-4.48,2.66-1.69,.38-3.4,.49-5.11,.34-.13-.01-.23-.13-.22-.26,.01-.13,.12-.22,.24-.22h.01c1.64,.05,3.32-.14,4.89-.57,1.56-.45,3.07-1.21,3.96-2.48,.25-.29,.38-.67,.56-1,.09-.38,.3-.73,.32-1.11,.18-.75,.06-1.52-.18-2.23-.51-1.43-1.85-2.5-3.28-3.09-.72-.28-1.51-.45-2.22-.38-.86,.2-.84,.13-.25,.75,1.18,.91,2.89,1.25,4.44,1.16,1.59-.09,3.1-.79,4.27-1.89,.59-.55,1.09-1.19,1.53-1.88,.21-.36,.45-.69,.54-1.05,.1-.36,.09-.73-.03-1.1-.04-.13,.03-.26,.16-.3,.12-.04,.25,.03,.3,.14Z"/>
      <path class="cls-3" d="M47.27,160.58c1.11,1.62,2.56,3.02,4.24,4.01,1.65,1.03,3.51,1.74,5.41,2.25,3.83,1.02,7.8,1.44,11.78,1.92,1.99,.28,4,.51,5.98,1.13,.25,.09,.5,.15,.74,.26l.73,.36c.46,.25,.86,.52,1.3,.77,.85,.51,1.71,1.02,2.58,1.5,.87,.47,1.75,.92,2.66,1.28,.89,.35,1.88,.65,2.7,.5,.78-.15,1.32-1.08,1.17-1.96-.11-.88-.7-1.76-1.56-2.02h0c-.13-.04-.2-.17-.16-.3,.04-.12,.17-.19,.29-.16,1.1,.3,1.85,1.32,2.03,2.39,.23,1.07-.35,2.44-1.59,2.75-.58,.14-1.14,.09-1.65-.02-.52-.1-1.02-.26-1.5-.43-.97-.36-1.88-.79-2.79-1.26-.9-.46-1.78-.96-2.64-1.47-.43-.25-.87-.54-1.29-.76l-.62-.3c-.21-.09-.45-.15-.68-.23-1.84-.57-3.84-.79-5.82-1.05-3.96-.51-7.99-.93-11.9-2.06-1.94-.57-3.86-1.35-5.58-2.49-1.72-1.12-3.16-2.64-4.24-4.37-.07-.11-.04-.26,.08-.33,.11-.07,.25-.04,.32,.07Z"/>
      <path class="cls-3" d="M86.54,174.01c.81,.07,1.68-.1,2.22-.59,.27-.25,.5-.54,.64-.9,.15-.37,.27-.74,.24-1.08,0-.72-.41-1.43-.96-2.05-.55-.62-1.24-1.17-1.96-1.64h-.01c-.11-.08-.14-.23-.07-.34,.06-.09,.18-.13,.28-.09,.88,.32,1.68,.81,2.39,1.46,.69,.64,1.31,1.55,1.33,2.65,.02,.55-.16,1.06-.36,1.51-.21,.46-.55,.9-.98,1.2-.89,.62-1.97,.67-2.89,.35-.12-.04-.19-.18-.15-.3,.04-.11,.14-.17,.25-.16h.03Z"/>
      <path class="cls-3" d="M89.41,173.13c.98-.23,1.84-.99,2.2-1.94,.2-.47,.28-.99,.31-1.51,.04-.55-.03-.98-.25-1.45-.41-.92-1.18-1.7-2.02-2.33-.84-.6-1.84-1.14-2.77-1.15-.25,0-.44-.21-.44-.45,0-.03,0-.06,0-.09h0c.67-3.15,1.02-6.41,.94-9.62-.01-1.61-.2-3.21-.44-4.8-.18-.78-.29-1.58-.54-2.34-.11-.38-.22-.77-.34-1.15l-.44-1.11c-.26-.76-.7-1.43-1.04-2.14-.44-.67-.83-1.38-1.32-2.02-.9-1.33-1.97-2.54-3.11-3.68-2.29-2.24-4.99-4.17-7.97-5.33h-.02c-.12-.06-.18-.19-.14-.32,.05-.12,.18-.18,.3-.14,3.15,1.1,5.98,2.92,8.39,5.21,1.2,1.15,2.32,2.37,3.29,3.73,.52,.65,.92,1.38,1.38,2.07,.37,.75,.83,1.46,1.11,2.25,1.29,3.1,1.83,6.44,1.86,9.75,.04,3.32-.3,6.6-1.06,9.85l-.43-.55c1.31,.07,2.32,.71,3.26,1.39,.9,.72,1.73,1.58,2.21,2.69,.24,.54,.32,1.23,.24,1.79-.05,.58-.17,1.17-.42,1.71-.49,1.1-1.49,1.94-2.69,2.17-.13,.02-.25-.06-.28-.19-.02-.13,.05-.25,.18-.28h.03Z"/>
      <path class="cls-3" d="M82.53,102.11c1.44,6.07,2.84,12.14,4.2,18.23l3.98,18.28c1.26,6.11,2.56,12.21,3.67,18.35l.39,2.32c.05,.39,.12,.77,.15,1.19,0,.11,.03,.18,.02,.33,0,.14,0,.32-.05,.42l-.21,.56c-.57,1.45-1.1,2.89-1.45,4.38-.33,1.47-.55,3.05-.06,4.42,.33,1.64,2.17,1.48,3.61,1.26h.02c.13-.02,.25,.07,.27,.2,.02,.13-.07,.24-.19,.27-.79,.16-1.59,.25-2.42,.13-.41-.07-.85-.19-1.21-.55-.28-.35-.51-.69-.65-1.09-.6-1.58-.39-3.25-.09-4.8,.32-1.56,.86-3.05,1.41-4.51l.19-.54c.03-.09-.01-.11,0-.16,0-.04-.02-.17-.02-.25-.04-.36-.11-.75-.16-1.13l-.42-2.29c-1.19-6.11-2.48-12.21-3.78-18.31l-3.87-18.3-3.8-18.31c-.03-.13,.06-.26,.18-.28,.13-.03,.25,.05,.28,.18Z"/>
      <path class="cls-3" d="M98.31,166.05c-.74,.75-1.43,1.61-1.78,2.55-.16,.47-.26,.94-.22,1.4,.06,.46,.23,.89,.5,1.28,.48,.73,1.48,.94,2.52,.85,1.03-.07,2.09-.37,3.1-.71h.01c.12-.05,.26,.02,.3,.14,.04,.11,0,.23-.11,.28-.99,.57-2.05,.98-3.22,1.15-.58,.09-1.19,.11-1.82-.06-.62-.15-1.23-.55-1.61-1.1-.35-.52-.59-1.13-.66-1.78-.02-.65,.11-1.28,.37-1.82,.52-1.1,1.35-1.93,2.3-2.58,.11-.07,.26-.05,.33,.06,.06,.1,.05,.22-.03,.3l-.02,.02Z"/>
      <path class="cls-3" d="M102.44,165.98c-.36,.66-.66,1.38-.83,2.11-.18,.73-.24,1.5,.02,2.14,.24,.65,.83,1.1,1.52,1.29,.69,.19,1.45,.18,2.19,.07,1.49-.23,2.93-.82,4.21-1.61,.64-.4,1.23-.88,1.69-1.44,.23-.27,.43-.58,.53-.88l.08-.23v-.27s.04-.54,.04-.54c-.08-6.2-.52-12.49-.87-18.73l-2.26-37.52c0-.1,.03-.2,.09-.27,1.66-1.96,3.31-3.95,4.92-5.96,.8-1.01,1.59-2.03,2.35-3.06,.76-1.04,1.5-2.09,2.11-3.2h0c.06-.12,.21-.16,.32-.1,.11,.06,.16,.2,.1,.32-.61,1.17-1.34,2.24-2.08,3.3-.74,1.06-1.51,2.1-2.29,3.13-1.56,2.06-3.18,4.08-4.84,6.06l.09-.27,1.29,18.75c.42,6.25,.84,12.51,1.15,18.77,.3,6.27,.7,12.49,.73,18.82l-.04,.63-.02,.32-.11,.32c-.15,.43-.4,.79-.67,1.11-.55,.64-1.2,1.15-1.88,1.58-1.38,.84-2.91,1.45-4.53,1.66-.81,.09-1.65,.1-2.47-.15-.81-.23-1.59-.84-1.88-1.69-.3-.84-.2-1.7,.01-2.48,.21-.79,.53-1.52,.94-2.23,.07-.11,.21-.15,.33-.09,.11,.06,.15,.21,.09,.32h0Z"/>
      <path class="cls-3" d="M127.98,73.03c.94,1.35,1.78,2.76,2.51,4.23,.72,1.48,1.37,3.01,1.65,4.67,.04,.42,.14,.83,.11,1.26v.64s-.12,.65-.12,.65c-.02,.22-.1,.43-.19,.63-.09,.2-.16,.43-.26,.61-.21,.36-.43,.73-.69,1.06-.52,.66-1.15,1.34-2.08,1.61-.46,.14-1,.12-1.46-.12-.46-.24-.79-.67-.94-1.13-.08-.24-.11-.48-.12-.73,0-.35,.2-.63,.39-.81,.4-.36,.83-.5,1.26-.62,.86-.22,1.72-.24,2.58-.12,.85,.12,1.71,.38,2.45,.89,.74,.5,1.34,1.29,1.54,2.19,.22,.9,.12,1.77-.05,2.61-.18,.85-.52,1.67-1.02,2.38-1.01,1.43-2.45,2.45-4.11,3.01l.12-.8c.92,.64,1.67,1.43,2.18,2.45,.24,.51,.4,1.07,.42,1.66,0,.58-.09,1.17-.33,1.68-.44,1-.94,1.86-1.47,2.77-.54,.89-1.09,1.75-1.75,2.6l.11-.28c-.44,10.83-.94,21.66-1.18,32.49-.06,2.71-.11,5.42-.12,8.12,0,2.7,0,5.42,.2,8.09,.09,.65,.1,1.36,.4,1.78,.38,.54,.8,1.07,1.22,1.6,.84,1.07,1.67,2.15,2.4,3.32,.7,1.17,1.41,2.42,1.52,3.88,.06,.72-.17,1.51-.68,2.07-.5,.57-1.17,.88-1.83,1.1-.12,.04-.26-.02-.3-.15-.04-.12,.02-.26,.14-.3h0c.61-.22,1.21-.52,1.6-.99,.4-.46,.57-1.07,.51-1.7-.1-1.26-.79-2.47-1.49-3.58-.73-1.12-1.57-2.17-2.42-3.22-.43-.53-.86-1.05-1.27-1.61-.11-.12-.2-.32-.28-.54-.08-.21-.09-.36-.13-.55-.07-.36-.09-.69-.14-1.04-.23-2.73-.23-5.44-.25-8.16,0-2.71,.02-5.43,.07-8.14,.21-10.85,.54-21.69,1.06-32.52,0-.1,.04-.2,.1-.28h0c.6-.77,1.16-1.63,1.68-2.48,.51-.85,1.03-1.77,1.42-2.64,.38-.83,.34-1.77-.05-2.6-.39-.82-1.09-1.57-1.84-2.1-.2-.14-.25-.43-.11-.63,.06-.08,.14-.14,.23-.17,1.42-.47,2.78-1.41,3.65-2.65,.44-.62,.75-1.33,.91-2.07,.16-.74,.25-1.54,.07-2.23-.31-1.44-1.8-2.3-3.3-2.49-.76-.11-1.55-.09-2.27,.09-.35,.09-.72,.23-.92,.43-.1,.1-.15,.18-.15,.25,0,.16,.03,.32,.08,.47,.19,.63,.84,.99,1.48,.78,.65-.17,1.23-.74,1.7-1.34,.24-.3,.45-.64,.65-.97,.1-.17,.15-.34,.23-.51,.08-.17,.15-.34,.17-.53l.11-.56v-.58c.05-.38-.04-.78-.07-1.16-.24-1.56-.84-3.08-1.51-4.53-.69-1.45-1.5-2.87-2.39-4.2h0c-.07-.12-.04-.26,.06-.34,.11-.07,.25-.05,.33,.06Z"/>
      <path class="cls-3" d="M125.53,161.8c1.17,.52,2.26,1.17,3.27,1.98,.51,.39,.98,.86,1.39,1.39,.4,.53,.79,1.16,.86,1.94,.07,.72-.18,1.55-.71,2.09-.53,.54-1.19,.84-1.84,1-1.31,.31-2.59,.29-3.86,.08-.13-.02-.22-.14-.2-.27,.02-.12,.12-.2,.23-.2h.01c1.21,0,2.46-.11,3.57-.45,.55-.18,1.06-.44,1.39-.8,.33-.36,.47-.83,.41-1.36-.08-.99-.96-1.94-1.83-2.74-.89-.81-1.9-1.54-2.92-2.23h0c-.11-.08-.14-.23-.06-.34,.07-.1,.19-.13,.29-.09Z"/>
      <path class="cls-3" d="M121.26,163.88c.83,.34,1.58,.81,2.27,1.41,.67,.6,1.25,1.39,1.49,2.35,.1,.48,.12,.98,0,1.47-.08,.48-.34,.98-.72,1.37-.85,.76-1.93,.77-2.81,.7-.91-.1-1.76-.32-2.59-.54-.82-.23-1.63-.34-2.49-.5-.85-.16-1.71-.31-2.57-.61-.42-.16-.85-.36-1.23-.67-.39-.3-.67-.84-.62-1.35,.01-.13,.13-.23,.26-.22,.12,.01,.21,.11,.22,.23,.03,.74,.82,1.1,1.59,1.31,.79,.22,1.63,.33,2.48,.44,.84,.1,1.74,.23,2.58,.44,.84,.2,1.65,.39,2.46,.47,.79,.08,1.6,.02,2.07-.41,.46-.42,.61-1.25,.5-1.96-.14-.73-.55-1.43-1.13-2-.55-.59-1.25-1.09-1.96-1.5h-.01c-.11-.07-.15-.22-.09-.33,.06-.1,.19-.15,.3-.1Z"/>
      <path class="cls-5" d="M100.47,44.72c-.58,1.54,2.71,4.62,4.55,4.14,1.39-.37,3.12-3.48,2.52-4.86-.6-1.38-6.53-.72-7.07,.72Z"/>
      <path d="M112.21,46.57c3.55-.63,7.12-1.04,10.71-1.29,3.59-.25,7.19-.32,10.79-.25,3.6,.12,7.19,.43,10.76,.97,3.56,.58,7.07,1.46,10.46,2.68,.09,.03,.14,.14,.11,.23-.03,.09-.13,.14-.22,.11h0c-3.41-1.07-6.91-1.84-10.44-2.37-3.54-.47-7.1-.78-10.68-.87-3.57-.1-7.15-.03-10.73,.16-3.57,.2-7.15,.5-10.69,.98-.1,.02-.19-.05-.21-.15-.02-.09,.05-.19,.14-.21Z"/>
      <path d="M112.24,48.07c3.52,.04,7.03,.24,10.53,.54,3.5,.3,7,.73,10.48,1.25,3.47,.56,6.93,1.23,10.35,2.1l2.55,.7c.85,.24,1.68,.53,2.52,.8,.84,.26,1.66,.59,2.48,.91l1.23,.48c.37,.18,.78,.18,1.28,.36,.09,.03,.14,.13,.11,.23-.03,.09-.13,.14-.22,.11h-.05c-.34-.12-.83-.14-1.27-.32l-1.24-.43c-.82-.29-1.64-.59-2.49-.82-.84-.24-1.67-.51-2.52-.74l-2.54-.64c-3.41-.79-6.84-1.47-10.3-2-3.46-.54-6.94-.97-10.42-1.33-3.49-.35-6.98-.65-10.48-.84-.1,0-.18-.09-.17-.19,0-.1,.09-.17,.18-.17Z"/>
      <path d="M98.73,49.03c-1.86,.36-3.72,.84-5.55,1.37-1.83,.52-3.66,1.07-5.46,1.71-3.61,1.24-7.15,2.67-10.62,4.25-3.47,1.59-6.91,3.24-10.23,5.14-3.34,1.85-6.57,3.88-9.79,5.95h0c-.08,.06-.19,.03-.25-.05-.05-.08-.03-.19,.05-.24,1.59-1.07,3.15-2.19,4.76-3.22,1.64-1,3.24-2.05,4.93-2.96,3.31-1.95,6.75-3.64,10.22-5.28,3.51-1.56,7.09-2.95,10.73-4.16,3.64-1.21,7.35-2.24,11.15-2.84,.1-.02,.19,.05,.2,.15,.02,.1-.05,.19-.14,.2h0Z"/>
      <path d="M98.24,50.55c-3.35,1.65-6.64,3.44-9.89,5.28-3.25,1.85-6.45,3.77-9.59,5.8-3.14,2.03-6.18,4.19-9.16,6.44-2.94,2.3-5.77,4.73-8.42,7.37-.07,.07-.18,.07-.25,0-.07-.07-.07-.18,0-.25,2.56-2.75,5.35-5.28,8.28-7.64,2.95-2.32,6.02-4.49,9.16-6.55,3.16-2.02,6.38-3.95,9.67-5.75,3.29-1.8,6.64-3.49,10.07-5.02,.09-.04,.2,0,.24,.09,.04,.09,0,.19-.09,.23Z"/>
      <path class="cls-3" d="M64.01,102.94c-.42,.72-.84,1.44-1.26,2.16-.43,.74-.84,1.48-1.15,2.28-.09,.23,.08,.51,.29,.59,.24,.1,.48,0,.63-.21,.47-.68,.82-1.41,1.18-2.16l1.06-2.23c.24-.5-.46-.93-.75-.44Z"/>
      <path class="cls-3" d="M64.87,106.15c-.16-.07-.36-.01-.45,.15-.28,.49-.56,.98-.84,1.47-.13,.24-.28,.47-.4,.71-.08,.15-.13,.3-.18,.46-.06,.17-.05,.33-.04,.51,.01,.26,.33,.52,.58,.33,.16-.12,.31-.21,.41-.38,.07-.12,.14-.24,.2-.36,.13-.28,.22-.58,.33-.87,.2-.53,.4-1.07,.61-1.6,.06-.17-.06-.37-.21-.43Z"/>
      <path class="cls-3" d="M66.44,106.68c-.27-.06-.56,.08-.63,.36-.09,.36-.18,.71-.27,1.07-.04,.17-.09,.35-.13,.52-.05,.22-.06,.42-.06,.64,0,.19,.14,.39,.33,.43,.18,.04,.41-.02,.5-.2,.09-.19,.19-.37,.24-.57,.04-.18,.09-.36,.13-.55,.08-.36,.17-.71,.25-1.07,.06-.26-.08-.57-.36-.63Z"/>
      <path class="cls-3" d="M80.84,152.56c-.22-1.24-.49-2.47-.81-3.68-.09-.33-.55-.18-.5,.14,.22,1.23,.39,2.48,.51,3.73,.12,1.22,.14,2.45,.34,3.66,.08,.49,.81,.34,.83-.11,.06-1.25-.16-2.5-.38-3.73Z"/>
      <path class="cls-3" d="M79.06,155.23c-.02-.23-.05-.46-.07-.69-.05-.47-.1-.93-.15-1.4-.03-.32-.26-.63-.61-.61-.33,.01-.61,.27-.61,.61,0,.48,.01,.95,.02,1.43,0,.24,0,.48,.01,.71,0,.29,.06,.55,.12,.83,.07,.31,.41,.5,.71,.46,.34-.05,.53-.31,.56-.63,.01-.12,.02-.24,.03-.36,.01-.12,0-.24-.02-.36Z"/>
      <path class="cls-3" d="M75.95,153.81c-.09-.09-.25-.16-.38-.16-.29,.01-.54,.24-.54,.54v.62s0,.1,0,.14c0,.1,.03,.18,.06,.28,.03,.1,.06,.19,.09,.29,.05,.17,.21,.31,.4,.3,.18,0,.34-.12,.4-.3,.03-.1,.06-.19,.09-.29,.03-.09,.05-.17,.05-.27,0-.05,0-.1,0-.16v-.62c0-.14-.06-.28-.16-.38Z"/>
      <path class="cls-3" d="M93.04,136.39c-.02-.42-.04-.83-.06-1.25-.02-.33-.28-.65-.63-.63-.36,.02-.62,.28-.63,.63-.02,.42-.04,.83-.06,1.25,0,.2-.03,.41-.02,.61,0,.14,0,.29,.04,.43,.03,.1,.08,.21,.12,.31,.09,.22,.28,.42,.54,.41,.27-.01,.45-.17,.54-.41,.04-.09,.08-.19,.12-.29,.05-.14,.04-.31,.05-.45,.01-.2,0-.41-.02-.61Z"/>
      <path class="cls-3" d="M95.44,140.8c-.03-.2-.06-.4-.09-.6,0-.03,0-.04,0-.06,0-.02,0-.03,0-.06-.02-.12-.03-.24-.05-.37-.1-.77-.27-1.52-.38-2.29-.04-.3-.4-.48-.67-.44-.31,.05-.51,.29-.53,.6-.04,.76-.11,1.56-.05,2.32,.03,.37,.07,.74,.12,1.11,.03,.25,.08,.49,.16,.72,.09,.24,.26,.42,.42,.62,.3,.36,.8,.11,.94-.25,.09-.22,.17-.41,.17-.66,0-.22-.01-.43-.04-.65Z"/>
      <path class="cls-3" d="M127.08,114.96c-.07-.78-.18-1.55-.32-2.32-.1-.57-1.05-.44-1.01,.14,.05,.74,.06,1.48,.04,2.22-.01,.37-.04,.74-.04,1.12,0,.17,0,.34,0,.51,0,.23,.08,.44,.14,.66,.07,.23,.29,.4,.53,.4,.26,0,.44-.18,.53-.4,.09-.22,.17-.42,.18-.66,.01-.17,.02-.34,.02-.51,0-.39-.03-.78-.07-1.16Z"/>
      <path class="cls-3" d="M125.4,117.93c-.01-.22-.03-.45-.04-.67-.03-.45-.05-.89-.08-1.34-.01-.22-.18-.43-.42-.42-.24,.01-.41,.19-.42,.42-.03,.45-.05,.89-.08,1.34-.01,.22-.03,.45-.04,.67,0,.1-.02,.21-.02,.31,0,.14,.05,.3,.08,.44,.04,.21,.28,.38,.49,.37,.21,0,.44-.15,.49-.37,.03-.14,.07-.3,.08-.44,0-.1-.01-.21-.02-.31Z"/>
      <path class="cls-3" d="M123.33,120.06c-.01-.27-.03-.55-.04-.82-.01-.28-.23-.54-.53-.53-.3,.01-.51,.23-.53,.53-.01,.27-.03,.55-.04,.82,0,.14-.01,.27-.02,.41,0,.11-.02,.21,.01,.32,.03,.11,.09,.19,.15,.28,.21,.32,.64,.32,.85,0,.06-.09,.13-.17,.15-.28,.02-.11,.02-.21,.01-.32,0-.14-.01-.27-.02-.41Z"/>
      <g>
        <path class="cls-3" d="M27.11,97.28s.01,.03,.02,.03c0,0,0,0,0,0,0,0,0-.02-.02-.03Z"/>
        <path class="cls-3" d="M28.74,97.97c-.03-.11-.07-.22-.11-.33-.1-.26-.25-.51-.4-.75-.27-.43-.58-.83-.92-1.21-.16-.17-.44-.17-.62-.04-.18,.14-.24,.4-.12,.6,.12,.19,.23,.39,.34,.6,.05,.1,.1,.21,.15,.31,0,.01,.03,.08,.05,.12,0-.02-.01-.04,0,.01v.02s0,0,0,0c0,0,0,0,0,0,.01,.03,.02,.05,.03,.08,.1,.25,.17,.51,.28,.76,.02,.05,.05,.1,.07,.15,.01,.03,.02,.05,.03,.08,.02,.05,0,0-.01-.03,.05,.13,.11,.24,.21,.34,.04,.04,.08,.08,.12,.13,.14,.15,.39,.19,.58,.11,.21-.09,.3-.27,.32-.48,.02-.17,.03-.31-.02-.47Z"/>
      </g>
      <path class="cls-3" d="M27.11,98.63c-.03-.12-.1-.23-.15-.34-.08-.16-.21-.3-.32-.44-.14-.17-.27-.34-.41-.51-.14-.17-.26-.35-.43-.49-.09-.08-.17-.15-.26-.23-.15-.13-.28-.21-.47-.27-.25-.07-.61,.09-.65,.37-.03,.19-.04,.35,.01,.54,.03,.11,.06,.22,.1,.33,.08,.27,.21,.51,.33,.75,.1,.2,.2,.4,.3,.6,.09,.17,.17,.31,.3,.46,.04,.05,.07,.09,.11,.14,.08,.09,.19,.15,.29,.21,.26,.16,.61,.15,.88,0,.24-.14,.46-.46,.43-.75-.01-.12-.02-.25-.05-.36Z"/>
      <path class="cls-3" d="M23.75,98.57s-.04-.07-.06-.11c-.11-.18-.28-.34-.43-.49-.22-.24-.45-.48-.67-.72-.11-.12-.31-.2-.47-.2-.15,0-.28,.05-.4,.14-.11,.09-.21,.21-.24,.35-.04,.16-.04,.38,.07,.51,.2,.26,.4,.52,.59,.78,.05,.06,.1,.13,.14,.19,.03,.03,.05,.07,.08,.1,.05,.07,.1,.15,.17,.22,.03,.03,.07,.05,.1,.08,.05,.04,.11,.09,.17,.13,.1,.06,.24,.1,.36,.1,.05,0,.11,0,.16-.01,.21-.02,.42-.14,.47-.36,.01-.04,.02-.09,.03-.13,.05-.21,.01-.39-.08-.57Z"/>
      <path class="cls-3" d="M24.65,120.83c-.08-.13-.19-.22-.33-.28-.31-.13-.69-.02-.86,.28-.27,.47-.54,.93-.8,1.4l-.39,.68c-.09,.16-.16,.33-.23,.5-.07,.18-.08,.38-.1,.57-.01,.11,.04,.28,.1,.37,.08,.14,.21,.24,.35,.3,.27,.12,.59,.06,.81-.15,.14-.13,.26-.26,.36-.42,.1-.17,.17-.34,.25-.52,.1-.24,.2-.48,.3-.71,.2-.49,.41-.99,.61-1.48,.06-.15,.01-.4-.07-.53Z"/>
      <path class="cls-3" d="M21.27,120.54c-.3-.04-.62,.15-.69,.45-.03,.11-.07,.22-.11,.32-.08,.18-.19,.35-.31,.52-.1,.11-.19,.23-.31,.32-.14,.12-.26,.27-.39,.4-.14,.13-.24,.37-.23,.56,0,.18,.06,.33,.17,.48,.24,.31,.67,.4,1.01,.2,.09-.05,.17-.1,.25-.16,.09-.06,.18-.13,.26-.2,.08-.07,.14-.17,.21-.26,.12-.16,.23-.34,.32-.53,.22-.47,.35-.95,.37-1.47,.01-.31-.25-.58-.55-.62Z"/>
      <path class="cls-3" d="M18.04,119.55c-.09-.16-.28-.31-.46-.36-.2-.05-.42-.04-.6,.08-.05,.04-.1,.08-.16,.12-.09,.09-.16,.21-.19,.33,.01-.03,.03-.06,.04-.09-.11,.25-.25,.48-.41,.7-.22,.27-.48,.51-.75,.72-.11,.08-.19,.15-.27,.28-.03,.05-.06,.11-.1,.16-.3,.49,.09,1.22,.68,1.18,.24-.01,.48-.04,.68-.18,.14-.1,.28-.21,.42-.32,.22-.18,.4-.42,.57-.65,.29-.41,.51-.89,.63-1.38,.05-.2,.03-.42-.08-.6Z"/>
      <g>
        <path class="cls-3" d="M16.71,155.53s-.02,0-.02,0c-.15-.07-.29-.15-.43-.23-.13-.07-.25-.15-.37-.24-.11-.09-.22-.18-.31-.29-.02-.03-.05-.05-.07-.08-.02-.02-.04-.06-.06-.08,0,.01,.03,.04,.06,.08-.05-.07-.1-.13-.14-.2-.04-.07-.09-.14-.12-.21-.02-.04-.04-.08-.06-.12-.05-.16-.11-.31-.15-.48-.06-.3-.39-.47-.67-.44-.28,.04-.54,.29-.53,.6,.04,.68,.26,1.36,.66,1.91,.2,.28,.43,.54,.7,.76,.17,.13,.32,.24,.51,.33,.19,.09,.39,.17,.59,.22,.4,.11,.88-.14,.98-.56,.1-.45-.14-.83-.56-.98Z"/>
        <path class="cls-3" d="M15.45,154.61s-.01-.01,0,0h0Z"/>
      </g>
      <path class="cls-3" d="M18.56,153.7c-.09-.1-.17-.19-.29-.25-.06-.03-.12-.07-.18-.1-.12-.07-.24-.15-.37-.21-.24-.12-.46-.27-.68-.43-.08-.07-.17-.14-.25-.21-.13-.12-.29-.2-.47-.2-.16,0-.36,.07-.47,.2-.12,.13-.2,.29-.2,.47,0,.06,.02,.12,.02,.18,.03,.11,.09,.21,.17,.29,.23,.29,.49,.56,.78,.79,.18,.15,.37,.3,.59,.4,.14,.06,.27,.12,.41,.17,.15,.06,.29,.07,.45,.05,.12-.01,.24-.03,.34-.09,.13-.07,.22-.19,.28-.33,.11-.26,.04-.53-.14-.74Z"/>
      <path class="cls-3" d="M21.02,151.77s-.09-.09-.13-.13c-.1-.09-.19-.14-.3-.19-.12-.06-.24-.12-.36-.18-.24-.12-.48-.23-.71-.35-.18-.09-.38-.13-.58-.08-.17,.05-.36,.18-.45,.34-.09,.17-.14,.38-.08,.58,.06,.18,.17,.36,.34,.45,.24,.12,.47,.24,.71,.36,.12,.06,.23,.12,.35,.18,.08,.04,.17,.08,.25,.12,.1,.04,.18,.05,.28,.07l.19,.03c.1,0,.19-.02,.27-.06,.14-.06,.27-.15,.34-.29,.15-.28,.12-.63-.11-.85Z"/>
      <path class="cls-3" d="M69.33,49.67c-.16-.02-.39,.08-.41,.27-.06,.4-.16,.8-.31,1.17,0,.02-.04,.09-.04,.09-.02,.04-.03,.07-.05,.11-.04,.09-.09,.18-.14,.27-.06,.11-.12,.24-.16,.36-.04,.13-.02,.25,0,.38,.03,.29,.28,.43,.55,.31,.15-.07,.27-.13,.37-.27,.08-.12,.14-.23,.19-.37,.07-.2,.13-.4,.18-.61,.1-.44,.15-.89,.14-1.34,0-.19-.14-.34-.33-.37Z"/>
      <path class="cls-3" d="M71.2,51.2c-.19-.08-.46-.02-.56,.18-.11,.23-.23,.47-.34,.7-.07,.15-.14,.3-.2,.45-.02,.06-.04,.12-.06,.18-.05,.14-.03,.27,0,.41,.07,.28,.44,.45,.69,.28,.05-.04,.11-.07,.16-.12,.08-.08,.11-.15,.15-.25,.02-.06,.05-.12,.07-.18,.05-.12,.09-.25,.12-.38,.07-.25,.14-.5,.21-.76,.06-.21-.06-.44-.26-.53Z"/>
      <path class="cls-3" d="M74.22,19.39c-1.32-1.83-2.91-3.34-4.79-4.59-.38-.25-.81,.32-.48,.63,1.52,1.41,2.85,3.07,3.93,4.84,1.1,1.79,1.72,3.78,2.7,5.63,.31,.59,1.33,.34,1.29-.35-.14-2.27-1.35-4.34-2.65-6.16Z"/>
      <path class="cls-3" d="M123.45,6.56c-1.92,2.48-3.09,5.56-3.31,8.69-.06,.87,1.37,1.08,1.54,.21,.56-2.89,1.48-5.65,2.88-8.25,.4-.75-.62-1.29-1.11-.65Z"/>
      <path class="cls-3" d="M131.99,37.27c-.05-.12-.1-.24-.15-.36-.05-.11-.09-.22-.16-.32-.04-.06-.08-.11-.12-.17-.15-.22-.31-.43-.46-.65-.08-.12-.19-.23-.34-.26-.13-.03-.25-.02-.37,.03-.25,.11-.42,.4-.33,.68,.08,.25,.16,.49,.24,.74,.06,.17,.1,.35,.2,.51,.07,.12,.14,.23,.21,.35,.18,.3,.56,.42,.88,.29,.14-.06,.27-.15,.34-.29,.08-.16,.14-.37,.07-.54Z"/>
    </g>
  </g>
</svg>