<?xml version="1.0" encoding="UTF-8"?>
<svg id="Layer_2" data-name="Layer 2" xmlns="http://www.w3.org/2000/svg" viewBox="0 0 182.41 209.09">
  <defs>
    <style>
      .dog-1 {
        fill: #dda85b;
      }

      .dog-2 {
        fill: #e2a656;
      }

      .dog-3 {
        fill: #542b00;
      }

      .dog-4 {
        fill: #fff;
      }

      .dog-5 {
        fill: #e09bac;
      }

      .dog-6 {
        fill: #3e6fa7;
      }

      .dog-7 {
        fill: #a76e33;
      }

      .dog-8 {
        fill: #c48d3d;
      }

      .dog-9 {
        fill: #bc7f2e;
      }

      .dog-10 {
        fill: #f4c77f;
      }

      .dog-11 {
        fill: #2cb3dd;
      }

      .dog-12 {
        fill: #eab568;
      }

      .dog-13 {
        fill: #b78a48;
      }

      .dog-14 {
        fill: #ab657f;
      }
    </style>
  </defs>
  <g id="OBJECTS">
    <g>
      <g>
        <path class="dog-11" d="M90.15,81.2c-2.65,3.62-12.28,15.34-25.99,18.83-10.51,2.68-19.29,.62-23.12-1.15-1.17-.54-1.87-1.05-2.03-1.4-.67-1.48,0-8.67,0-8.67,3.18,.43,6.38,.55,9.42,.34,17.48-1.21,29.44-13.92,29.44-13.92,2.72,2.45,7.21,4.53,12.28,5.97Z"/>
        <path class="dog-8" d="M26.86,8.29C36.13-.85,44.6,3.25,44.6,3.25c-15.42,9.79-16.83,32.9-19.76,41.34-5.24,15.12-11.14,18.02-10.68,25.6,.2,3.34,1.53,6.25,3.63,8.74-6.59,.08-15.74-5.17-17.55-13.17-1.81-8.07,6.86-17.75,11.3-22.99,4.43-5.24,8.42-27.68,15.32-34.48Z"/>
        <path class="dog-8" d="M116.18,53.46c1.51,8.13,10.28,20.56,1.82,26.81-5.16,3.82-15.94,3.8-25.4,1.57-.83-.2-1.65-.41-2.45-.64-5.07-1.44-9.56-3.52-12.28-5.97-6.24-5.61-1.62-27.2,1.41-36.29,5.65-16.94,.81-34.28,.81-34.28,0,0,6.04-2.84,17.14,2.62,13.1,6.46,16.01,30.34,18.95,46.18Z"/>
        <path class="dog-10" d="M17.79,78.93c-2.1-2.49-3.43-5.4-3.63-8.74-.46-7.58,5.44-10.48,10.68-25.6,2.93-8.44,4.34-31.55,19.76-41.34,12.71-8.06,35.49,1.41,35.49,1.41,0,0,4.84,17.34-.81,34.28-3.03,9.09-7.65,30.68-1.41,36.29,0,0-11.96,12.71-29.44,13.92-3.04,.21-6.24,.09-9.42-.34-8.41-1.14-16.65-4.49-21.22-9.88Z"/>
        <path class="dog-12" d="M170.05,139.93c.3-.14,6.16-2.78,5.49,5.65-.69,8.64-7.4,14.64-7.4,14.64,0,0,7.38-1,3.14,8.84-6.37,14.79-21.29,14.79-21.29,14.79,.43-3.15,.34-6.41-.22-9.78l.19-.03s7.67-16.53,3.17-30.58-12.93-34.38-4.65-45.79c8.04-11.1,15.18,8.87,12.12,18.01-.11,.27-.19,.48-.23,.61,.09-.2,.16-.4,.23-.61,.79-1.92,3.16-6.68,6.49-3.94,4.11,3.39-1.59,15.36-1.59,15.36,0,0,5.43-5.51,6.63,.49,1.18,5.84-1.92,12.01-2.08,12.34Z"/>
        <path class="dog-10" d="M93.03,201.95c.47-3.19,1.53-20.67,2.03-37.44h.41c-.49,15.39,9.79,27.4,8.84,27.56-8.51,1.35-10.86,7.66-11.28,9.88Z"/>
        <path class="dog-10" d="M95.47,164.52h-.41c-.5,16.76-1.56,34.24-2.03,37.43,.42-2.22,2.77-8.53,11.28-9.88,.95-.16-9.33-12.17-8.84-27.55Zm-56.25,39.25l-.51,.31s-4.28,1.22-6.87-.11c-.3,.04-5.81,.65-7.56-2.78-2.06-4.07,3.89-9.41,6.68-16.07,1.95-4.66,10.08-86.24,10.08-86.24,3.83,1.77,12.61,3.83,23.12,1.15,13.71-3.49,23.34-15.21,25.99-18.83,.8,.23,1.62,.44,2.45,.64,0,0,24.39,36.14,38.5,55.29,9.83,13.34,16.82,25.72,18.67,36.94,.56,3.37,.65,6.63,.22,9.78-.19,1.43-.49,2.84-.91,4.23-1.58,5.24-11.78,11.81-18.8,7.12,2.92,8.12,.78,8.57-1.41,9.39-9.39,3.53-19.97,4.91-22.31,2.64l-.06,.07s-5,2.2-6.96-.54c-.34,.06-7.35,1.23-6.55-4.55-.8,4.33-9.67,7.57-14.31,5.34,0,0-5.83,2.16-8.23,.02l-.39,.24s-8.41,1.18-8.12-4.89c.2-4.18,5.19-6.98,7-11.21-5.23-5.98-9.8-14.77-13.6-23.97,.03,5.46-.01,27.07-2.07,31.19-1.81,3.63-11.79,7.87-13.84,5.15-.08-.1-.15-.21-.21-.31Z"/>
      </g>
      <path d="M56.24,47.77c0,1.77-1.08,3.2-2.42,3.2s-2.42-1.43-2.42-3.2,1.08-3.2,2.42-3.2,2.42,1.43,2.42,3.2Z"/>
      <path d="M33.37,46.08c0,1.77-1.08,3.2-2.42,3.2s-2.42-1.43-2.42-3.2,1.08-3.2,2.42-3.2,2.42,1.43,2.42,3.2Z"/>
      <path class="dog-3" d="M28.53,80.92c-.54,0-.98-.43-1-.97-.09-2.73,0-7.17,0-7.36,.01-.55,.49-.97,1.02-.98,.55,.01,.99,.47,.98,1.02,0,.05-.09,4.58,0,7.25,.02,.55-.41,1.01-.97,1.03-.01,0-.02,0-.03,0Z"/>
      <path class="dog-5" d="M39.25,78.6c-4.52,6.92,.85,26.54-10.79,23.72-7.78-1.89-6.27-17.65-3.79-23.39,0,0,4.84,1.57,8.7,.99s5.88-1.32,5.88-1.32Z"/>
      <path class="dog-14" d="M29.88,79.53c-.21,.66-.41,1.37-.56,2.07-.18,.7-.32,1.4-.43,2.11-.23,1.42-.42,2.84-.53,4.28-.1,1.43-.15,2.87-.16,4.32-.01,1.45,.07,2.89,.11,4.36h0c0,.21-.15,.37-.35,.38-.17,0-.32-.11-.36-.27-.17-.72-.32-1.45-.45-2.19-.09-.74-.21-1.48-.26-2.22-.15-1.49-.11-2.99-.03-4.49,.13-1.49,.34-2.99,.73-4.44,.39-1.46,.86-2.88,1.64-4.22,.1-.17,.32-.23,.49-.13,.15,.09,.21,.26,.16,.42v.03Z"/>
      <path class="dog-8" d="M54.39,31.78c-.99,2.14,6.35,5.34,7.76,3.23,1.41-2.12-5.95-7.16-7.76-3.23Z"/>
      <path class="dog-8" d="M37.55,30.33c-.06-1.79-7.09-2.17-7.63,1.05-.54,3.23,7.73,2.23,7.63-1.05Z"/>
      <path class="dog-6" d="M55.59,88.12c-.4,2.18-.64,4.41-.61,6.61,0,1.1,.11,2.2,.26,3.29,.15,1.09,.46,2.15,.78,3.21h0c.04,.14-.03,.27-.16,.31-.11,.03-.23-.02-.28-.12-.53-1.02-.96-2.11-1.2-3.24-.26-1.13-.4-2.29-.4-3.44,0-1.15,.07-2.31,.27-3.44,.2-1.13,.46-2.25,.89-3.33,.05-.12,.19-.18,.31-.13,.11,.04,.17,.16,.15,.27h0Z"/>
      <path class="dog-6" d="M55.8,105.98c-.28,0-.5-.22-.5-.5v-4.16c0-.28,.22-.5,.5-.5s.5,.22,.5,.5v4.16c0,.28-.22,.5-.5,.5Z"/>
      <path class="dog-4" d="M49.85,104.31c-1.98,1.23,.27,3.49,.27,3.49,0,0-1.49,1.75-.61,2.96,.87,1.21,2.83-.68,2.83-.68l9.21-.2s2.05,1.39,2.89,.07c.94-1.48-1.01-2.42-1.01-2.42,0,0,1.95-2.15,.67-3.22-1.68-1.41-3.77,1.04-3.77,1.04l-7.52,.37s-1.55-2.29-2.96-1.41Z"/>
      <path d="M174.53,107.4c-1.85-4.61-4.61-8.7-8.35-11.99-.72-.63-1.7,.34-1.05,1.05,3.12,3.4,5.69,7.41,7.33,11.72,.78,2.05,1.37,4.18,1.74,6.35,.4,2.34,.43,4.72,.68,7.08,.1,.93,1.56,1.33,1.78,.24,.94-4.73-.37-10.05-2.13-14.45Z"/>
      <path d="M180,100.34c-1.49-3.22-3.58-6.12-6.11-8.61-.82-.81-2.06,.43-1.26,1.26,2.32,2.4,4.2,5.19,5.62,8.2,1.43,3.03,2.06,6.28,2.95,9.48,.19,.67,1.12,.49,1.17-.16,.28-3.5-.91-7.04-2.36-10.18Z"/>
      <path class="dog-13" d="M28.72,190.03c-.8,1.58-1.72,3.09-2.54,4.61-.81,1.51-1.62,3.08-1.65,4.62-.03,.76,.16,1.49,.6,2.1,.43,.62,1.06,1.08,1.78,1.44,1.46,.68,3.22,.88,4.91,.86h.02c.17,0,.31,.13,.31,.31,0,.15-.11,.28-.26,.31-1.79,.3-3.65,.26-5.45-.43-.89-.34-1.73-.94-2.33-1.76-.61-.8-.92-1.85-.89-2.85,.12-2.01,1.05-3.65,1.96-5.17,.95-1.52,1.97-2.94,3.01-4.36,.1-.14,.3-.17,.43-.07,.12,.09,.16,.26,.09,.39Z"/>
      <path class="dog-13" d="M34.68,195.48c-1.21,.87-2.37,1.87-3.2,3.02-.85,1.14-1.23,2.51-.57,3.64,.26,.58,.7,1.02,1.29,1.32,.6,.29,1.29,.43,2,.53,.71,.09,1.46,.09,2.2,.04,.74-.03,1.5-.13,2.23-.25h.02c.17-.03,.33,.08,.36,.25,.02,.15-.06,.29-.2,.34-1.5,.52-3.06,.82-4.69,.75-.82-.03-1.65-.19-2.45-.55-.8-.37-1.52-1.04-1.92-1.85-.44-.78-.53-1.78-.33-2.64,.2-.87,.61-1.66,1.16-2.27,1.07-1.26,2.37-2.19,3.81-2.87,.15-.07,.34,0,.41,.15,.06,.14,.02,.3-.1,.38h-.02Z"/>
      <path class="dog-13" d="M42.41,195.92c-.58,.83-1.14,1.69-1.66,2.55-.51,.86-.97,1.74-1.24,2.63-.28,.89-.28,1.75,.24,2.33,.52,.61,1.5,.95,2.46,1.2h.01c.17,.05,.27,.22,.22,.38-.04,.14-.17,.24-.31,.23-1.05-.02-2.24-.13-3.21-1.01-.48-.43-.78-1.09-.86-1.71-.08-.63,.03-1.23,.18-1.78,.34-1.09,.89-2.04,1.52-2.9,.63-.87,1.35-1.64,2.17-2.33,.13-.11,.33-.1,.44,.04,.09,.11,.1,.27,.02,.38h0Z"/>
      <path class="dog-13" d="M63.03,131.68l1.68,10.47,1.52,10.49c.97,7,1.85,14.02,2.63,21.05,.36,3.52,.69,7.04,.92,10.59,.1,1.78,.2,3.55,.16,5.36,0,.45-.03,.92-.1,1.4,0,.22-.1,.53-.18,.8-.08,.28-.2,.45-.3,.67-.43,.84-.95,1.62-1.52,2.33-1.12,1.44-2.38,2.69-3.44,4.04-1.05,1.33-1.92,2.81-1.86,4.41v.6s.14,.56,.14,.56c.02,.2,.11,.36,.19,.53,.09,.17,.14,.36,.27,.49,.41,.64,1.1,1.09,1.86,1.39,1.52,.61,3.32,.72,5,.57h.03c.21-.02,.39,.13,.41,.34,.02,.2-.13,.39-.33,.41-1.81,.23-3.66,.21-5.45-.42-.88-.32-1.78-.83-2.37-1.66-.58-.81-.94-1.83-.91-2.79-.05-.97,.17-1.96,.56-2.83,.39-.87,.91-1.65,1.45-2.38,1.1-1.45,2.33-2.73,3.35-4.1,.52-.68,.97-1.39,1.32-2.13,.07-.18,.21-.39,.23-.54,.03-.15,.08-.27,.09-.49,.05-.39,.07-.81,.08-1.24,.03-1.71-.08-3.47-.19-5.22-.25-3.5-.61-7.01-.99-10.52-.72-7.02-1.59-14.02-2.44-21.03l-2.56-21.03c-.03-.21,.12-.4,.33-.43,.2-.03,.39,.12,.43,.32Z"/>
      <path class="dog-13" d="M73.34,196.96c-.2,.15-.54,.52-.79,.83-.26,.33-.51,.67-.72,1.03-.46,.7-.84,1.44-1.14,2.22-.58,1.53-.83,3.22-.49,4.75,.1,.74,.54,1.28,1.15,1.63,.62,.35,1.42,.48,2.23,.53,1.64,.04,3.36-.27,5-.69h.02c.17-.05,.33,.05,.38,.22,.04,.15-.04,.3-.18,.36-1.64,.71-3.38,1.17-5.23,1.24-.92,.02-1.9-.11-2.82-.58-.91-.46-1.67-1.43-1.82-2.44-.37-1.89-.04-3.8,.7-5.47,.39-.83,.86-1.61,1.42-2.33,.28-.36,.59-.69,.91-1.01,.36-.32,.61-.61,1.18-.87,.15-.07,.32,0,.39,.15,.06,.13,.02,.27-.09,.36l-.11,.09Z"/>
      <path class="dog-13" d="M81,197.11c-1.18,1.63-2.25,3.41-2.94,5.27-.33,.93-.57,1.91-.47,2.79,.09,.89,.6,1.55,1.43,1.89,1.73,.74,3.78,.7,5.7,.32,1.92-.4,3.81-1.16,5.35-2.31,.78-.56,1.43-1.27,1.83-2.04l.16-.29c.04-.1,.06-.2,.09-.3,.06-.2,.13-.39,.15-.65,.05-.49,.13-.96,.16-1.48,.18-2.04,.32-4.09,.45-6.14,.26-4.11,.46-8.22,.66-12.33,.43-8.22,.73-16.45,.97-24.68,.1-4.11,.19-8.23,.17-12.34v-3.08s-.08-3.08-.08-3.08c-.08-2.05-.21-4.1-.59-6.06v-.04c-.05-.21,.09-.41,.29-.45,.2-.04,.4,.09,.44,.29,.47,2.07,.66,4.14,.81,6.21l.18,3.1,.1,3.1c.11,4.13,.09,8.26,.06,12.38-.09,8.25-.41,16.49-.77,24.73-.21,4.12-.45,8.24-.73,12.35-.15,2.06-.29,4.12-.49,6.18-.04,.51-.12,1.06-.19,1.59-.01,.26-.11,.56-.2,.85-.05,.15-.09,.3-.14,.44l-.21,.39c-.57,1.04-1.4,1.86-2.29,2.48-1.79,1.28-3.84,2.05-5.95,2.45-2.1,.37-4.36,.41-6.44-.53-.52-.24-1.05-.62-1.41-1.14-.37-.51-.55-1.13-.59-1.71-.08-1.18,.25-2.24,.63-3.24,.81-1.98,1.95-3.73,3.24-5.39,.13-.17,.37-.2,.53-.07,.16,.13,.2,.36,.08,.52h-.01Z"/>
      <path class="dog-13" d="M106.66,207.65c-1.62,.8-3.4,1.4-5.41,1.02-1-.18-2-.87-2.54-1.79l-.34-.71c-.08-.27-.15-.56-.19-.84,0-.27-.02-.55,.01-.82,.05-.25,.08-.52,.15-.76,.28-.98,.78-1.79,1.32-2.54,.55-.75,1.18-1.42,1.89-2,1.38-1.16,2.99-2.19,4.9-2.38,.21-.02,.4,.13,.42,.34,.02,.19-.1,.36-.28,.41h-.03c-.76,.22-1.5,.61-2.17,1.08-.68,.45-1.32,.98-1.9,1.58-.58,.59-1.13,1.2-1.57,1.88-.45,.66-.86,1.36-1.05,2.07-.04,.17-.07,.34-.11,.52-.02,.17,0,.32-.02,.48,.02,.15,.06,.28,.09,.43,.08,.15,.15,.31,.22,.47,.32,.6,.85,.98,1.54,1.21,.69,.22,1.51,.23,2.32,.13,.81-.07,1.65-.27,2.44-.49h.03c.2-.07,.41,.05,.47,.25,.05,.18-.04,.36-.2,.44Z"/>
      <path class="dog-13" d="M99.62,207.14c-1.03,.18-2.05,.23-3.1,.11-1.03-.13-2.12-.46-2.96-1.26-.86-.8-1.17-2.01-1.14-3.08-.02-1.1,.3-2.13,.66-3.09,.77-1.93,2-3.69,3.58-5.06,1.58-1.37,3.48-2.35,5.47-2.92,.49-.18,1-.25,1.51-.37l.38-.08,.19-.04s-.26,.06-.34,.17c-.09,.09-.17,.21-.19,.33-.02,.09-.02,.09-.02,.14,0,.05,0,.07,0,.06,.01,.04-.03-.08-.08-.16l-.16-.3c-.46-.83-1-1.69-1.5-2.55-1.01-1.73-1.97-3.5-2.83-5.32-1.72-3.64-3.07-7.48-3.81-11.47-.72-3.98-.82-8.11-.14-12.12,.64-4,2.13-7.96,4.62-11.23,1.26-1.62,2.78-3.07,4.53-4.18,1.73-1.15,3.78-1.78,5.82-2.04,4.15-.43,8.2,.86,11.7,2.78,.19,.1,.26,.33,.16,.52-.1,.18-.32,.25-.51,.16-3.49-1.76-7.41-2.83-11.2-2.3-1.87,.29-3.72,.88-5.28,1.97-1.58,1.05-2.95,2.4-4.1,3.93-2.25,3.13-3.65,6.8-4.24,10.64-.62,3.83-.51,7.76,.21,11.59,.7,3.83,1.97,7.56,3.62,11.11,.82,1.78,1.75,3.51,2.73,5.22,.49,.86,1,1.69,1.5,2.59l.19,.37c.06,.14,.12,.24,.19,.53,0,.02,.02,.08,.02,.15,0,.08,0,.11-.02,.23-.04,.15-.12,.31-.23,.41-.1,.11-.38,.21-.42,.21l-.18,.03-.35,.07c-.46,.1-.94,.16-1.39,.31-1.83,.49-3.56,1.34-5.01,2.54-1.45,1.2-2.59,2.77-3.33,4.51-.35,.88-.67,1.78-.67,2.68-.04,.89,.16,1.77,.75,2.37,.58,.61,1.47,.94,2.4,1.09,.92,.14,1.91,.13,2.84,0h.02c.21-.03,.4,.11,.43,.32,.03,.2-.11,.39-.31,.43Z"/>
      <path class="dog-13" d="M127.22,186.98c1.05,2.06,2.04,4.15,2.95,6.29,.87,2.15,1.73,4.32,2.13,6.73,.06,.3,.1,.6,.1,.93,.02,.32,.04,.63-.01,.97-.02,.65-.3,1.4-.77,1.98-.5,.61-1.17,.9-1.72,1.14-.57,.23-1.09,.41-1.64,.62-2.19,.79-4.42,1.49-6.68,2.04-2.27,.54-4.57,.97-6.9,1.22-1.17,.12-2.35,.2-3.54,.18-1.19-.02-2.4-.11-3.63-.54-.6-.22-1.27-.55-1.74-1.26-.21-.34-.34-.84-.31-1.15-.01-.34,0-.67,.08-1,.24-1.34,1.05-2.4,1.91-3.25,1.8-1.67,3.96-2.72,6.21-3.41,.2-.06,.41,.05,.48,.25,.06,.19-.04,.39-.22,.47h-.01c-2.08,.83-4.13,1.94-5.62,3.52-.73,.78-1.35,1.68-1.47,2.65-.05,.24-.05,.48-.03,.72,0,.27,.06,.34,.13,.5,.18,.26,.59,.5,1.06,.65,.96,.3,2.08,.37,3.19,.38,1.11,0,2.24-.08,3.36-.21,2.25-.26,4.48-.71,6.69-1.26,2.21-.53,4.4-1.18,6.55-1.93,1.04-.41,2.29-.71,2.75-1.29,.51-.57,.54-1.67,.42-2.73-.28-2.16-1.05-4.35-1.83-6.48-.76-2.16-1.68-4.26-2.54-6.4h0c-.08-.2,.01-.42,.21-.5,.18-.08,.39,0,.48,.18Z"/>
      <path class="dog-13" d="M43.03,126.7c.72,2.84,1.48,5.68,2.28,8.5,.78,2.83,1.6,5.65,2.46,8.45,.86,2.81,1.74,5.6,2.64,8.39,.95,2.77,1.89,5.55,2.93,8.29,2,5.51,4.21,10.94,6.79,16.19l.95,1.98,1.04,1.92c.72,1.27,1.34,2.6,2.16,3.81,.78,1.23,1.51,2.5,2.34,3.7l2.61,3.51v.02c.14,.17,.1,.41-.06,.53-.16,.12-.38,.09-.51-.05-4.01-4.41-7.05-9.56-9.78-14.79-2.74-5.25-4.95-10.74-7.03-16.26-2.03-5.54-3.84-11.16-5.43-16.84-1.58-5.68-3.02-11.4-4.14-17.19-.04-.21,.1-.41,.3-.45,.2-.04,.39,.09,.44,.28h0Z"/>
      <path class="dog-7" d="M82.23,27.23c-.46,3.33-1.12,6.63-1.85,9.93-.38,1.64-.84,3.28-1.32,4.89-.47,1.59-.9,3.2-1.27,4.82-.74,3.24-1.38,6.5-1.78,9.79-.41,3.28-.66,6.6-.43,9.83,.12,1.6,.31,3.23,.87,4.63,.14,.34,.32,.65,.47,.97l.66,.98,.74,.93,.8,.87c2.24,2.27,5.14,3.83,8.18,5.02,3.06,1.17,6.32,1.88,9.6,2.36,3.29,.52,6.62,.73,9.97,.94,.1,0,.17,.09,.17,.18,0,.09-.08,.16-.17,.17-3.36,.16-6.73,.11-10.11-.15-3.37-.33-6.74-.92-10-1.99-3.26-1.07-6.41-2.73-8.98-5.18l-.92-.96-.84-1.04-.76-1.1c-.22-.42-.45-.85-.64-1.28-.7-1.74-.89-3.48-1.04-5.21-.22-3.46,.05-6.87,.52-10.23,.5-3.36,1.17-6.68,2.09-9.94,.45-1.63,.96-3.25,1.51-4.85,.55-1.58,1.05-3.15,1.52-4.76,.98-3.19,1.78-6.45,2.59-9.7,.03-.11,.14-.18,.25-.16,.11,.03,.17,.13,.16,.23Z"/>
      <path class="dog-3" d="M18.34,72.46c.63,1.28,1.59,2.51,2.73,3.44,1.12,.96,2.42,1.7,3.81,2.2,2.78,.95,5.89,1.24,8.85,.92,2.97-.31,5.85-1.33,8.31-3.01,2.46-1.68,4.42-4.08,5.83-6.81,.12-.23,.41-.33,.64-.21,.21,.11,.31,.36,.23,.58-.53,1.52-1.3,2.97-2.24,4.32-.96,1.33-2.12,2.52-3.43,3.54-2.62,2.04-5.86,3.22-9.13,3.58-3.29,.32-6.6-.02-9.71-1.29-3.07-1.29-5.73-3.72-6.8-6.95-.08-.25,.05-.52,.3-.6,.23-.08,.47,.03,.58,.24l.03,.06Z"/>
      <path d="M19.69,65.3c-1.68,3.7,3.54,8,9.43,8.01,5.15,.01,9.59-2.71,9.6-6.15,.01-4.95-16.16-8.15-19.02-1.86Z"/>
      <path class="dog-1" d="M74.65,161.66c-.02-.44-.04-.87-.06-1.31-.02-.41-.35-.8-.79-.79-.44,.02-.77,.34-.79,.79-.02,.44-.04,.87-.06,1.31,0,.21-.04,.43-.02,.64,0,.16,.04,.32,.06,.48,.02,.12,.03,.23,.06,.34,.09,.31,.4,.57,.73,.56,.34-.02,.64-.23,.73-.56,.03-.11,.05-.21,.06-.32,.02-.16,.06-.34,.07-.5,.01-.21-.01-.43-.02-.64Z"/>
      <path class="dog-1" d="M77.04,160.56c-.39-.09-.82,.12-.92,.52-.12,.48-.2,.98-.25,1.47-.02,.22-.04,.44-.03,.66,0,.15,0,.34,.05,.49,.03,.11,.08,.21,.12,.31,.1,.25,.31,.47,.6,.46,.27-.01,.53-.18,.6-.46,.05-.18,.1-.35,.11-.53,0-.14,.02-.28,.02-.41,0-.24,.03-.48,.06-.72,.04-.29,.09-.58,.17-.86,.1-.38-.12-.83-.52-.92Z"/>
      <path class="dog-1" d="M105.63,168.9c-.04-.21-.08-.42-.12-.64,0-.04-.02-.15-.02-.17-.01-.11-.02-.23-.03-.34-.06-.91,0-1.71,.17-2.52,.1-.44-.13-.95-.6-1.05-.45-.1-.93,.14-1.05,.6-.26,.98-.4,2.01-.37,3.02,.01,.54,.07,1.08,.16,1.6,.04,.22,.11,.44,.18,.66,.11,.35,.26,.6,.49,.89,.2,.25,.63,.29,.9,.17,.3-.13,.49-.41,.5-.75,.02-.49-.12-.99-.22-1.47Z"/>
      <path class="dog-1" d="M108.92,171.3c-.04-.23-.09-.45-.14-.67-.1-.46-.19-.92-.29-1.37-.07-.35-.51-.59-.85-.48-.39,.13-.55,.47-.48,.85,.08,.46,.15,.93,.23,1.39,.04,.23,.07,.46,.11,.68,.03,.15,.07,.33,.15,.46,.12,.2,.3,.28,.51,.36,.18,.07,.4-.02,.52-.14,.17-.16,.29-.34,.29-.58,0-.16-.03-.34-.06-.5Z"/>
      <path class="dog-1" d="M111.34,170.39c-.02-.12-.04-.21-.08-.33-.04-.13-.08-.26-.13-.4-.09-.27-.18-.55-.26-.82-.08-.24-.35-.43-.61-.34-.26,.08-.41,.34-.34,.61,.07,.28,.14,.56,.21,.84,.03,.13,.07,.27,.1,.4,.05,.18,.12,.34,.19,.51,.04,.1,.15,.17,.24,.21,.1,.04,.22,.06,.33,.03,.08-.03,.16-.07,.22-.13,.08-.07,.16-.24,.15-.36,0-.07-.02-.14-.03-.22Z"/>
      <path class="dog-1" d="M36.83,177.89c0-.48-.01-.97-.02-1.45,0-.39-.34-.77-.75-.75-.41,.02-.75,.33-.75,.75,0,.48-.01,.97-.02,1.45,0,.24-.03,.49,0,.73,.04,.32,.12,.63,.25,.92,.18,.39,.85,.39,1.03,0,.13-.29,.21-.6,.25-.92,.03-.24,0-.49,0-.73Z"/>
      <path class="dog-1" d="M38.83,178.14c-.1-.1-.25-.17-.39-.16-.14,0-.29,.05-.39,.16-.11,.12-.14,.24-.16,.39l-.13,.95c-.02,.16-.04,.32-.06,.48-.02,.12-.02,.21,0,.33,.02,.08,.04,.16,.05,.23,.04,.18,.22,.32,.4,.34,.18,.02,.4-.06,.48-.23,.03-.07,.07-.14,.1-.21,.06-.14,.07-.17,.09-.32,0-.04,0-.07,.01-.11,.02-.16,.03-.33,.05-.49,.03-.32,.07-.65,.1-.97,.01-.13-.07-.3-.16-.39Z"/>
      <path class="dog-1" d="M102.88,102.32c-.02-.14-.06-.27-.13-.4-.05-.08-.13-.16-.19-.24-.08-.1-.16-.2-.23-.3-.15-.19-.33-.36-.5-.53-.34-.35-.68-.7-1.02-1.05-.17-.18-.44-.28-.69-.28s-.52,.11-.69,.28c-.17,.19-.3,.43-.28,.69,.01,.09,.02,.17,.03,.26,.05,.16,.13,.31,.25,.43,.31,.37,.61,.75,.92,1.12,.15,.18,.29,.38,.46,.55,.08,.08,.17,.17,.25,.25,.09,.09,.19,.18,.3,.25,.13,.09,.24,.1,.38,.13,.3,.05,.55,.03,.8-.16,.22-.17,.37-.43,.36-.72,0-.09-.01-.17-.02-.26Z"/>
      <path class="dog-1" d="M100.67,103.59c-.08-.14-.21-.25-.32-.37-.06-.07-.12-.15-.19-.22-.03-.03-.06-.07-.09-.11-.13-.17-.24-.35-.32-.55-.06-.1-.13-.19-.23-.25-.09-.08-.19-.13-.3-.16-.08-.01-.16-.02-.24-.03-.12,0-.24,.02-.34,.08-.17,.07-.34,.2-.43,.36-.11,.21-.17,.46-.09,.69,.07,.22,.16,.44,.27,.64,.09,.18,.21,.34,.33,.5,.07,.09,.14,.19,.23,.27,.12,.1,.24,.19,.36,.28,.18,.13,.39,.2,.61,.21,.07,0,.14,0,.21,0,.23-.02,.42-.1,.56-.28,.06-.07,.11-.15,.13-.24,.03-.13,.03-.25,0-.38-.06-.14-.09-.29-.16-.42Z"/>
      <path class="dog-1" d="M97.4,107.02c-.04-.13-.1-.25-.2-.35-.21-.26-.42-.51-.63-.77-.08-.09-.17-.15-.28-.18-.1-.06-.22-.08-.34-.08-.12,0-.23,.02-.34,.08-.11,.04-.2,.1-.28,.18l-.14,.18c-.08,.14-.12,.28-.12,.44,.01,.08,.02,.16,.03,.23,.04,.15,.12,.28,.23,.39,.26,.21,.51,.42,.77,.63,.07,.08,.16,.13,.25,.16,.09,.05,.19,.07,.3,.07,.11,0,.21-.02,.3-.07,.1-.03,.18-.09,.25-.16,.04-.05,.08-.11,.12-.16,.07-.12,.11-.25,.11-.4,0-.07-.02-.14-.03-.21Z"/>
      <path class="dog-1" d="M50.04,119.11c-.02-.25-.09-.47-.27-.65-.16-.16-.42-.28-.65-.27-.52,.02-.9,.41-.93,.93-.01,.21-.03,.41-.06,.62-.03,.18-.05,.35-.09,.53-.06,.3-.1,.59-.14,.89,.01-.09,.02-.18,.04-.27-.03,.18-.06,.36-.09,.54-.04,.24-.04,.48-.05,.72-.02,.35,.27,.73,.62,.81,.39,.09,.73-.07,.95-.39,.07-.11,.15-.21,.22-.32,.1-.16,.16-.36,.22-.55,.11-.33,.19-.64,.23-.99,.05-.53,.05-1.06,0-1.59Z"/>
      <path class="dog-1" d="M51.77,126.94c-.14-.14-.36-.24-.56-.23-.2,0-.41,.08-.56,.23-.14,.15-.23,.34-.23,.56,0,.24,.01,.48,.02,.71,0,.17,0,.36,.04,.53,.03,.11,.07,.22,.11,.33,.09,.26,.33,.49,.62,.47,.29-.01,.53-.19,.62-.47,.04-.11,.07-.22,.11-.33,.05-.17,.04-.36,.04-.53,0-.24,.01-.48,.02-.71,0-.2-.09-.42-.23-.56Z"/>
      <path class="dog-2" d="M160.33,121.46c-.08-.61-.21-1.22-.39-1.81-.08-.26-.33-.43-.6-.39-.25,.03-.5,.27-.48,.54,.05,.57,.05,1.15,0,1.73-.02,.29-.05,.57-.07,.85-.03,.41-.06,.86,.3,1.14,.24,.19,.49,.23,.77,.1,.46-.22,.52-.72,.53-1.18,.01-.33-.02-.65-.07-.98Z"/>
      <path class="dog-2" d="M163.11,123.6c-.03-.34-.07-.68-.13-1.01-.09-.54-.23-1.06-.41-1.57-.12-.33-.41-.55-.77-.5-.31,.04-.65,.34-.61,.69,.11,.82,.1,1.64,0,2.45,.01-.09,.02-.17,.03-.26-.03,.2-.06,.4-.06,.6,0,.13,0,.24,.04,.37,.07,.27,.24,.43,.46,.59,.27,.19,.64,.14,.92,0,.49-.24,.57-.87,.53-1.36Z"/>
      <path class="dog-2" d="M157.71,112.75c-.18-.61-.71-1.06-1.33-1.13-.1-1.05-.38-2.07-.82-3.03-.26-.56-1.08-.58-1.47-.19-.53,.53-.91,1.16-1.13,1.87-.24,.8,.9,1.33,1.36,.67,.13,.74,.17,1.48,.06,2.19-.07,.5,.08,1,.59,1.2,.25,.1,.53,.09,.77,0,0,.3-.01,.6-.02,.91-.01,.62,.05,1.17,.6,1.54,.23,.16,.59,.15,.83,0,.77-.48,.63-1.45,.64-2.24,0-.59,.08-1.23-.09-1.8Z"/>
      <path class="dog-2" d="M169.03,132.39c-.15-.45-.63-.79-1.11-.63-.45,.15-.78,.63-.63,1.11,.06,.19,.11,.38,.14,.57,0,.01,.02,.09,.03,.14,0,.03,.02,.18,.02,.2,.03,.37,.02,.73-.02,1.1,0,.04-.01,.08-.02,.12-.01,.07-.03,.14-.04,.22-.04,.19-.1,.38-.15,.57-.09,.35-.18,.71-.29,1.05-.1,.32,.06,.73,.36,.89,.29,.15,.72,.15,.95-.12,.16-.18,.31-.37,.44-.57,.15-.21,.24-.47,.34-.71,.17-.42,.22-.91,.27-1.37,.08-.86-.02-1.75-.3-2.57Z"/>
      <path class="dog-2" d="M168.43,151.22c-.11,.04-.22,.1-.33,.15,.18-.41,.34-.83,.49-1.25,.56-1.61,.8-3.3,.46-4.98-.11-.54-.91-.76-1.27-.34-1.43,1.69-2.79,3.43-4.02,5.27-.42,.62,.56,1.16,.99,.58,.87-1.17,1.81-2.28,2.79-3.36-.09,.84-.28,1.67-.58,2.49-.26,.73-.59,1.43-.95,2.13-.35,.68-.79,1.35-.99,2.09-.22,.81,.75,1.14,1.22,.69,0,.01,.02,.02,.02,.03,.3-.33,.55-.71,.76-1.11,.13-.13,.26-.26,.41-.37,.07-.05,.14-.08,.21-.12-.1,.38-.21,.75-.35,1.12-.3,.81-.77,1.54-1.17,2.3-.4,.77,.59,1.62,1.23,.95,1.39-1.44,1.97-3.63,1.97-5.59,0-.42-.46-.85-.9-.68Z"/>
      <path class="dog-2" d="M163.93,166.45c-.36-.19-.85-.1-1.06,.28-.2,.36-.39,.71-.59,1.07-.1,.17-.19,.35-.27,.53-.06,.13-.14,.27-.18,.41-.03,.1-.03,.22-.05,.33-.02,.15-.03,.27,.03,.41,.05,.12,.14,.24,.26,.3,.26,.14,.55,.09,.77-.1,.08-.07,.16-.13,.23-.2,.11-.1,.19-.25,.27-.38,.11-.17,.2-.34,.3-.51,.19-.36,.38-.72,.57-1.08,.19-.36,.1-.86-.28-1.06Z"/>
      <path class="dog-9" d="M82.18,64.12c0-.06,.03-.16,.03-.18,.02-.15,.05-.29,.08-.44,.12-.6-.17-1.29-.82-1.44-.64-.15-1.25,.19-1.44,.82-.35,1.1-.55,2.25-.63,3.4-.09,1.22-.17,2.78,.88,3.62,.51,.4,1.28,.43,1.64-.21,.38-.68,.4-1.36,.29-2.12-.02-.11-.04-.22-.05-.33,.03,.39,0-.11-.02-.18-.02-.24-.04-.48-.05-.72-.02-.5-.02-1,.02-1.5,.02-.24,.04-.48,.07-.71Z"/>
      <path class="dog-9" d="M85.75,67.74c-.09-.37-.22-.73-.35-1.09-.06-.17-.13-.35-.2-.52-.12-.29-.2-.44-.39-.68-.06-.07-.12-.15-.17-.22-.27-.34-.84-.38-1.2-.23-.42,.18-.65,.56-.68,1.01,0,.12-.03,.25-.03,.38,0,.21,.06,.43,.1,.64,.05,.26,.09,.52,.12,.78-.02-.12-.03-.24-.05-.36,.08,.59,.18,1.18,.26,1.77-.02-.13-.03-.25-.05-.38,.06,.47,.12,.89,.34,1.31,.14,.27,.34,.5,.57,.7,.49,.46,1.16,.32,1.53-.2,.32-.45,.47-.95,.45-1.51-.01-.47-.14-.96-.25-1.42Z"/>
      <path class="dog-9" d="M90.44,69.3c-.11-.28-.21-.56-.33-.84l.13,.3c-.12-.3-.21-.6-.27-.92-.03-.27-.04-.54-.02-.81,.02-.25-.13-.6-.32-.77-.18-.17-.38-.27-.63-.3-.53-.07-1.06,.25-1.2,.78-.2,.76-.21,1.51-.1,2.28,.06,.39,.16,.73,.34,1.08,.07,.13,.15,.26,.23,.38,.18,.26,.37,.44,.66,.56,.17,.07,.36,.1,.55,.11,.24,0,.47-.09,.65-.23,.2-.15,.29-.32,.38-.55-.03,.08-.07,.15-.1,.23,.05-.11,.12-.24,.14-.33,.04-.18,.05-.35,.02-.53-.02-.16-.08-.31-.14-.45Z"/>
      <path class="dog-9" d="M10.98,52.41c-.07-.46-.63-.85-1.08-.83-.49,.02-.95,.33-1.08,.83-.14,.54-.3,1.1-.52,1.62-.05,.12-.11,.24-.16,.37,.05-.11,.09-.22,.14-.33-.22,.52-.51,1.01-.85,1.46-.31,.39-.63,.83-.73,1.3-.09,.43,0,.86,.31,1.18s.74,.39,1.18,.31c.69-.12,1.27-.75,1.65-1.3,.26-.38,.48-.78,.66-1.21,.22-.51,.39-1,.48-1.55,.05-.3,.1-.61,.11-.92,0-.31-.06-.64-.11-.95Z"/>
      <path class="dog-9" d="M11.14,56.08c-.56,.97-1.14,1.93-1.74,2.87-.3,.47-.61,.95-.9,1.43-.18,.3-.34,.64-.45,.97-.13,.39-.08,.72-.02,1.11,.07,.5,.7,.76,1.14,.65,.38-.1,.71-.26,.99-.53,.24-.24,.47-.55,.65-.85,.32-.53,.58-1.09,.82-1.66,.46-1.08,.83-2.17,1.12-3.31,.24-.95-1.1-1.56-1.61-.68Z"/>
      <path class="dog-9" d="M27.92,16.33c-.28-.06-.59-.05-.84,.11-.25,.16-.39,.37-.5,.65-.24,.59-.49,1.18-.73,1.78-.12,.29-.23,.58-.32,.88-.07,.23-.13,.45-.12,.69,0,.15,.02,.3,.03,.46,.03,.34,.19,.62,.51,.76,.31,.13,.66,.06,.91-.17,.11-.1,.22-.2,.32-.31,.17-.17,.28-.35,.38-.56,.17-.36,.33-.73,.46-1.11,.22-.61,.44-1.22,.65-1.83,.19-.54-.22-1.22-.76-1.34Z"/>
      <path class="dog-9" d="M102.08,35.15c-.06-.3-.16-.59-.25-.89-.18-.58-.37-1.15-.55-1.73-.15-.47-.59-.77-1.08-.71-.44,.06-.91,.48-.85,.97,.07,.6,.14,1.21,.21,1.81,.04,.38,.08,.76,.16,1.13,.04,.15,.07,.31,.11,.47,.04,.14,.1,.28,.17,.41,.12,.23,.28,.35,.49,.5,.21,.16,.62,.19,.86,.11,.27-.09,.53-.26,.67-.52,.29-.52,.17-1.02,.06-1.56Z"/>
      <path class="dog-9" d="M104.9,33.61c-.23-.63-.46-1.26-.7-1.88-.51-1.33-1.05-2.66-1.75-3.9-.21-.37-.7-.52-1.08-.35-.42,.18-.58,.58-.5,1.02,.23,1.36,.63,2.7,1.07,4,.22,.63,.42,1.27,.65,1.9,.28,.78,.61,1.67,1.51,1.89,.36,.09,.65-.07,.86-.35,.51-.7,.22-1.6-.05-2.33Z"/>
      <path class="dog-9" d="M107.22,30.1c-.07-.22-.15-.43-.24-.64-.05-.11-.09-.22-.14-.33-.09-.22-.16-.36-.28-.55-.17-.27-.37-.51-.58-.76-.08-.06-.15-.12-.23-.17-.13-.08-.27-.13-.41-.13-.24-.03-.5,0-.71,.13-.16,.1-.3,.24-.4,.4-.17,.26-.16,.57-.11,.86,.04,.24,.09,.46,.16,.69,.09,.3,.23,.59,.38,.87,.1,.2,.2,.39,.32,.58,.1,.17,.22,.32,.37,.45,.09,.08,.19,.15,.28,.23,.13,.11,.26,.2,.43,.25,.21,.06,.43,.04,.63-.05,.36-.15,.59-.5,.6-.89,0-.32,.03-.62-.07-.93Z"/>
    </g>
  </g>
</svg>
