<?xml version="1.0" encoding="UTF-8"?>
<svg xmlns="http://www.w3.org/2000/svg" viewBox="0 0 116.65 109.27">
  <defs>
    <style>
      .cls-1, .cls-2, .cls-3, .cls-4 {
        fill: #fff;
      }

      .cls-5 {
        fill: #5f3500;
      }

      .cls-6 {
        fill: #d45f2b;
      }

      .cls-7 {
        isolation: isolate;
      }

      .cls-2, .cls-8 {
        opacity: .63;
      }

      .cls-2, .cls-4 {
        mix-blend-mode: soft-light;
      }

      .cls-3 {
        opacity: .84;
      }

      .cls-9 {
        fill: #672c77;
        mix-blend-mode: multiply;
        opacity: .13;
      }

      .cls-10 {
        fill: #99c0c6;
      }

      .cls-11 {
        fill: #e28223;
      }

      .cls-12 {
        fill: #5cc1e5;
      }

      .cls-13 {
        fill: #b0e2ed;
      }

      .cls-14 {
        fill: #d05098;
      }

      .cls-15 {
        fill: #f2c831;
      }

      .cls-16 {
        fill: #eda337;
      }

      .cls-17 {
        fill: #eda421;
      }
    </style>
  </defs>
  <g class="cls-7">
    <g id="Layer_2" data-name="Layer 2">
      <g id="OBJECTS">
        <g>
          <g>
            <path class="cls-10" d="M99.84,3.57v.04c0,2.05-14.83,5.94-43.69,5.71-36.17-.29-43.7-3.34-43.7-3.34C13.38-.7,98.92-2.19,99.84,3.57Z"/>
            <path class="cls-13" d="M97.28,14.53c11.89,9.94,19.37,24.37,19.37,40.43,0,29.99-26.11,54.31-58.32,54.31S0,84.95,0,54.96c0-14.59,6.18-27.84,16.23-37.6,0,0-4.71-4.7-3.78-11.38,0,0,7.53,3.05,43.7,3.34,28.86,.23,43.69-3.66,43.69-5.71,.91,5.73-2.56,10.92-2.56,10.92Zm12.4,44.33c1.48-12.8-2.41-27.09-13.18-32.6-6.96-3.56-8.16,4.95-10.94,5.7-2.79,.74-9.69-4.73-16.52-3.53-7.42,1.3-7.23,7.42-10.71,9.28-3.48,1.85-10.63-2.79-17.86-3.9-7.24-1.11-8.91,5.01-12.06,5.38-3.16,.37-10.98-8.84-15.96-2.22-4.41,5.85-5.38,13.31-5.38,20.96,0,25.31,23.85,46.76,51.87,46.76s47.82-20.69,50.74-45.83Z"/>
            <path class="cls-12" d="M96.5,26.26c10.77,5.51,14.66,19.8,13.18,32.6-2.92,25.14-22.72,45.83-50.74,45.83S7.07,83.24,7.07,57.93c0-7.65,.97-15.11,5.38-20.96,4.98-6.62,12.8,2.59,15.96,2.22,3.15-.37,4.82-6.49,12.06-5.38,7.23,1.11,14.38,5.75,17.86,3.9,3.48-1.86,3.29-7.98,10.71-9.28,6.83-1.2,13.73,4.27,16.52,3.53,2.78-.75,3.98-9.26,10.94-5.7Z"/>
          </g>
          <g>
            <g>
              <path class="cls-6" d="M65.07,80.71c-5.4,.12-10.72-1.3-13.49-2.18,0,0-2.55-1.39-2.55-3.9s2.11-5.47,2.11-5.47c0,0-2.89,.04-4.1-2.74-1-2.32-.26-3.66-.26-3.66,0,0,1.19-5.48,6.25-10.62-.09,.22-1.2,3.14,1.35,4.31,0,0-2.42,2.9-1.4,5.41,1.01,2.5,4.74,2.1,4.74,2.1,0,0-3.06,5.2-.92,7.98,2.13,2.78,5.66,2.69,5.66,2.69,0,0-.84,3.9,2.61,6.08Z"/>
              <path class="cls-11" d="M61.53,58.3s-1.85,2.7-.74,5.48c.85,2.14,5.19,2.87,5.19,2.87,0,0-2.06,4.54-.32,6.84,2.21,2.93,6.91,2.26,6.91,2.26,0,0-.37,2.17,.37,3.35-2.43,1.11-5.16,1.55-7.87,1.61-3.45-2.18-2.61-6.08-2.61-6.08,0,0-3.53,.09-5.66-2.69-2.14-2.78,.92-7.98,.92-7.98,0,0-3.73,.4-4.74-2.1-1.02-2.51,1.4-5.41,1.4-5.41-2.55-1.17-1.44-4.09-1.35-4.31h0c1.25-1.28,2.74-2.53,4.51-3.67,1.53-.99,3.18-1.71,4.88-2.18l.04,.14s-4.73,2.87-4.74,7.23c0,3.65,3.81,4.64,3.81,4.64Z"/>
              <path class="cls-15" d="M47.04,66.42c1.21,2.78,4.1,2.74,4.1,2.74,0,0-2.11,3.06-2.11,5.47s2.55,3.9,2.55,3.9c-1.23-.39-1.96-.68-1.96-.68-3.21,4.33-7.79,10.02-10.61,6.43s.41-13.24,.41-13.24c-6.87-2.1-8.72-8.9-6.62-12.24s13.98,3.96,13.98,3.96c0,0-.74,1.34,.26,3.66Z"/>
              <path class="cls-16" d="M83.38,52.21c4.34,6.09,1.37,20.69-9.64,26.5-.26,.14-.53,.27-.8,.39-.74-1.18-.37-3.35-.37-3.35,0,0-4.7,.67-6.91-2.26-1.74-2.3,.32-6.84,.32-6.84,0,0-4.34-.73-5.19-2.87-1.11-2.78,.74-5.48,.74-5.48,0,0-3.81-.99-3.81-4.64,.01-4.36,4.74-7.23,4.74-7.23l-.04-.14c8.14-2.29,17.43,.96,20.96,5.92Z"/>
            </g>
            <path d="M75.18,54.03c.26,.9-.14,1.8-.88,2.02-.75,.22-1.57-.34-1.82-1.24-.26-.9,.14-1.8,.88-2.02,.75-.22,1.57,.34,1.82,1.24Z"/>
            <path class="cls-14" d="M74.26,59.42c0-2.25-1.83-4.08-4.08-4.08s-4.08,1.83-4.08,4.08,1.83,4.08,4.08,4.08,4.08-1.83,4.08-4.08Z"/>
            <path class="cls-15" d="M66.63,71.57c-1.36-.12-5.01,1.02-6.31,4.55-1.3,3.53-.37,6.59,.56,7.33,.93,.74,5.2-1.02,6.68-5.57,.84-2.57,.17-6.21-.93-6.31Z"/>
            <path class="cls-5" d="M84.56,53.98c-.14,1.48-.67,2.87-1.49,4.12-.85,1.22-2.03,2.26-3.42,2.84-1.37,.61-2.96,.81-4.43,.46-1.47-.32-2.8-1.03-3.88-2.04-.1-.09-.1-.24-.01-.34,.08-.09,.22-.1,.31-.03h.02c1.11,.79,2.41,1.36,3.72,1.57,.66,.09,1.33,.11,1.98,.03,.65-.11,1.29-.26,1.89-.56,.61-.27,1.17-.62,1.7-1.02,.51-.42,.97-.91,1.38-1.44,.81-1.07,1.4-2.34,1.75-3.66v-.02c.04-.13,.17-.2,.3-.17,.11,.03,.19,.14,.18,.25Z"/>
            <path class="cls-2" d="M54.68,59.35c-.05-.2-.14-.38-.28-.53-.07-.12-.16-.21-.28-.28-.15-.14-.33-.23-.53-.28-.14-.02-.28-.04-.42-.06-.28,0-.55,.07-.79,.21-.03,.02-.07,.04-.1,.06l-.05,.03s-.02,.01-.03,.02c0,0,0,0-.01,0-.11,.08-.21,.17-.32,.25-.08,.11-.17,.21-.25,.32,0,0,0,0,0,.01,0,0,0,.01-.01,.02-.01,.02-.02,.03-.03,.05l-.06,.09c-.04,.06-.08,.12-.12,.18,0,0-.01,.02-.02,.03,0,0,0,0,0,.01-.05,.11-.1,.23-.14,.34-.02,.13-.03,.25-.05,.38,.02,.13,.03,.25,.05,.38,0,0,0,0,0,.01,0,0,0,.02,0,.02,.01,.06,.01,.03,.07,.17,.03,.11,.09,.21,.17,.29,.09,.15,.22,.26,.37,.34,.01,0,.03,.01,.04,.02,.11,.05,.23,.1,.34,.14,.13,.02,.25,.03,.38,.05,.13-.02,.25-.03,.38-.05,0,0,0,0,.01,0,.02,0,.03-.01,.05-.02,.07-.03,.14-.05,.2-.08,.03-.01,.07-.02,.1-.04,.02,0,.03-.01,.05-.02,0,0,.02,0,.02,0,.07-.02,.13-.05,.2-.08,.13-.04,.25-.11,.35-.2,.09-.07,.16-.12,.24-.2,.03-.03,.06-.06,.09-.08,.15-.14,.26-.31,.32-.51,.1-.19,.14-.39,.14-.61-.02-.14-.04-.28-.06-.42Z"/>
            <path class="cls-2" d="M57.98,59.14c-.02-.09-.07-.16-.13-.22-.04-.08-.1-.14-.18-.18-.06-.06-.14-.11-.22-.13-.12-.06-.25-.09-.39-.09l-.27,.04c-.08,.03-.16,.07-.24,.1-.07,.05-.14,.11-.2,.16-.05,.07-.11,.14-.16,.2-.03,.08-.07,.16-.1,.24-.04,.13-.05,.27-.02,.4,0,.09,.02,.18,.07,.25,.04,.12,.11,.23,.21,.32,.02,.01,.03,.03,.05,.04,.08,.09,.19,.16,.3,.19,.11,.06,.23,.09,.36,.08,.08-.01,.17-.02,.25-.03,.16-.04,.3-.12,.41-.24,.02-.01,.03-.03,.05-.04,.05-.07,.11-.14,.16-.2l.1-.24c.04-.13,.05-.27,.02-.4,0-.09-.02-.18-.07-.25Z"/>
            <path class="cls-2" d="M58,55.77c-.09-.15-.21-.28-.37-.37-.16-.09-.33-.14-.51-.14-.11,0-.23,.01-.34,.04-.11,.03-.21,.08-.31,.14-.13,.06-.24,.15-.33,.25-.07,.08-.14,.16-.21,.23-.05,.06-.1,.13-.15,.19-.07,.11-.11,.23-.11,.35-.02,.08-.02,.17,0,.25,0,.13,.04,.24,.11,.35,.05,.06,.1,.13,.15,.19,.06,.05,.13,.1,.19,.15,.11,.07,.23,.11,.35,.11,.13,.03,.25,.02,.38-.02,.1-.03,.2-.05,.3-.08,.03,0,.05-.01,.08-.02,.16-.05,.21-.07,.31-.15,.09-.07,.19-.13,.27-.21,.05-.07,.11-.14,.16-.21,0,0,0-.01,.01-.02l.02-.03c.19-.31,.18-.72,0-1.03Z"/>
            <path class="cls-2" d="M64.54,49.81c-.05-.15-.13-.28-.25-.39-.15-.15-.33-.26-.54-.31-.22-.07-.5-.07-.72,0-.13,.03-.25,.1-.37,.16-.07,.04-.14,.07-.22,.11-.13,.07-.27,.13-.4,.2-.13,.07-.27,.13-.4,.2-.21,.11-.39,.29-.57,.45-.06,.07-.11,.14-.17,.22-.04,.08-.07,.17-.11,.25-.01,.09-.03,.19-.04,.28,0,.15,.03,.28,.09,.41,.03,.09,.07,.17,.14,.24,.05,.08,.11,.14,.19,.19,.17,.13,.42,.25,.65,.23,.24-.02,.51-.02,.73-.1,.14-.05,.28-.1,.42-.16,.14-.05,.28-.1,.42-.16,.07-.03,.14-.05,.21-.08,.13-.05,.28-.09,.39-.16,.18-.1,.39-.3,.48-.49,.11-.19,.17-.4,.17-.62,0-.17-.03-.33-.11-.47Z"/>
            <path class="cls-2" d="M61.55,58.91c-.04-.15-.12-.29-.24-.4-.06-.05-.12-.1-.18-.14-.14-.08-.3-.12-.46-.12-.13,0-.24,.02-.35,.08-.11,.04-.21,.1-.29,.19-.09,.08-.15,.18-.19,.29-.06,.11-.08,.23-.08,.35l.03,.24c.04,.15,.12,.29,.24,.4,.06,.05,.12,.1,.18,.14,.14,.08,.3,.12,.46,.12,.13,0,.24-.02,.35-.08,.11-.04,.21-.1,.29-.19,.09-.08,.15-.18,.19-.29,.06-.11,.08-.23,.08-.35-.01-.08-.02-.16-.03-.24Z"/>
            <path class="cls-2" d="M59.1,63.25c-.04-.11-.1-.27-.17-.38-.16-.23-.25-.33-.49-.49-.14-.09-.28-.13-.44-.14-.16-.04-.32-.03-.48,.02-.09,.04-.19,.08-.29,.12-.04,.02-.06,.06-.09,.08-.21-.02-.42-.03-.62,.03-.39,.12-.76,.36-.95,.73-.15,.29-.24,.6-.23,.93,0,.31,.08,.63,.25,.9,.22,.34,.54,.62,.94,.72,.06,.02,.14,.02,.2,.03,.06,0,.14,.02,.2,.03,.14,0,.3-.02,.43-.05,.05,0,.09-.02,.14-.04,.13-.05,.27-.1,.4-.17,.08-.04,.16-.1,.24-.15,.16-.11,.32-.22,.45-.36,.14-.13,.27-.29,.36-.46,.15-.28,.2-.49,.23-.81,.01-.18-.01-.37-.07-.53Z"/>
            <path class="cls-2" d="M52.28,64.04c-1.06,0-1.06,1.64,0,1.64s1.06-1.64,0-1.64Z"/>
            <path class="cls-2" d="M57.22,70.12c0-.15-.03-.28-.09-.41-.04-.13-.12-.25-.22-.34-.07-.06-.14-.11-.22-.17-.17-.1-.35-.15-.54-.15,0,0-.02,0-.03,0,0,0-.01-.01-.02-.02-.2-.12-.4-.13-.63-.16-.06,0-.11-.01-.17,0-.14,0-.29,.01-.43,.06-.14,.05-.29,.11-.42,.18-.12,.07-.25,.17-.35,.26-.05,.04-.09,.08-.13,.13-.1,.11-.2,.23-.27,.37-.19,.34-.24,.72-.15,1.09,.06,.25,.19,.45,.35,.63,.05,.05,.1,.09,.16,.14,.15,.11,.15,.11,.32,.19,.21,.09,.32,.11,.58,.13,.16,0,.32-.03,.47-.05,.22-.04,.42-.15,.61-.25,.19-.1,.36-.23,.53-.36,.19-.15,.35-.26,.47-.48,.12-.2,.13-.27,.15-.46,.01-.1,.03-.13,.02-.2,0-.03,0-.06-.01-.1Z"/>
            <path class="cls-2" d="M56.86,74.29c-.04-.15-.12-.28-.23-.39-.06-.05-.12-.09-.18-.14-.14-.08-.29-.12-.45-.12-.12,0-.24,.02-.34,.08-.11,.04-.21,.1-.29,.18-.09,.08-.15,.18-.18,.29-.06,.11-.08,.22-.08,.34,.01,.08,.02,.16,.03,.24,.04,.15,.12,.28,.23,.39,.06,.05,.12,.09,.18,.14,.14,.08,.29,.12,.45,.12,.12,0,.24-.02,.34-.08,.11-.04,.21-.1,.29-.18,.09-.08,.15-.18,.18-.29,.06-.11,.08-.22,.08-.34-.01-.08-.02-.16-.03-.24Z"/>
            <g class="cls-8">
              <path class="cls-4" d="M61.5,70.91s0,0,0,0c0,.03,0,.04,0,0Z"/>
              <path class="cls-4" d="M61.54,70.58c0-.16-.03-.31-.1-.44-.05-.14-.13-.27-.24-.37-.1-.11-.23-.19-.37-.24-.14-.07-.28-.1-.44-.1-.1,.01-.2,.03-.3,.04-.1,0-.2,0-.3,.04-.09,.04-.18,.08-.28,.12-.17,.1-.31,.24-.42,.42-.04,.09-.08,.18-.12,.28-.06,.21-.06,.41,0,.62,.1,.27,.13,.33,.32,.54,0,0,0,0,.01,.01,0,0,0,0,0,0,.03,.02,.21,.16,.24,.18,0,0,0,0,0,0,.05,.03,.13,.06,.15,.07,.03,.01,.1,.05,.16,.06,0,0,.01,0,.02,0,.11,.02,.22,.04,.33,.04,0,0,.01,0,.02,0,.11,0,.23-.03,.33-.04,.01,0,.03,0,.04-.01,0,0,0,0,0,0,.06-.02,.22-.09,.28-.12h0s.01,0,.02-.01c0,0,0,0,0,0,.04-.03,.11-.09,.12-.09,0,0,.08-.06,.12-.09,0,0,0,0,.01-.01,.18-.2,.23-.29,.32-.54,0,0,0,0,0-.01,.01-.06,.04-.26,.04-.32,0,0,0,0,0-.01Z"/>
            </g>
            <path class="cls-2" d="M62.15,67.29c-.04-.16-.12-.3-.24-.41-.02-.01-.03-.03-.05-.04-.07-.05-.13-.1-.2-.16-.08-.03-.16-.07-.24-.1-.13-.04-.26-.05-.4-.02-.09,0-.17,.02-.25,.07-.08,.02-.16,.07-.22,.13-.07,.04-.13,.1-.18,.18-.06,.06-.1,.14-.13,.22-.06,.12-.09,.25-.09,.38,.01,.09,.02,.18,.04,.26,.03,.08,.07,.16,.1,.24,.05,.07,.1,.13,.16,.2,.07,.05,.13,.1,.2,.16,.08,.03,.16,.07,.24,.1,.13,.04,.26,.05,.4,.02,.09,0,.17-.02,.25-.07,.12-.04,.23-.11,.32-.21,.02-.01,.03-.03,.05-.04,.09-.08,.16-.19,.19-.3,.06-.11,.09-.23,.08-.36l-.03-.25Z"/>
            <path class="cls-2" d="M65.91,67.87c-1.07,0-1.07,1.66,0,1.66s1.07-1.66,0-1.66Z"/>
            <g class="cls-8">
              <path class="cls-4" d="M56.72,76.48s.02,0,.04,0c.07,0,.14,.01,.23,.03-.09-.01-.18-.02-.26-.04Z"/>
              <path class="cls-4" d="M57.93,77.52s0-.04,0-.06c0-.07,.02-.14,0-.21-.04-.13-.1-.25-.2-.35-.04-.03-.08-.06-.12-.09-.05-.04-.08-.1-.14-.13-.09-.05-.19-.08-.29-.1-.03-.01-.06-.03-.1-.04-.1-.03-.22-.04-.32-.05-.1,0-.19,0-.32,.03-.01,0-.02,0-.04,.01-.1,.03-.2,.08-.3,.12-.15,.09-.27,.21-.36,.36-.09,.16-.14,.33-.14,.51,0,.36,.19,.68,.5,.87,.05,.03,.12,.05,.17,.08,.06,.02,.11,.05,.17,.07,.05,.01,.09,.02,.14,.02,.14,.03,.27,.02,.41-.02,0,0,.02,0,.03,0,.02,0,.03-.01,.05-.02,.1-.04,.23-.08,.32-.15,.05-.04,.16-.11,.23-.18,0,0,.01-.02,.02-.02,.14-.16,.18-.22,.25-.43,0,0,0-.02,0-.03,0-.02,.02-.03,.03-.04,.01-.05,0-.1,0-.15Z"/>
            </g>
            <path class="cls-2" d="M51.93,73.55c-1.12,0-1.12,1.73,0,1.73s1.12-1.73,0-1.73Z"/>
            <path class="cls-2" d="M50.68,64.95c-.04-.1-.08-.2-.13-.3-.07-.08-.13-.17-.2-.25,0,0-.24-.19-.26-.2,0,0,0,0,0,0,0,0-.01,0-.02-.01,0,0,0,0,0,0-.08-.03-.23-.1-.3-.13,0,0,0,0-.01,0,0,0-.02,0-.02,0-.12-.02-.23-.04-.35-.05,0,0-.02,0-.02,0-.12,0-.24,.02-.35,.05,0,0-.01,0-.02,0-.29,.11-.36,.13-.59,.35,0,0,0,0,0,.01,0,0,0,0,0,0-.07,.09-.13,.17-.2,.26,0,0,0,0,0,0-.06,.09-.17,.41-.14,.32,0,0,0,.02,0,.02-.02,.12-.05,.24-.05,.36,0,.17,.03,.34,.11,.49,.05,.16,.14,.29,.26,.41,.11,.12,.25,.21,.41,.26,.15,.08,.31,.12,.49,.11,.11-.02,.22-.03,.34-.05,.12-.03,.23-.09,.33-.15,.07-.02,.14-.04,.19-.08,0,0,0,0,.01,0-.07,.03-.13,.06-.2,.08,0,0,.02-.02,.03-.02,.1-.04,.21-.08,.29-.15,.05-.02,.09-.05,.12-.09,0,0,.18-.23,.19-.24,0,0,0,0,0,0,0,0,0,0,0,0,.05-.09,.09-.2,.13-.3,0,0,0,0,0,0,0,0,0,0,0,0,.03-.11,.04-.22,.04-.33-.01-.11-.03-.22-.04-.33Z"/>
            <path class="cls-2" d="M59.15,51.44c-.03-.13-.09-.24-.17-.33-.07-.11-.16-.19-.27-.25-.11-.07-.23-.11-.36-.12-.13-.03-.26-.02-.39,.02-.08,.03-.15,.07-.23,.1-.15,.09-.26,.2-.35,.35-.01,.03-.03,.06-.04,.1-.04,.03-.09,.06-.13,.1-.01,0-.02,.02-.03,.03-.02,.03-.11,.14-.14,.18,0,0,0,0,0,0,0,0,0,.02-.01,.02-.05,.09-.1,.2-.13,.3,0,0,0,.02,0,.03-.01,.09-.03,.18-.04,.26,0,.02,0,.04,0,.06l.03,.25c.03,.12,.08,.23,.17,.32,.04,.07,.1,.13,.17,.17,.09,.08,.2,.14,.32,.17,.06,.02,.12,.02,.18,.03,.17,.02,.18,.02,.39-.02,.01,0,.02,0,.03,0,.11-.03,.22-.08,.32-.13,.02,0,.03-.02,.05-.03,.08-.05,.16-.12,.23-.18,.03-.02,.05-.05,.08-.08,.06-.08,.16-.18,.21-.28,.05-.1,.1-.21,.13-.32,.06-.24,.06-.48,0-.72Z"/>
            <path class="cls-2" d="M53.33,54.08c-1.13,0-1.13,1.76,0,1.76s1.13-1.76,0-1.76Z"/>
            <path class="cls-1" d="M54.07,57.37s-.04-.09-.06-.14c-.04-.07-.09-.12-.15-.16-.06-.05-.12-.09-.2-.1-.07-.02-.14-.02-.2-.03-.02,0-.03,0-.05,0-.12,.01-.25,.02-.35,.1-.05,.04-.11,.08-.16,.13-.05,.05-.09,.1-.12,.16-.01,.01-.02,.03-.03,.05-.03,.05-.05,.11-.07,.16,0,0,0,.01,0,.02-.02,.06-.02,.14-.03,.2,0,.05,.01,.1,.02,.15,.02,.07,.05,.14,.1,.19,.03,.04,.06,.08,.1,.1,.05,.05,.12,.08,.19,.1,.05,0,.1,.01,.15,.02,.05,0,.1-.01,.15-.02,.07-.02,.14-.05,.19-.1,.03-.02,.05-.06,.08-.08,.03-.01,.07-.03,.1-.05,0,0,0,0,0,0,0,0-.02,.01-.02,.02,.02-.01,.03-.02,.05-.03,.02,0,.04-.02,.06-.02,.07-.04,.12-.09,.16-.15,.04-.04,.06-.08,.07-.13,.04-.07,.05-.14,.05-.22,0-.05-.01-.1-.02-.15Z"/>
            <path class="cls-1" d="M59.13,52.91c-.09-.16-.22-.28-.37-.37,0,0,0,0,0,0-.08-.04-.17-.07-.25-.11-.09-.01-.18-.02-.28-.04,0,0,0,0-.01,0-.02,0-.03,0-.05,0-.02,0-.03,0-.05,0,0,0-.02,0-.02,0-.06,0-.23,.02-.29,.04-.05,.01-.21,.09-.27,.11,0,0-.02,0-.03,.01-.01,0-.03,.02-.04,.02-.1,.06-.19,.14-.28,.21-.02,.02-.05,.04-.07,.06-.01,.01-.02,.02-.03,.03,0,0-.01,.01-.02,.02-.05,.07-.12,.14-.16,.21,0,0,0,.01-.01,.02-.03,.08-.07,.16-.1,.24-.01,.09-.02,.18-.04,.26,0,.03,.03,.24,.04,.27,0,0,0,0,0,.01,.01,.05,.04,.09,.05,.13,.06,.15,.02,.08,.12,.21,.04,.07,.1,.12,.16,.16,.09,.08,.19,.14,.31,.16,0,0,.02,0,.03,0,0,0,0,0,.01,0,.13,.04,.26,.05,.4,.02,.1,0,.19-.05,.28-.09-.01,0-.02,.01-.04,.02,.06-.03,.13-.04,.2-.05-.02,0-.05,0-.07,0h0s.07,0,.1-.01c.1-.03,.19-.08,.28-.12-.08,.04-.17,.07-.25,.11,.03-.01,.05-.02,.08-.03,.01,0,.02,0,.03,0,.2-.06,.33-.14,.48-.28,.13-.13,.22-.28,.27-.46,.04-.14,.05-.28,.02-.41,0-.14-.05-.27-.12-.39Z"/>
            <path class="cls-1" d="M61.75,51.7c-.04-.07-.09-.12-.16-.16-.03-.01-.06-.03-.09-.04-.08-.04-.16-.07-.25-.07-.09,0-.17,.02-.25,.07-.15,.09-.24,.25-.24,.43s.09,.34,.24,.43c.08,.04,.16,.07,.25,.07,.09,0,.17-.02,.25-.07l.09-.04c.07-.04,.12-.09,.16-.16,.04-.07,.06-.14,.06-.22,0-.08-.02-.16-.06-.22Z"/>
            <path class="cls-1" d="M58.22,60.13c-.84,0-.85,1.31,0,1.31s.85-1.31,0-1.31Z"/>
            <path class="cls-1" d="M61.37,58.93c-.89,0-.89,1.38,0,1.38s.89-1.38,0-1.38Z"/>
            <path class="cls-1" d="M54.03,64.6c-1.09,0-1.09,1.69,0,1.69s1.09-1.69,0-1.69Z"/>
            <path class="cls-1" d="M55.89,60.76c-.06-.1-.14-.19-.25-.25-.11-.06-.22-.09-.35-.09-.01,0-.02,0-.03,0,0,0-.01,0-.02,0-.07,0-.13,.01-.2,.03-.09,.02-.18,.07-.25,.13-.03,.02-.06,.04-.08,.06-.07,.07-.12,.14-.15,.23-.02,.05-.03,.06-.04,.1,0,0,0,0,0,0-.03,.08-.02,.17-.01,.25h0s0,0,0,0c0,.01,0,.02,0,.03,0,0,0,0,0,.01-.01,.06-.02,.13,0,.19,.01,.06,.04,.11,.08,.15,.03,.05,.07,.09,.12,.11,.03,.02,.07,.02,.11,.03h.02c.08,.07,.11,.08,.18,.09,.07,.01,.14,.03,.2,.03,.12,0,.27-.04,.37-.1,.05-.04,.1-.08,.15-.11,.05-.04,.09-.09,.12-.15,0,0,0-.01,0-.02l.02-.03c.06-.11,.09-.22,.09-.35,0-.12-.03-.24-.09-.35Z"/>
            <path class="cls-1" d="M52.04,62.49c-.8,0-.8,1.24,0,1.24s.8-1.24,0-1.24Z"/>
            <path class="cls-17" d="M45.18,64.75c-1.14-.28-2.27-.6-3.39-.93-1.14-.33-2.3-.75-3.49-.81-.72-.04-.86,.91-.34,1.27,1,.68,2.29,.94,3.47,1.13,1.21,.2,2.41,.28,3.63,.28,.53,0,.66-.81,.13-.94Z"/>
            <path class="cls-17" d="M45.05,66.99c-1.01,0-2.02-.14-3.03-.07-.33,.02-.6,.23-.64,.57-.04,.32,.15,.63,.47,.72,1.03,.3,2.15,.21,3.21,.1,.34-.04,.67-.27,.66-.66-.02-.35-.29-.66-.66-.66Z"/>
            <path class="cls-17" d="M46.74,69.71c-.21-.27-.64-.39-.94-.19-.7,.48-1.4,1-1.97,1.63-.57,.64-1.11,1.32-1.53,2.07-.21,.37-.1,.9,.29,1.11,.42,.22,.84,.07,1.11-.29,.05-.07,.11-.15,.17-.22,0,0,0,0,.01-.01,.06-.08,.13-.16,.19-.24,.05-.07,.1-.15,.16-.22,.03-.04,.06-.08,.09-.12,.24-.3,.49-.6,.75-.88,.53-.57,1.04-1.15,1.62-1.67,.27-.24,.27-.68,.06-.95Z"/>
            <path class="cls-17" d="M47.29,71.72c-.24-.14-.6-.06-.74,.19-.3,.56-.58,1.13-.83,1.72-.13,.31-.27,.62-.39,.94-.11,.31-.18,.64-.26,.96-.07,.3,.1,.66,.42,.74,.33,.08,.62-.1,.74-.42,.1-.29,.22-.58,.32-.87,.1-.29,.18-.59,.28-.88,.2-.57,.41-1.12,.65-1.65,.12-.27,.08-.58-.19-.74Z"/>
            <path class="cls-17" d="M65.82,73.72c-.17-.1-.42-.04-.51,.13-.62,1.13-1.28,2.33-1.51,3.61-.03,.19,.03,.38,.22,.46,.17,.07,.39,.02,.48-.16,.59-1.12,.94-2.36,1.45-3.53,.08-.19,.05-.4-.13-.51Z"/>
          </g>
          <path class="cls-4" d="M96.8,8.31c-1.21-.45-2.84-.74-3.83,.33-.39,.43-.56,.96-.68,1.51-.06,.12-.11,.25-.16,.37-.22,.54-.44,1.08-.62,1.64-.19,.57-.37,1.15-.56,1.72-.17,.53-.4,1.07-.23,1.63,.24,.81,1.17,1.02,1.86,.67,.47-.24,.83-.7,1.18-1.09,.7-.78,1.34-1.63,1.91-2.51,.62-.98,1.15-2.01,1.61-3.07,.22-.51,.05-1-.49-1.2Z"/>
          <path class="cls-4" d="M107.81,36.46c-.1-1.08-.5-2.12-.84-3.15-.45-1.32-.94-2.63-1.5-3.91-.94-2.17-2.12-4.22-3.63-6.04-1.37-1.66-3.32-3.54-5.41-4.21-.85-.27-1.81-.27-2.57,.25-1.07,.73-1.15,2.14-.45,3.15,.68,.97,1.89,1.65,2.76,2.46,.03,.03,.05,.06,.08,.08,1.87,2.4,3.6,4.89,5,7.63,.53,1.03,1.02,2.09,1.44,3.17,.4,1,.61,2.27,1.24,3.15,.68,.96,1.93,1.1,2.84,.35,.87-.71,1.13-1.85,1.03-2.92Z"/>
          <path class="cls-4" d="M111.64,47.13c-.06-.84-.26-1.62-.62-2.38-.21-.45-.5-.93-.85-1.32-.01-.03-.01-.07-.03-.1-.4-.72-1.31-.95-2.07-.69-.74,.25-1.36,.74-1.74,1.43-.86,1.56-.25,3.28,.41,4.79,.33,.76,.84,1.47,1.67,1.72,1.03,.31,2.1-.19,2.69-1.05,.47-.68,.59-1.58,.53-2.38Z"/>
          <path class="cls-9" d="M14.85,42.18c-6.65,5.27-4.76,28.9,3.82,40.99,9.11,12.83,31.74,22.11,40.68,16.01,7.89-5.38-18.07-9.79-27.61-25.66-12.21-20.29-11.6-35.54-16.89-31.35Z"/>
          <g>
            <path class="cls-3" d="M95.82,46.43c0-1.13-.91-2.04-2.04-2.04s-2.04,.91-2.04,2.04,.91,2.04,2.04,2.04,2.04-.91,2.04-2.04Z"/>
            <path class="cls-9" d="M94.25,46.74s-.08-.05-.11-.07c0,0,0,0,0,0-.07-.05-.15-.1-.26-.13-.03-.02-.07-.04-.1-.06-.02-.02-.04-.04-.06-.06-.03-.05-.07-.11-.1-.16,.02,.04,.03,.08,.05,.12,0,0,0,0,0,0-.03-.09-.06-.18-.12-.26-.01-.02-.03-.04-.04-.07-.04-.08-.08-.14-.15-.21-.09-.09-.19-.15-.31-.18-.09-.03-.19-.03-.28-.01-.09,0-.18,.03-.26,.08-.11,.06-.19,.15-.25,.25-.1,.15-.12,.37-.14,.54-.02,.2,.07,.4,.15,.58,.09,.19,.22,.36,.36,.5,.14,.14,.31,.28,.5,.36,.09,.04,.19,.08,.28,.12,.16,.05,.33,.05,.49,.01,.12-.03,.24-.08,.35-.14,.22-.11,.35-.37,.35-.61s-.13-.49-.35-.61Z"/>
            <path class="cls-1" d="M94.45,44.9s-.04-.04-.06-.06c-.04-.03-.07-.06-.11-.09l-.13-.06c-.1-.03-.14-.02-.22,0-.04,0-.06,0-.09,.02-.01,0-.03,0-.04,.01-.09,.02-.16,.07-.22,.13-.05,.05-.08,.1-.1,.16-.03,.06-.05,.12-.04,.19,0,.09,.02,.18,.07,.25l.02,.03s.03,.04,.05,.07c.01,.02,.03,.04,.05,.06,.04,.03,.07,.06,.11,.09,.04,.02,.09,.04,.13,.06,.07,.02,.15,.03,.22,0,.04,0,.07-.01,.11-.02,.01,0,.03,0,.04,0,.17-.05,.3-.18,.35-.35,.02-.09,.02-.18,0-.27-.02-.09-.07-.16-.13-.22Z"/>
          </g>
          <g>
            <path class="cls-3" d="M91,38.27c0-1.47-1.19-2.66-2.66-2.66s-2.66,1.19-2.66,2.66,1.19,2.66,2.66,2.66,2.66-1.19,2.66-2.66Z"/>
            <path class="cls-9" d="M88.57,38.86c-.05-.05-.13-.1-.19-.14,.05,.04,.1,.08,.15,.12-.06-.05-.12-.1-.18-.14-.12-.07-.25-.09-.39-.1-.06-.01-.13-.03-.19-.05-.06-.03-.11-.06-.16-.09-.07-.06-.14-.12-.19-.19-.04-.06-.08-.12-.13-.18,.03,.04,.07,.09,.1,.13-.05-.07-.09-.14-.12-.21-.02-.06-.04-.13-.05-.19,0-.01,0-.02,0-.04,0-.24-.18-.44-.42-.47-.1-.01-.22,0-.31,.06-.11,.07-.17,.16-.22,.29-.08,.2-.12,.44-.1,.65,0,.13,.02,.27,.06,.4,.03,.13,.1,.26,.17,.38,.27,.46,.7,.8,1.21,.97,.05,.02,.1,.03,.16,.04,.06,.01,.16,.03,.21,.03,.13,0,.27-.04,.38-.1,.02-.01,.04-.02,.05-.03,.11-.07,.21-.15,.27-.27,.08-.14,.1-.29,.08-.44-.02-.15-.08-.29-.19-.4Z"/>
            <path class="cls-1" d="M88.44,36.52c-.02-.07-.06-.14-.11-.19-.03-.02-.06-.05-.09-.07-.07-.04-.14-.06-.22-.06-.07,0-.14-.02-.21-.02-.06,0-.12,.01-.18,.04-.06,.02-.11,.05-.15,.09-.04,.04-.08,.09-.09,.15-.03,.05-.04,.11-.04,.18,0,.04,.01,.08,.02,.12,.02,.08,.06,.14,.12,.2,.03,.02,.06,.05,.09,.07,.07,.04,.15,.06,.23,.06,.07,0,.14-.02,.21-.02,.06,0,.12-.01,.17-.04,.05-.02,.1-.05,.14-.09,.04-.04,.07-.09,.09-.14,.03-.05,.04-.11,.04-.17,0-.04-.01-.08-.02-.12Z"/>
          </g>
        </g>
      </g>
    </g>
  </g>
</svg>