<?xml version="1.0" encoding="UTF-8"?>
<svg id="Layer_2" data-name="Layer 2" xmlns="http://www.w3.org/2000/svg" viewBox="0 0 97.3 137.46">
  <defs>
    <style>
      .cls-1 {
        fill: #c18536;
      }

      .cls-2 {
        fill: #f4bc69;
      }

      .cls-3 {
        fill: #d97b4b;
      }

      .cls-4 {
        fill: #f9cfc7;
      }

      .cls-5 {
        fill: #422011;
      }

      .cls-6 {
        fill: #d56d94;
      }

      .cls-7 {
        fill: #d38d39;
      }
    </style>
  </defs>
  <g id="OBJECTS">
    <g>
      <g>
        <path class="cls-3" d="M46.77,66.73s.38-4.41-.47-4.15c-.85,.27-2.03,3.19-2.03,3.19,0,0,.35-4.02-.73-3.09-.37,.32-.74,1.26-1.12,2.39-.11-.49-2.17-9.45,1.5-12.89,1.42,.33,3.15,.5,5.14,.24,2.23-.3,3.94-1.02,5.18-1.78h.01c1.55,.98,6.86,7.8,5.39,13.37-.79-1.25-1.32-2.3-1.88-2.09-.64,.24-.04,2.79-.04,2.79,0,0-1.64-3.27-2.19-2.82-.53,.45-.05,3.33-.05,3.33,0,0-1.64-3.11-2.5-2.54-.27,.17-.81,2.14-.94,4.79l-2.07-.11c.09-1.89,.01-4.69-.67-4.74-.92-.06-2.53,4.12-2.53,4.12Z"/>
        <path class="cls-4" d="M57.72,64.7s-.6-2.56,.04-2.79c.55-.21,1.09,.84,1.88,2.09,.13,.21,.28,.42,.42,.64,.29,.42,.85,.75,1.52,1.02l-.14,.43c-1.49,7.3-8.95,5.3-9.28,5.2-.16-1.36-.18-2.67-.12-3.83,.13-2.66,.68-4.62,.94-4.79,.86-.57,2.5,2.54,2.5,2.54,0,0-.48-2.87,.05-3.33,.54-.45,2.19,2.82,2.19,2.82Z"/>
        <path class="cls-4" d="M46.29,62.58c.85-.27,.47,4.15,.47,4.15,0,0,1.6-4.18,2.53-4.12,.68,.05,.76,2.85,.67,4.74-.04,.68-.09,1.24-.15,1.51-.16,.73-.44,2.11-.6,2.85-5.1,3.34-7.9-2.17-7.9-2.17l-.42-.11c.55-1.15,1.05-2.9,1.53-4.35,.01-.01,0-.01,0-.01,.38-1.13,.75-2.07,1.12-2.39,1.08-.93,.73,3.09,.73,3.09,0,0,1.18-2.93,2.03-3.19Z"/>
        <path class="cls-4" d="M77.74,123.78c5.37,.64,10.5,4.75,10.07,5.59-.42,.8-3.6-.34-3.9-.45,.21,.15,2.05,1.56,1.63,3-.44,1.49-3.95-.71-4.12-.8,.14,.16,1.7,1.93,.47,2.72-1.28,.83-14.39-5.74-14.39-5.74l-.11-.4h0c4.03-1.03,7.45-2.37,10.35-3.92Z"/>
        <path class="cls-4" d="M21.84,130.97c-.29,.22-4.67,3.59-4.66,1.95,.02-3.74,6.77-8.43,6.77-8.43,3.03,1.77,6.81,3.18,11.51,4.07-2.55,3.14-8.9,9.33-10.59,8.88-1.68-.45,1.3-4.25,1.3-4.25,0,0-4.18,3.81-5.96,2.7-.92-.57,1.4-4.5,1.64-4.92Z"/>
        <path class="cls-2" d="M41.3,69.55s2.8,5.5,7.9,2.17c.15-.74,.43-2.12,.6-2.85,.06-.27,.11-.83,.15-1.51l2.07,.11c-.06,1.16-.04,2.47,.12,3.83,.64,5.41,3.51,11.51,12.48,12.3,13.14,1.16,16.08-11.85,16.08-11.85l2.14-.33c1.34,4,2.14,7.84,2.73,9.8,1.37,4.48,9.6,17.49,7.08,25.57-1.41,4.51-5.28,11.84-14.93,16.99-2.89,1.55-6.31,2.89-10.35,3.91h0c-6.62,1.67-14.9,2.44-25.21,1.71-2.43-.17-4.67-.46-6.72-.85-4.7-.88-8.48-2.3-11.51-4.07-16.2-9.43-10.95-28.97-9.41-32.34,3.85-8.43,2.96-12.47,4.59-20.41,1-4.85,3.79-7.91,3.79-7.91,0,0,4.31-2.63,9.34,1.44,4.63,3.74,6.38,6.04,7.76,5.32,.31-.15,.6-.57,.87-1.15l.42,.11Z"/>
        <path class="cls-2" d="M43.91,52.18c-3.66,3.44-1.61,12.4-1.5,12.89,0,0,.01,0,0,.01-.48,1.46-.98,3.2-1.53,4.35-.28,.57-.56,1-.87,1.15-1.39,.72-3.13-1.58-7.76-5.32-5.03-4.07-9.34-1.44-9.34-1.44-3.84-2.27-6.34-5.09-7.21-7.98-3.21-10.85,2.95-16.91,4.07-20.6,1.17-3.86,2.22-12.91,2.22-12.91,0,0-3.73,.69-6.39-5.72-2.66-6.41,3.71-12.88,9.53-12.05s7.5,8.82,7.5,8.82c8.65-7.67,20.16-1.83,20.6-1.6-.05-.33-1.19-6.64,3.83-10.51,3.35-2.59,12.12-1.34,13.03,4.85,1.02,6.85-5.45,9.78-5.45,9.78,0,0,2.35,4.76,5.49,9.76,2.94,4.67,10.65,6.86,10.81,16.81,.09,6.18-2.05,11.91-6.78,16.45,4.32,1.99,6.96,7.38,8.68,12.5l-2.14,.33s-2.94,13.01-16.08,11.85c-8.97-.79-11.85-6.89-12.48-12.3,.33,.09,7.79,2.09,9.28-5.2l.14-.43c-.67-.27-1.23-.6-1.52-1.02-.14-.22-.29-.43-.42-.64,1.47-5.56-3.84-12.39-5.39-13.36h-.01c-1.24,.75-2.96,1.47-5.18,1.77-1.99,.27-3.73,.09-5.14-.24Z"/>
      </g>
      <g>
        <path class="cls-5" d="M39.99,50.12c.64,.34,1.35,.66,2.07,.89,.71,.25,1.44,.44,2.18,.57,1.48,.25,2.98,.31,4.46,.13,1.49-.16,2.94-.54,4.31-1.13,1.35-.61,2.67-1.43,3.68-2.49l.03-.03c.14-.14,.36-.15,.5-.01,.12,.12,.14,.31,.06,.45-.91,1.45-2.25,2.46-3.69,3.26-1.46,.8-3.08,1.25-4.71,1.44-1.64,.19-3.32,.09-4.91-.33-1.6-.43-3.11-1.09-4.39-2.18-.15-.13-.17-.35-.04-.5,.11-.13,.3-.16,.44-.08l.03,.02Z"/>
        <path class="cls-1" d="M49.42,71.75l-.04,.52v-.07c.4,3.13,0,6.4-1.41,9.36-1.36,2.98-4.13,5.42-7.34,6.34-1.6,.53-3.32,.59-4.96,.4-1.66-.19-3.21-.77-4.65-1.48-1.45-.7-2.76-1.64-3.96-2.65-1.19-1.04-2.3-2.15-3.23-3.43-.06-.08-.04-.19,.04-.25,.07-.05,.16-.04,.22,0h0c2.32,1.99,4.86,3.73,7.6,4.85,2.72,1.11,5.69,1.53,8.36,.64,.69-.15,1.31-.51,1.96-.78,.31-.16,.6-.37,.9-.55l.45-.28,.4-.34c1.13-.85,2-2,2.73-3.25,1.43-2.52,2.16-5.52,2.39-8.54v-.07s.15-.48,.15-.48h0c.03-.12,.15-.18,.26-.15,.1,.03,.16,.12,.15,.22Z"/>
        <path class="cls-1" d="M22.8,63.65c1.46-1.18,3.47-1.59,5.38-1.32,.96,.12,1.87,.48,2.74,.88,.83,.45,1.65,1,2.32,1.58,1.36,1.13,2.64,2.35,3.89,3.49,1.26,1.08,2.53,2.36,4.06,1.38,.08-.05,.19-.03,.25,.05,.04,.07,.03,.15-.01,.21-.29,.35-.68,.7-1.19,.85-.5,.18-1.06,.13-1.55,.02-.98-.26-1.78-.75-2.53-1.26-1.5-1.01-2.82-2.14-4.17-3.21-1.3-1.06-2.62-1.89-4.15-2.32-1.5-.42-3.18-.46-4.81,0h-.03c-.11,.04-.23-.02-.26-.14-.02-.08,0-.17,.07-.22Z"/>
        <path class="cls-1" d="M52.51,72.28c.46,1.59,1.05,3.13,1.88,4.49,.83,1.36,1.91,2.53,3.16,3.44,2.52,1.81,5.76,2.47,8.91,2.43,3.16,.05,6.2-1.05,8.64-3.03,2.41-2.02,4.25-4.84,5.45-7.9v-.02c.04-.09,.14-.13,.23-.1,.08,.03,.12,.11,.11,.19-.57,3.35-2.17,6.58-4.71,9.04-.31,.31-.67,.57-1.01,.86-.17,.14-.34,.28-.52,.41l-.57,.35c-.38,.22-.75,.49-1.15,.68l-1.23,.54c-.4,.21-.85,.28-1.27,.41-.43,.11-.86,.25-1.3,.32l-1.32,.16c-.44,.06-.88,.11-1.32,.08-1.77,0-3.51-.18-5.22-.67-1.7-.5-3.36-1.28-4.73-2.44-1.39-1.14-2.47-2.61-3.21-4.19-.71-1.6-1.11-3.29-1.23-4.98,0-.12,.08-.22,.2-.23,.1,0,.19,.06,.22,.16Z"/>
        <path class="cls-1" d="M67,66.77c-.47,.08-.94,.09-1.41,.09-.47,0-.93-.04-1.4-.11-.46-.07-.93-.15-1.38-.3-.45-.14-.91-.3-1.33-.58-.11-.07-.14-.23-.07-.34,.05-.08,.14-.12,.23-.11h.01s2.67,.33,2.67,.33c.45,.07,.9,.13,1.34,.22,.45,.09,.9,.17,1.35,.31,.13,.04,.2,.17,.17,.3-.03,.09-.11,.16-.19,.17Z"/>
      </g>
      <path class="cls-1" d="M19.91,10.27c.9-.5,1.89-.71,2.94-.62,1.04,.08,2.1,.53,2.91,1.25,.8,.74,1.32,1.66,1.64,2.59,.15,.47,.24,.95,.32,1.42,.03,.48,.06,.95,.04,1.42-.01,.27-.24,.48-.5,.47-.18,0-.34-.11-.41-.27l-.03-.05c-.2-.4-.36-.8-.51-1.19l-.54-1.11c-.4-.69-.82-1.32-1.35-1.79-.53-.46-1.15-.79-1.86-.99-.71-.2-1.54-.24-2.34-.23h-.08c-.27,0-.48-.21-.49-.47,0-.18,.1-.34,.25-.43Z"/>
      <path class="cls-1" d="M57.28,12.92c-.26-1.05-.3-2.09-.2-3.15,.09-1.06,.36-2.13,.88-3.15,.52-1,1.35-1.96,2.47-2.48,1.13-.52,2.34-.44,3.38-.17,.26,.07,.41,.33,.34,.59-.05,.19-.2,.32-.38,.35h-.07c-.94,.18-1.78,.34-2.44,.79-.64,.45-1.14,1.07-1.52,1.84-.79,1.52-1.13,3.44-1.51,5.33v.03c-.06,.26-.31,.43-.58,.38-.19-.04-.33-.18-.38-.36Z"/>
      <path d="M38.2,42.07c.12,1.22-.62,2.29-1.65,2.39-1.03,.1-1.96-.81-2.07-2.03-.12-1.22,.62-2.29,1.65-2.39,1.03-.1,1.96,.81,2.07,2.03Z"/>
      <path d="M58.03,38.71c.12,1.22-.62,2.29-1.65,2.39-1.03,.1-1.96-.81-2.07-2.03-.12-1.22,.62-2.29,1.65-2.39,1.03-.1,1.96,.81,2.07,2.03Z"/>
      <path class="cls-6" d="M45.2,45.74c-.78,1.02,1.87,2.91,2.95,2.86,1.07-.05,2.53-2.17,2.08-3.25s-4.28-.6-5.03,.39Z"/>
      <path class="cls-5" d="M37.14,46.76c.87,.3,1.59,.84,2.15,1.55,.57,.7,.93,1.57,1.1,2.46,.14,.9,.08,1.8-.12,2.64-.1,.42-.27,.82-.41,1.22-.2,.37-.38,.75-.61,1.11-.11,.17-.33,.22-.5,.11-.12-.08-.18-.22-.17-.35v-.04c.06-.4,.15-.77,.23-1.15,.04-.38,.11-.75,.15-1.12,.06-.74,.07-1.46-.05-2.15-.12-.69-.36-1.34-.71-1.96-.35-.6-.83-1.2-1.37-1.67l-.04-.04c-.15-.13-.16-.36-.03-.51,.1-.11,.25-.15,.39-.1Z"/>
      <path class="cls-5" d="M58,43.07c-.26,.82-.43,1.71-.5,2.54-.06,.85-.01,1.68,.2,2.47,.21,.78,.53,1.55,1.03,2.23,.47,.71,1.08,1.33,1.72,1.98l.02,.02c.14,.14,.14,.37,0,.51-.11,.11-.28,.13-.42,.06-.43-.22-.85-.47-1.26-.74-.37-.32-.79-.6-1.1-1.01-.7-.73-1.17-1.69-1.44-2.68-.26-1-.28-2.05-.07-3.03,.21-.99,.6-1.89,1.2-2.71,.12-.16,.34-.19,.5-.07,.13,.09,.17,.25,.13,.4v.04Z"/>
      <path d="M34.24,49.02c-2.82,.72-5.64,1.42-8.47,2.1l-8.5,1.99-8.52,1.9c-2.84,.62-5.69,1.22-8.54,1.8-.1,.02-.19-.04-.21-.14-.02-.09,.04-.19,.13-.21,2.82-.72,5.64-1.42,8.47-2.1l8.5-1.99,8.52-1.91c2.84-.62,5.69-1.22,8.54-1.8,.1-.02,.19,.04,.21,.14,.02,.09-.04,.19-.13,.21Z"/>
      <path d="M34.24,52.34c-2.19,1.33-4.38,2.65-6.59,3.94l-6.64,3.85-6.69,3.77c-2.23,1.25-4.48,2.47-6.74,3.68-.09,.05-.2,.01-.24-.07-.05-.08-.02-.19,.06-.24,2.19-1.33,4.38-2.65,6.59-3.94l6.64-3.85,6.69-3.77c2.23-1.25,4.48-2.47,6.74-3.68,.09-.05,.2-.01,.24,.07,.04,.08,.02,.19-.06,.24Z"/>
      <path d="M62.29,43.77c2.9-.14,5.8-.25,8.7-.34l8.71-.23,8.71-.14c2.9-.04,5.81-.05,8.71-.04,.1,0,.18,.08,.18,.18,0,.1-.08,.17-.17,.18-2.9,.13-5.8,.25-8.7,.34l-8.71,.23-8.71,.14c-2.9,.04-5.81,.05-8.71,.04-.1,0-.18-.08-.18-.18,0-.1,.08-.17,.17-.18Z"/>
      <path d="M63.03,46.49c2.78,.56,5.56,1.14,8.33,1.74l8.31,1.85,8.29,1.93c2.76,.66,5.52,1.34,8.27,2.04,.1,.02,.15,.12,.13,.22-.02,.09-.12,.15-.21,.13-2.78-.56-5.56-1.14-8.33-1.74l-8.31-1.84-8.29-1.93c-2.76-.66-5.52-1.34-8.27-2.04-.1-.02-.15-.12-.13-.22,.02-.09,.12-.15,.21-.13Z"/>
      <path class="cls-1" d="M72.95,59.3c-.95-.27-1.99-.34-2.84-.09-.87,.25-1.63,.75-2.29,1.47-1.38,1.46-2.43,3.4-3.49,5.31v.02c-.14,.23-.44,.32-.67,.19-.18-.1-.27-.29-.24-.48,.15-1.19,.51-2.29,.98-3.38,.48-1.08,1.12-2.11,1.97-3.03,.85-.93,2.08-1.69,3.43-1.85,1.36-.16,2.65,.22,3.67,1.03,.21,.17,.24,.47,.07,.67-.12,.15-.32,.21-.5,.16l-.07-.02Z"/>
      <g>
        <path class="cls-7" d="M43.25,22.38c-.17-.25-.33-.5-.54-.72-.17-.18-.35-.36-.52-.55-.06-.07-.12-.14-.17-.21,0,0,0,0-.01-.02-.02-.02-.03-.04-.05-.06,.01,.01,.02,.02,.03,.04,0,0,0-.01-.02-.02-.04-.05-.07-.1-.11-.15-.15-.21-.3-.41-.43-.62-.13-.21-.25-.44-.35-.66-.02-.04-.03-.1-.06-.14,.01,.02,.02,.02,.02,.04-.01-.02-.02-.04-.03-.06-.04-.11-.08-.21-.11-.32-.19-.58-.23-1.38-.8-1.73-.34-.21-.71-.1-.99,.13-.56,.46-.34,1.55-.2,2.15,.14,.59,.36,1.16,.64,1.7,.27,.54,.63,1.02,1.04,1.45,.24,.25,.5,.47,.78,.67,.28,.19,.58,.3,.9,.37,.34,.08,.69-.03,.91-.31,.2-.26,.26-.68,.07-.96Z"/>
        <path class="cls-7" d="M42.02,20.91s0-.01-.03-.04c0,.01,.02,.02,.02,.03,0,0,0,.01,.01,.02Z"/>
        <path class="cls-7" d="M41.05,19.3c.03,.06,.05,.08,0,0h0Z"/>
      </g>
      <path class="cls-7" d="M45.67,20.22c-.08-.21-.16-.38-.32-.54-.03-.03-.07-.07-.11-.1-.08-.08-.16-.16-.23-.24-.15-.15-.29-.3-.45-.45-.17-.16-.33-.32-.48-.49-.08-.09-.16-.17-.23-.26-.13-.15-.29-.26-.46-.37-.08-.03-.16-.07-.24-.1-.09-.01-.18-.02-.27-.04-.22,0-.43,.08-.6,.21-.32,.24-.46,.66-.36,1.05,.05,.17,.1,.34,.19,.49,.06,.09,.12,.18,.19,.27,.17,.24,.35,.47,.53,.7,.13,.16,.26,.32,.41,.46,.19,.17,.39,.32,.59,.48,.12,.1,.19,.15,.33,.21,.09,.04,.16,.06,.25,.08,.32,.06,.61,.1,.91-.07,.33-.19,.5-.56,.45-.93-.02-.13-.05-.23-.1-.35Z"/>
      <path class="cls-7" d="M47.46,18.08c-.11-.17-.19-.36-.35-.5-.08-.07-.16-.14-.25-.21-.04-.03-.08-.06-.12-.09-.24-.19-.45-.4-.64-.64-.03-.04-.05-.07-.08-.11-.13-.19-.3-.35-.53-.41-.21-.06-.5-.03-.69,.09-.19,.12-.36,.3-.41,.53-.05,.23-.04,.48,.09,.69,.23,.38,.52,.74,.85,1.04,.19,.17,.39,.35,.62,.46,.04,.02,.08,.04,.12,.06,.18,.08,.32,.13,.52,.13,.09,0,.18,0,.26-.01,.25-.02,.46-.12,.59-.34,.12-.2,.13-.49,0-.69Z"/>
      <path class="cls-7" d="M20.51,97.75c-.3-.16-.71-.14-.95,.12-.22,.25-.42,.5-.58,.79-.13,.23-.25,.47-.36,.72-.14,.31-.29,.63-.37,.97-.11,.42-.25,.9-.11,1.32,.15,.43,.47,.74,.94,.81,.46,.06,.86-.16,1.12-.54,.21-.3,.21-.67,.25-1.02,.04-.27,.08-.54,.11-.81l-.04,.29c.04-.3,.09-.59,.16-.89,.03-.14,.08-.29,.11-.43,.03-.14,.05-.29,.07-.44,.06-.33-.04-.71-.36-.88Z"/>
      <path class="cls-7" d="M23.31,101.51c-.32-.14-.8-.04-.96,.31-.25,.57-.48,1.15-.67,1.74-.08,.27-.16,.55-.23,.82-.1,.47-.13,1.07,.27,1.41,.28,.23,.59,.28,.92,.12,.54-.26,.6-.9,.66-1.44,.1-.7,.24-1.38,.45-2.06,.11-.37-.1-.76-.45-.91Z"/>
      <path class="cls-7" d="M26.21,105.17c-.01-.21-.03-.42-.04-.63-.02-.27-.1-.52-.3-.71-.09-.1-.2-.17-.33-.21-.12-.06-.25-.09-.39-.09-.26,.01-.53,.1-.71,.3-.05,.07-.11,.14-.16,.2-.09,.16-.14,.33-.14,.51-.01,.21-.03,.42-.04,.63,0,.11-.01,.21-.02,.32-.01,.18,.05,.38,.09,.56,.03,.08,.07,.16,.1,.24,.06,.12,.15,.21,.26,.28,.06,.06,.14,.11,.22,.13,.12,.06,.25,.09,.39,.09,.18,0,.35-.05,.51-.14,.12-.06,.21-.15,.28-.26,.09-.1,.15-.21,.18-.34,.01-.05,.02-.1,.04-.15,0-.02,.01-.04,.02-.07,.02-.1,.05-.24,.04-.34,0-.11-.01-.21-.02-.32Z"/>
      <path class="cls-7" d="M87.28,95.54c-.1-.68-.41-1.29-.7-1.91-.26-.57-.52-1.14-.78-1.71-.17-.37-.69-.49-1.04-.34-.35,.15-.63,.59-.48,.98,.23,.59,.46,1.19,.69,1.78,.11,.29,.22,.58,.34,.87,.16,.4,.39,.75,.65,1.08,.2,.26,.68,.29,.95,.12,.32-.21,.41-.52,.36-.88Z"/>
      <path class="cls-7" d="M85.33,96.8c-.08-.25-.2-.49-.3-.73-.16-.37-.32-.74-.47-1.11-.07-.17-.33-.35-.5-.39-.19-.04-.37-.03-.55,.04-.36,.15-.63,.6-.49,.99,.14,.38,.27,.76,.41,1.13,.09,.25,.17,.5,.29,.74,.11,.23,.28,.41,.45,.6,.2,.22,.54,.26,.8,.15,.26-.11,.45-.38,.45-.67,0-.26-.01-.51-.09-.76Z"/>
      <path class="cls-7" d="M50.44,95.46c-.03-.32-.07-.64-.1-.97-.02-.21-.07-.4-.23-.55-.14-.14-.36-.24-.55-.23-.2,0-.41,.08-.55,.23-.04,.05-.08,.11-.12,.16-.07,.12-.11,.25-.11,.39-.03,.32-.07,.64-.1,.97-.02,.16-.02,.31-.02,.46,0,.15,.01,.29,.04,.43,.04,.21,.12,.39,.27,.55,.3,.33,.9,.33,1.19,0,.15-.16,.23-.32,.27-.53,.03-.15,.04-.28,.04-.43,0-.16,0-.32-.02-.48Z"/>
      <g>
        <path class="cls-7" d="M52.53,95.13c-.09-.4-.24-.78-.42-1.14-.12-.25-.48-.38-.73-.3-.11,.03-.2,.09-.29,.17-.11,.1-.21,.31-.19,.46,.04,.34,.04,.68,0,1.02,0,.09-.02,.17-.02,.26,0,.09,0,.17,0,.26,0,.15-.02,.3,.03,.44,.04,.13,.12,.24,.2,.35,.06,.1,.14,.18,.24,.24,.08,.05,.16,.08,.25,.08,.09,.02,.18,.02,.27-.01,.11-.03,.21-.09,.3-.17,.16-.13,.29-.27,.35-.48,.04-.13,.04-.3,.05-.44,0-.09,.01-.17,.01-.26,0-.16-.03-.31-.06-.46Z"/>
        <path class="cls-7" d="M51.13,96.63s0,0,0,0c0,0-.01-.02-.02-.02l.02,.02Z"/>
        <path class="cls-7" d="M51.22,96.74s-.06-.08-.09-.11c0,0,0,0,0,0,.03,.04,.06,.08,.09,.12Z"/>
      </g>
      <path class="cls-7" d="M55.72,97.3c-.05-.46-.09-.91-.14-1.37-.02-.18-.06-.34-.2-.48-.12-.12-.31-.2-.48-.2-.35,.02-.69,.3-.67,.67l.06,1.37c.01,.23,.02,.46,.04,.69,.01,.15,.02,.31,.06,.45,.03,.12,.08,.23,.12,.34,.09,.24,.3,.45,.58,.44,.25-.01,.53-.18,.58-.44,.05-.27,.1-.52,.09-.79-.01-.23-.03-.46-.06-.69Z"/>
      <path class="cls-7" d="M44.25,121.28c-.15-.27-.31-.53-.44-.81-.09-.25-.15-.5-.23-.76-.04-.13-.09-.26-.13-.4-.05-.19-.13-.36-.29-.48-.16-.13-.42-.22-.63-.14-.27,.11-.43,.24-.53,.52-.03,.07-.05,.15-.07,.22-.06,.22-.1,.44-.1,.67,0,.41,.06,.83,.15,1.23,.09,.4,.24,.79,.47,1.14,.13,.2,.27,.42,.45,.57,.12,.1,.24,.21,.38,.27,.19,.1,.39,.13,.6,.14,.49,0,.84-.4,.87-.87,.03-.52-.27-.89-.51-1.32Z"/>
      <path class="cls-7" d="M47.1,121.54c-.03-.09-.05-.17-.08-.26-.08-.22-.21-.44-.32-.65l-.51-.99c-.15-.29-.54-.39-.83-.27-.13,.05-.25,.15-.32,.27-.08,.15-.13,.35-.07,.51,.14,.35,.27,.69,.41,1.04,.08,.21,.16,.45,.26,.65,.11,.21,.24,.4,.41,.56,.19,.18,.46,.23,.7,.13,.22-.09,.4-.33,.39-.58,0-.14,0-.27-.05-.41Z"/>
      <path class="cls-7" d="M49.77,121.98c-.02-.07-.04-.15-.06-.22-.04-.14-.09-.27-.14-.41-.11-.28-.21-.55-.32-.83-.06-.16-.14-.29-.29-.38-.14-.08-.34-.11-.49-.06-.33,.11-.54,.44-.45,.78l.23,.87c.04,.15,.08,.29,.13,.43,.03,.07,.05,.14,.08,.21,.05,.12,.09,.22,.19,.32,.06,.05,.13,.1,.19,.14,.15,.11,.37,.1,.54,.03,.18-.08,.29-.21,.35-.39,.06-.16,.06-.32,.02-.49Z"/>
      <path class="cls-7" d="M35.06,81.78s-.04-.06-.06-.1c-.09-.16-.2-.31-.37-.4-.11-.06-.21-.12-.31-.2,.06,.05,.13,.1,.19,.15-.09-.07-.17-.15-.27-.2-.04-.02-.07-.04-.11-.06-.02-.01-.04-.03-.06-.04-.09-.08-.18-.17-.26-.26-.06-.09-.12-.18-.16-.28-.02-.05-.04-.09-.05-.14-.06-.22-.23-.44-.43-.55-.2-.12-.49-.17-.71-.09-.22,.07-.44,.21-.55,.43-.12,.23-.15,.46-.09,.71,.13,.58,.46,1.14,.9,1.54,.28,.25,.59,.48,.96,.57,.24,.05,.5,.11,.74,.04,.2-.05,.37-.19,.53-.32,.11-.09,.16-.24,.18-.37,.02-.14,0-.3-.08-.41Z"/>
      <path class="cls-7" d="M21.23,40.38c-.03-.12-.12-.21-.23-.26-.1-.04-.2-.04-.31,0-.12,.05-.19,.14-.23,.26-.05,.15-.11,.3-.16,.45-.02,.07-.03,.15-.04,.23-.01,.08-.03,.16-.04,.25-.02,.14,.03,.27,.16,.33,.13,.06,.27,0,.35-.11,.05-.07,.09-.14,.14-.21,.04-.06,.09-.13,.13-.19,.07-.14,.13-.29,.2-.44,.04-.06,.05-.13,.05-.2,0-.04,0-.07-.01-.11Z"/>
      <path class="cls-7" d="M23.16,40.22c-.07-.11-.2-.22-.33-.25-.29-.07-.6,.09-.68,.39-.06,.21-.12,.43-.18,.64-.03,.1-.06,.21-.09,.31-.04,.15-.03,.3-.03,.45,0,.21,.15,.43,.36,.48,.21,.05,.44-.03,.56-.23,.07-.12,.16-.25,.2-.39,.03-.11,.06-.22,.08-.33,.06-.21,.11-.43,.17-.64,.04-.14,.02-.3-.06-.43Z"/>
    </g>
  </g>
</svg>