<?xml version="1.0" encoding="UTF-8"?>
<svg xmlns="http://www.w3.org/2000/svg" viewBox="0 0 153.14 132.88">
  <defs>
    <style>
      .parrot-1 {
        fill: #afa791;
      }

      .parrot-2 {
        fill: #d97b59;
      }

      .parrot-3 {
        fill: #ac5645;
      }

      .parrot-4 {
        isolation: isolate;
      }

      .parrot-5, .parrot-6 {
        mix-blend-mode: multiply;
        opacity: .11;
      }

      .parrot-6, .parrot-7 {
        fill: #4c2560;
      }

      .parrot-8 {
        fill: #d35b67;
      }

      .parrot-9 {
        fill: #f48b56;
      }

      .parrot-10 {
        fill: #fbe79f;
      }

      .parrot-11 {
        fill: #8e8876;
      }

      .parrot-12 {
        fill: #fceab1;
      }

      .parrot-13 {
        fill: #f8d931;
      }

      .parrot-14 {
        fill: #686253;
      }
    </style>
  </defs>
  <g class="parrot-4">
    <g id="Layer_2" data-name="Layer 2">
      <g id="OBJECTS">
        <g>
          <g>
            <path class="parrot-9" d="M55.82,116.24c-1.91,.71-3.87,1.11-5.85,1.42-1.98,.28-3.97,.49-6,.39-.27-.01-.48-.24-.46-.51,.01-.2,.14-.37,.32-.43,1.91-.71,3.87-1.1,5.85-1.42,1.98-.29,3.97-.5,6-.39,.27,.01,.47,.24,.46,.51-.01,.2-.14,.36-.32,.43Z"/>
            <path class="parrot-9" d="M47.96,121.66c1.24-1.35,2.65-2.43,4.11-3.44,1.48-.98,2.99-1.91,4.69-2.57,.25-.1,.54,.02,.63,.28,.07,.18,.03,.38-.1,.51-1.24,1.34-2.66,2.42-4.12,3.44-1.48,1-3,1.92-4.7,2.57-.25,.1-.53-.03-.63-.28-.07-.18-.03-.37,.09-.5h.01Z"/>
            <path class="parrot-9" d="M52.22,124.64c.71-1.88,1.69-3.59,2.74-5.25,1.07-1.65,2.21-3.25,3.62-4.69,.19-.19,.5-.2,.69,0,.14,.14,.18,.35,.11,.52-.71,1.88-1.69,3.59-2.74,5.25-1.07,1.65-2.2,3.26-3.62,4.69-.19,.19-.5,.19-.69,0-.14-.14-.18-.34-.11-.52Z"/>
          </g>
          <g>
            <path class="parrot-11" d="M95.27,107.81c-9.72,13.56-41.28,13.64-56.64,.93-20.33-16.83-15.23-56.44-15.23-56.44,0,0,3.82,4.69,5.21,1.8,1.4-2.9-3.36-8.51-3.36-8.51,0,0,7.96,4.93,12.07,2.13,4.11-2.81,1.24-5.75,1.24-5.75,0,0,4.78-.32,6.74-3.59,1.9-3.18-2.18-9.63-2.39-9.96,.32,.13,6.54,2.75,7.76-.01,1.24-2.84-3.45-11.46-3.45-11.46,0,0,2.9,.46,3.45,0,.53-.45,.04-3.83,0-4.05,0,0,3.48,2.68,5.64,7.87,4.26,10.23,2.53,22.44,2.53,22.44,0,0,46.99,34.22,69.78,46.15,22.79,11.92,26.63,14.69,23.64,17.67-2.73,2.74-18.32-4.36-20.93-5.57,2.87,1.43,21.98,11.02,20.93,16.86-2.13,11.87-33.33-11.99-31.12-10.13,7.17,7.16,17.33,18.41,14.94,22.49-3.38,5.76-24.97-6.48-40.81-22.87Z"/>
            <path class="parrot-13" d="M42.91,28.42c.21,.33,5.98,7.47,3.76,13.46-1.32,3.58-6.41,2.91-6.41,2.91,0,0,.27,3.83-3.84,6.64-4.11,2.8-7.61-1.82-7.61-1.82,0,0,1.2,1.59-.2,4.49-1.39,2.89-5.21-1.8-5.21-1.8-4.26-1.71-7.67-7.41-7.67-7.41l-.04-.08c1.48-.76,2.52-1.9,2.75-3.18,.29-1.62,.13-3.81-.35-5.96-.78-3.43-2.4-6.76-4.34-7.54-.69-.28-2.12-.11-3.82,.44l-.05-.16S11.86,9.33,27.34,5.44c17.36-4.37,28.01,5.22,38.02,1.7,10.01-3.51,15.76-9.48,15.34-6.18-.43,3.31-11.08,16.09-30.03,11.93h0c.04,.23,.53,3.61,0,4.06-.55,.46-3.45,0-3.45,0,0,0,4.69,8.62,3.45,11.46-1.22,2.76-7.44,.14-7.76,.01Z"/>
            <path class="parrot-2" d="M18.09,35.67c.48,2.15,.64,4.34,.35,5.96-.23,1.28-1.27,2.42-2.75,3.18-3.34,1.72-8.94,1.49-12.57-3.46l-.58-.11c1.05-.95,2.37-1.86,3.79-2.05,2.63-.35,8.88-1.22,11.76-3.52Z"/>
            <path class="parrot-9" d="M18.09,35.67c-2.88,2.3-9.13,3.17-11.76,3.52-1.42,.19-2.74,1.1-3.79,2.05-1.34,1.23-2.21,2.54-2.21,2.54,0,0-.79-7.44,1.29-9.92,2.14-2.56,5.58-4.41,8.31-5.29,1.7-.55,3.13-.72,3.82-.44,1.94,.78,3.56,4.11,4.34,7.54Z"/>
          </g>
          <g>
            <path class="parrot-3" d="M19.77,33.91c-.24,1.04-.99,1.86-1.77,2.45-.8,.6-1.68,1.04-2.57,1.43-1.79,.75-3.66,1.2-5.52,1.55-.94,.16-1.87,.31-2.81,.43l-.7,.08c-.2,.03-.39,.06-.59,.12-.39,.11-.78,.27-1.17,.47-1.53,.82-2.87,2.14-4.04,3.53v.02c-.13,.14-.34,.16-.48,.04-.13-.11-.15-.29-.07-.43,1-1.66,2.27-3.15,3.99-4.22,.43-.26,.89-.5,1.4-.65,.25-.08,.51-.14,.78-.18l.69-.11c.92-.14,1.83-.28,2.74-.46,1.82-.33,3.62-.74,5.33-1.33,.85-.3,1.69-.65,2.43-1.12,.76-.43,1.39-1.04,1.73-1.81h0c.07-.18,.27-.26,.44-.18,.15,.07,.23,.23,.19,.38Z"/>
            <path class="parrot-14" d="M136.22,130.77c-.31,.51-.73,.99-1.3,1.24-.27,.16-.56,.21-.85,.31-.29,.05-.59,.11-.88,.14-1.18,.1-2.34-.07-3.47-.31-2.25-.51-4.37-1.38-6.45-2.31-4.14-1.9-7.99-4.34-11.69-6.94-3.68-2.64-7.2-5.5-10.5-8.6-1.64-1.56-3.25-3.15-4.8-4.79-1.53-1.66-2.98-3.4-4.41-5.14-.05-.06-.04-.15,.02-.2,.06-.05,.14-.04,.19,0h0c3.21,3.15,6.43,6.27,9.86,9.16,3.42,2.88,6.91,5.68,10.57,8.25,3.63,2.59,7.4,5.01,11.34,7.07,1.97,1.01,4,1.96,6.11,2.56,1.05,.32,2.13,.56,3.2,.56,1.06,.02,2.14-.31,2.77-1.18h0c.05-.09,.16-.11,.23-.05,.07,.05,.09,.15,.05,.22Z"/>
            <path class="parrot-14" d="M121.25,108.07c3.64,2.94,6.94,6.26,9.91,9.9,1.46,1.83,2.85,3.75,3.98,5.85,.56,1.05,1.06,2.15,1.36,3.33,.15,.59,.23,1.21,.22,1.83,0,.62-.16,1.27-.53,1.77-.05,.06-.14,.07-.2,.03-.05-.04-.07-.11-.05-.16h0c.41-1.04,.11-2.17-.32-3.18-.41-1.03-1.01-2-1.61-2.96-1.25-1.9-2.64-3.72-4.1-5.5-2.89-3.59-5.98-7.03-8.91-10.67-.06-.07-.05-.18,.03-.24,.06-.05,.15-.05,.21,0Z"/>
            <path class="parrot-14" d="M130.96,101.11s.11,.02,.14,.06l-.12-.05c.05,0,.14,.05,.13,.05,.01,0-.07-.05-.11-.05,.05,0,.14,.05,.13,.05,.01,0-.07-.06-.11-.05l.08,.02,.1,.04-.1-.03h0s.04,0,.06,0l.14,.06-.05-.02,.09,.03h-.07c.06,0,.14,.02,.19,.07l-.06-.04c2.17,.84,4.29,1.79,6.34,2.88,2.06,1.07,4.06,2.26,6,3.56,1.92,1.32,3.8,2.72,5.47,4.4,.83,.84,1.62,1.74,2.26,2.77,.61,1.01,1.14,2.23,.91,3.47-.01,.08-.09,.13-.16,.11-.06-.01-.11-.07-.11-.13h0c-.08-1.12-.65-2.09-1.38-2.92-.71-.85-1.54-1.61-2.39-2.34-1.73-1.45-3.59-2.76-5.48-4.03-1.89-1.28-3.83-2.49-5.78-3.71l-5.85-3.67-.06-.04s.07,.05,.11,.04h-.07s-.09-.06-.09-.06l-.05-.02s-.03-.02-.04-.04h.06s0,0,0,0h-.02s-.06-.02-.08-.03l-.06-.04,.08,.02c-.05,0-.14-.05-.13-.06,0,0,.07,.05,.11,.04-.05,0-.14-.05-.13-.06-.01,0,.07,.05,.11,.04l-.12-.05s.07,.04,.1,.04c-.09,0-.17-.08-.17-.17s.08-.17,.17-.17Z"/>
          </g>
          <path d="M27.59,26.53c0-1.29-1.05-2.34-2.34-2.34s-2.34,1.05-2.34,2.34,1.05,2.34,2.34,2.34,2.34-1.05,2.34-2.34Z"/>
          <circle class="parrot-8" cx="32.45" cy="39.41" r="8.31" transform="translate(-16.35 54.41) rotate(-67.62)"/>
          <path class="parrot-1" d="M39.48,71.21s19.31,28.25,55.23,30.51c19.54,1.23,2.16-12.17,2.16-12.17,0,0,19.16,6.97,24.67,3.13,5.51-3.84-6.84-9.19-6.84-9.19,0,0,17.98,7.43,29.6,1.95,3.83-1.81-11.66-7.36-23.23-16.72-18.59-15.03-50.05-26.25-70.17-17.08-20.12,9.17-12.13,17.08-11.41,19.57Z"/>
          <g>
            <path class="parrot-9" d="M71.95,110.56c1.25,3.72,2.36,7.48,3.38,11.26,.07,.27,.02,.54-.12,.75l-.02,.03c-1.03,1.59-2.09,3.15-3.21,4.68-1.12,1.53-2.29,3.01-3.57,4.43-.18,.2-.48,.21-.68,.04-.16-.15-.2-.38-.11-.57,.85-1.71,1.8-3.35,2.81-4.95,1-1.61,2.07-3.17,3.16-4.71l-.14,.78c-.92-3.81-1.75-7.63-2.43-11.5-.05-.26,.13-.51,.39-.55,.24-.04,.46,.1,.54,.32Z"/>
            <path class="parrot-9" d="M75.37,132.55c-.66-1.91-.99-3.85-1.25-5.81-.22-1.96-.37-3.93-.21-5.93,.02-.27,.26-.47,.52-.45,.2,.02,.36,.15,.42,.33,.65,1.91,.98,3.85,1.25,5.81,.23,1.96,.38,3.93,.21,5.93-.02,.27-.26,.47-.53,.44-.2-.02-.36-.15-.42-.33Z"/>
            <path class="parrot-9" d="M63.38,127.49c1.56-1.54,3.3-2.81,5.08-4,1.8-1.17,3.64-2.29,5.66-3.13,.25-.1,.53,.01,.64,.26,.08,.19,.03,.4-.11,.54-1.56,1.53-3.3,2.8-5.08,4-1.8,1.18-3.64,2.29-5.66,3.13-.25,.1-.53-.01-.64-.26-.08-.19-.03-.4,.11-.53Z"/>
          </g>
          <path class="parrot-6" d="M77.27,90.95c-.67-1.65-1.6-3.3-3.01-4.42-.8-.63-1.73,.31-1.11,1.11,.65,.84,1.28,1.67,1.84,2.57-.62-.12-1.23-.32-1.82-.62-.5-.26-1-.57-1.45-.92-.47-.36-.87-.97-1.43-1.18-.26-.1-.53,.15-.53,.41,0,.66,.65,1.3,1.07,1.75,.48,.51,1.03,.93,1.63,1.27,1.22,.69,2.61,1.07,4.02,1.1,.49,0,1.01-.55,.81-1.06Z"/>
          <path class="parrot-6" d="M88.58,86.74c-.49-1.16-1.59-1.79-2.44-2.65-.48-.5-1.36,.15-.98,.75,.5,.77,1.23,1.38,1.7,2.16,.16,.26,.23,.52,.23,.82,0,.23-.09,.51-.19,.61,0,0-.1,.07-.22,.07-.22,.01-.45-.08-.65-.15-.45-.15-.89-.33-1.31-.53-.92-.44-1.8-.98-2.59-1.63-.9-.73-2.01,.37-1.27,1.27,.64,.78,1.28,1.55,1.93,2.33,.02,.02,.04,.04,.05,.07-.67-.21-1.28-.5-1.89-.86-.7-.42-1.28-1.02-2-1.4-.32-.17-.72,.11-.62,.48,.29,1.05,1.3,1.93,2.18,2.51,.91,.6,2.03,1.14,3.12,1.28,.64,.09,1.32-.24,1.49-.91,.09-.35,.03-.73-.1-1.07,1.04,.4,2.22,.67,3.11-.17,.8-.76,.86-2.01,.45-2.98Z"/>
          <path class="parrot-6" d="M78.89,77.19c-.58-1.02-1.46-2.11-2.51-2.66-.28-.15-.63-.12-.87,.11-.21,.21-.3,.61-.11,.87,.32,.43,.7,.82,1.02,1.24,.33,.43,.63,.89,.9,1.36,.24,.42,.49,.87,.62,1.29,0,.02,.03,.14,.04,.2-.46-.09-.96-.31-1.39-.49-.45-.18-.94-.41-1.39-.66-.99-.53-1.86-1.22-2.76-1.88-.26-.19-.68-.07-.86,.17-.21,.29-.16,.61,.05,.88,.66,.84,1.51,1.49,2.4,2.07,.9,.59,1.86,1.06,2.87,1.42,.56,.2,1.17,.4,1.77,.24,.56-.15,.98-.65,1.09-1.21,.2-1.03-.35-2.09-.85-2.95Z"/>
          <path class="parrot-6" d="M103.9,79.86c-.34-.54-1.36-.37-1.29,.35,.1,1.04,.76,1.61,1.19,2.51,.1,.2,.29,.6,.11,.81-.19,.21-.94,0-1.15-.05-1.92-.43-3.63-1.47-4.98-2.89-.73-.77-1.88,.39-1.16,1.16,.79,.84,1.44,1.77,2,2.77-2.66-.67-4.77-2.91-7.17-4.13-.47-.24-.87,.43-.41,.71,2.94,1.82,5.18,4.95,8.91,5.12,.63,.03,.86-.65,.65-1.13-.07-.16-.15-.31-.23-.47,1.01,.47,2.08,.77,3.15,.79,1.3,.03,2.36-.88,2.3-2.23-.07-1.42-1.21-2.2-1.9-3.32Z"/>
          <path class="parrot-6" d="M113.55,87.31c-.65-.33-1.43,.35-1.03,1.03,.01,.02,.01,.01,.02,.02,.02,.05,.03,.1,.05,.15,0,0,0,.02,0,.03,0,0,0,0,0,.02,0,0,0,0,0,.01,0,.01,0,.03,0,.04-.02,.06-.04,.11-.06,.17,0,.01,0,.01,0,.02-.02,.04-.05,.09-.07,.13-.01,.02,0,.01-.02,.02-.04,.04-.07,.07-.11,.11,0,0,0,0,0,0,0,0,0,0-.02,0-.05,.03-.21,.07-.02,.02-.07,.02-.14,.04-.21,.06,0,0,0,0-.01,0-.03,0-.05,0-.08,0-.09,0-.17,0-.26,0,.1,.01-.14-.03-.14-.03-.6-.14-1.12-.49-1.67-.78-.59-.32-1.25-.66-1.93-.57-.17,.02-.32,.1-.37,.28-.04,.16,.03,.36,.18,.44,.35,.17,.7,.34,1.02,.56,.31,.21,.59,.46,.89,.69,.69,.54,1.56,1.01,2.46,.99,.8-.02,1.55-.45,1.93-1.17,.39-.75,.29-1.83-.53-2.25Z"/>
          <path class="parrot-6" d="M129.19,80.19c-.17-.31-.66-.47-.96-.25-.21,.15-.38,.4-.6,.52-.32,.16-.75,.04-1.08-.03-.66-.15-1.32-.35-1.95-.62-1.29-.55-2.47-1.34-3.48-2.3-.87-.82-2.17,.49-1.31,1.31,.39,.37,.76,.74,1.12,1.14,.15,.17,.3,.34,.45,.52,.06,.08,.13,.18,.2,.28-.41-.09-.83-.19-1.23-.32-1.86-.61-3.37-1.71-4.91-2.89-.33-.25-.74,.23-.55,.55,1.35,2.25,3.95,3.75,6.44,4.39,.56,.15,1.18,.31,1.75,.11,.5-.17,.81-.61,.86-1.09,.32,.13,.64,.27,.97,.38,.94,.31,2.11,.68,3.1,.4,.87-.25,1.69-1.19,1.18-2.1Z"/>
          <path class="parrot-6" d="M65.03,66.9c-.48-.54-1.16,.15-.92,.71,.31,.72,.71,1.47,.74,2.27,0,.04-.04,.26-.06,.41-.28-.17-.72-.26-1-.4-.66-.32-1.3-.7-1.88-1.14-.61-.46-1.09-1.04-1.66-1.53-.57-.72-1.74,.21-1.26,.97,.44,.69,1.09,1.29,1.76,1.82,.39,.57,.7,1.2,.94,1.83,.18,.47,.56,1.4,.04,1.79-.43,.33-1.33-.4-1.7-.64-2.23-1.41-3.91-3.6-5.57-5.62-.23-.28-.68,.08-.5,.38,.87,1.47,1.75,2.91,2.89,4.19,1.08,1.2,2.5,2.58,4.11,3.02,.79,.22,1.55-.09,1.98-.79,.46-.74,.35-1.64,.08-2.42-.04-.12-.1-.23-.15-.35,.52,.27,1.05,.51,1.59,.66,1.31,.38,2.07-.74,2.1-1.92,.03-1.25-.72-2.37-1.52-3.27Z"/>
          <path class="parrot-6" d="M63.25,82.7c-.34-.78-1.06-1.55-1.9-1.75-.71-.17-1.21,.68-.71,1.21,.13,.13,.25,.25,.38,.38,.06,.06,.12,.12,.18,.18,.01,.01,.09,.11,.12,.15,.03,.04,.09,.13,.1,.14,.05,.08,.11,.16,.16,.24,.04,.06,.08,.12,.11,.19,.01,.02,.06,.13,.08,.17,.04,.11,.08,.22,.11,.33-.02,0-.05-.02-.07-.03-.05-.02-.1-.04-.15-.06,.05,.02,.05,.02,0,0-.09-.04-.17-.08-.26-.12-.17-.08-.34-.17-.51-.26-.33-.18-.65-.38-.96-.6-.6-.42-1.17-.94-1.67-1.51-.2-.23-.58-.23-.8-.05-.21,.17-.34,.54-.16,.79,.94,1.23,2.11,2.27,3.47,3.01,.35,.19,.72,.39,1.11,.51,.56,.17,1.19,0,1.5-.51,.44-.73,.18-1.69-.14-2.42Z"/>
          <g class="parrot-5">
            <path class="parrot-7" d="M91.6,96.16s0,0,0,0c-.08,.04-.08,.05-.05,.04,0,0,.02-.01,.03-.02,0,0,0,0,.01,0Z"/>
            <path class="parrot-7" d="M93.4,95.01c-.03-.23-.11-.43-.21-.64-.12-.25-.31-.44-.55-.58-.19-.11-.44-.09-.61,.04-.16,.13-.27,.37-.2,.58,.03,.09,.04,.18,.07,.27,.03,.09,.07,.18,.09,.27,0,0,0,0,0,.01,0-.02,0-.02,0-.05,0,.03,0,.06,0,.09,0,0,0,0,0,0,0,.02,0,.04,0,.06,0,.05,0,.1,0,.15,0,.02,0,.04,0,.05,0-.02,0-.03,.01-.06,0,.02-.01,.05-.02,.07,0,.03-.01,.05-.01,.05-.03,.14-.05,.28-.09,.42,0,.01,0,.03-.02,.04,0,0,0,.01,0,.02,0,.02-.02,.05-.03,.07,0-.02,0-.03,.01-.04h0c-.04,.09-.1,.16-.15,.25,.01-.02,.02-.03,.02-.04,0,.01-.02,.03-.03,.04-.03,.03-.06,.06-.1,.09,0,0,0,0,.02-.01-.01,0-.03,.02-.04,.03-.01,0-.02,.02-.03,.02-.02,.01-.03,.02-.05,.03-.01,0-.05,.03-.07,.04-.05,.02-.11,.04-.16,.05-.05,.01-.1,.02-.15,.03,0,0,0,0,0,0-.03,0-.06,0-.09,0-.14,0-.28,0-.43-.01-.02,0-.02,0-.03,0-.02,0-.05,0-.08-.01-.05,0-.11-.02-.16-.03-.29-.06-.57-.15-.85-.23-.28-.09-.63,.1-.69,.39-.07,.33,.1,.57,.39,.69,.98,.41,2.11,.76,3.11,.2,.37-.21,.68-.54,.88-.91,.1-.19,.19-.39,.24-.6,.06-.28,.04-.55,0-.83Z"/>
            <path class="parrot-7" d="M91.88,95.76s0-.03-.02,.05c0,0,0-.02,.01-.03,0,0,0-.02,0-.02Z"/>
            <path class="parrot-7" d="M92,95.25s-.01,.05-.01,.05c0-.02,0-.03,.01-.05,0,0,0,0,0,0Z"/>
            <path class="parrot-7" d="M91.73,96.02s.04-.08,0,0h0Z"/>
            <path class="parrot-7" d="M92,94.96c0,.08,0,.08,0,.04,0,0,0,0,0,0,0-.01,0-.02,0-.04Z"/>
          </g>
          <path class="parrot-6" d="M28.81,72.75c-.05-.44-.14-.86-.24-1.29-.04-.16-.08-.32-.12-.48-.07-.25-.18-.47-.31-.7-.21-.34-.59-.52-.98-.47-.38,.05-.72,.33-.82,.71-.07,.25-.12,.5-.12,.76,0,.17,0,.34,0,.5,0,.34-.04,.67-.03,1.01,0,.36-.02,.72,0,1.08,.02,.33,.09,.72,.26,1.01,.26,.43,.74,.71,1.25,.64,.83-.11,1.23-.95,1.22-1.72,0-.35-.06-.7-.1-1.05Z"/>
          <path class="parrot-6" d="M33.67,74.43c-.05-.21-.12-.39-.22-.58-.06-.13-.11-.25-.17-.38-.21-.51-.4-1.03-.55-1.56-.13-.47-.6-.77-1.08-.71-.47,.06-.86,.47-.85,.97,0,.51,.05,1.01,.11,1.52,.04,.34,.09,.68,.15,1.02,.04,.22,.12,.39,.21,.61,.03,.06,.05,.13,.09,.19,.18,.32,.46,.46,.79,.6,.11,.01,.22,.03,.33,.04,.17,0,.33-.03,.47-.11,.24-.1,.46-.27,.59-.5,.2-.36,.22-.71,.12-1.11Z"/>
          <path class="parrot-6" d="M36.02,72.55c0-.27-.01-.57-.11-.83-.17-.44-.36-.88-.6-1.29-.26-.44-.81-.61-1.27-.42-.45,.19-.75,.72-.59,1.2,.12,.38,.21,.76,.26,1.15,0,0,0,0,0,0,0,.04,.01,.08,.02,.11,.02,.05,.04,.1,.05,.14,.03,.08,.06,.17,.08,.25,.01,.05,.03,.1,.04,.15,.09,.28,.25,.48,.5,.64,.05,.03,.1,.07,.15,.1,.07,.03,.13,.06,.2,.09,.11,.04,.22,.04,.34,.02,.18-.02,.35-.1,.48-.23,.04-.04,.09-.09,.13-.14,.21-.24,.31-.48,.32-.8,0-.05,0-.1,0-.15Z"/>
          <path class="parrot-6" d="M32.95,83.15c-.08-.16-.18-.31-.27-.46-.06-.1-.11-.21-.16-.31-.11-.28-.2-.56-.25-.85-.04-.22-.26-.49-.46-.6-.2-.11-.41-.15-.64-.12-.21,.03-.42,.11-.57,.27-.19,.2-.27,.43-.29,.7-.03,.45,.01,.89,.08,1.33,.07,.43,.19,.92,.43,1.28,.18,.27,.42,.48,.74,.57,.29,.08,.69,.04,.95-.12,.26-.17,.49-.42,.57-.74,.01-.11,.03-.22,.04-.33,0-.22-.06-.43-.17-.62Z"/>
          <path class="parrot-6" d="M37.04,83.68c-.09-.24-.18-.48-.26-.72-.08-.24-.15-.49-.23-.73-.09-.26-.18-.51-.25-.78-.18-.6-.76-.98-1.38-.9-.6,.08-1.1,.6-1.09,1.23,0,.65,.07,1.29,.22,1.92,.2,.85,.47,2,1.49,2.16,.29,.05,.54,.05,.81-.06,.27-.11,.42-.28,.59-.51,.36-.48,.29-1.1,.09-1.62Z"/>
          <path class="parrot-6" d="M41.13,81.09c-.09-.23-.17-.47-.3-.69-.07-.12-.14-.23-.21-.35-.31-.5-.61-1.01-.92-1.51-.16-.26-.42-.47-.71-.55-.29-.08-.67-.04-.92,.12-.26,.16-.48,.41-.55,.71-.08,.33-.02,.61,.12,.92,.25,.54,.5,1.07,.75,1.61,.06,.13,.12,.25,.17,.38,.07,.14,.16,.27,.25,.4,.03,.05,.07,.1,.1,.15,.16,.23,.29,.36,.54,.52,.17,.11,.36,.19,.55,.25,.51,.16,1.06-.19,1.2-.68,.06-.2,.08-.41,.09-.62,0-.26-.05-.43-.14-.66Z"/>
          <path class="parrot-6" d="M35.18,96.27c-.11-.46-.28-.91-.43-1.36-.34-.95-.81-1.86-1.32-2.74-.23-.41-.75-.56-1.17-.38-.43,.18-.66,.65-.54,1.11,.22,.9,.36,1.8,.52,2.71,.04,.21,.07,.43,.1,.64,0,.04,.01,.08,.02,.12,.01,.09,.02,.19,.03,.28,.04,.32,.09,.62,.2,.93,.1,.28,.21,.54,.42,.75,.12,.12,.27,.21,.42,.3,.38,.25,1.04,.18,1.33-.17,.1-.12,.24-.26,.31-.4,.15-.26,.2-.56,.21-.85,0-.3-.03-.65-.1-.94Z"/>
          <path class="parrot-6" d="M40.83,95.85c-.12-.26-.23-.51-.35-.77-.04-.1-.08-.19-.13-.29-.03-.06-.06-.13-.08-.19,0,.02,.01,.03,.02,.05-.24-.56-.5-1.11-.74-1.67-.02-.05-.21-.47-.07-.17-.06-.13-.11-.26-.16-.39-.11-.26-.21-.53-.31-.79-.22-.58-.8-1.04-1.46-.83-.64,.21-.96,.81-.83,1.46,.22,1.06,.46,2.14,.78,3.18,.15,.5,.34,1,.52,1.49,.33,.9,1.03,2.03,2.18,1.72,1.31-.36,1.05-1.87,.64-2.79Z"/>
          <path class="parrot-6" d="M45.63,94.6c-.1-.29-.2-.58-.36-.84-.17-.26-.36-.5-.55-.75,.07,.1,.15,.19,.22,.29-.56-.73-1.05-1.5-1.48-2.31-.26-.51-.93-.68-1.43-.47-.52,.22-.82,.8-.66,1.35,.21,.74,.48,1.45,.78,2.16,.13,.31,.27,.61,.42,.91,.07,.15,.18,.28,.27,.42,.11,.15,.22,.3,.36,.42,.15,.12,.3,.23,.45,.34,.11,.05,.21,.09,.32,.14,.12,.02,.24,.03,.36,.05,.3,0,.58-.11,.82-.29,.41-.31,.66-.91,.48-1.42Z"/>
          <path class="parrot-6" d="M47.27,90.22c-.03-.21-.02-.17-.1-.36-.07-.17-.16-.32-.29-.46-.02-.02-.04-.04-.06-.06-.09-.09-.19-.17-.28-.26-.19-.16-.37-.33-.55-.51-.35-.35-.68-.72-.98-1.11-.16-.2-.54-.34-.79-.33-.25,.01-.47,.08-.67,.24-.45,.35-.55,.94-.29,1.44,.23,.44,.49,.87,.78,1.29,.2,.28,.41,.55,.62,.82,.08,.1,.15,.19,.24,.28,.12,.12,.25,.23,.39,.31,.33,.18,.69,.23,1.06,.14,.4-.1,.81-.47,.88-.88,.04-.23,.05-.33,.03-.54Z"/>
          <path class="parrot-6" d="M49.4,107.19c-.14-.16-.28-.33-.42-.49-.13-.16-.31-.28-.46-.41-.32-.28-.64-.56-.96-.84-.64-.55-1.25-1.14-1.82-1.76-.39-.43-1.1-.43-1.54-.09-.45,.35-.61,1.01-.3,1.51,.5,.82,1.06,1.59,1.66,2.34,.27,.33,.56,.64,.86,.93,.23,.23,.46,.45,.74,.62,.19,.12,.39,.23,.58,.34,.6,.33,1.35,.19,1.77-.35,.43-.56,.35-1.28-.11-1.8Z"/>
          <path class="parrot-6" d="M52.94,103.33c-.18-.18-.38-.34-.61-.46-.12-.06-.25-.13-.37-.21-.19-.12-.37-.25-.55-.38-.43-.35-.82-.73-1.16-1.17,.03,.04,.07,.09,.1,.13-.19-.25-.39-.45-.71-.54-.29-.08-.67-.04-.92,.12-.57,.36-.74,1.04-.43,1.64,.33,.64,.76,1.23,1.25,1.77,.21,.23,.43,.45,.66,.65,.2,.17,.41,.33,.62,.49,.22,.17,.47,.27,.74,.34,.31,.08,.63,.05,.93-.07,.27-.12,.54-.31,.68-.58,.29-.56,.24-1.27-.22-1.72Z"/>
          <path class="parrot-6" d="M57.66,99.52c-.12-.07-.23-.15-.35-.22-.2-.14-.43-.22-.66-.32,.11,.05,.23,.1,.34,.14-.55-.23-1.06-.53-1.53-.88-.14-.12-.28-.23-.42-.36-.23-.22-.53-.35-.85-.35-.3,0-.65,.13-.85,.35-.21,.23-.37,.53-.35,.85,.01,.11,.03,.21,.04,.32,.06,.2,.16,.38,.31,.53,.36,.46,.77,.89,1.23,1.25,.3,.24,.61,.48,.93,.68,.35,.22,.74,.34,1.14,.42,.3,.06,.58,.05,.86-.07,.26-.11,.5-.29,.63-.54,.02-.04,.12-.27,.13-.32,.14-.58-.09-1.18-.61-1.5Z"/>
          <path class="parrot-6" d="M63.49,107.56c-.06-.23-.21-.46-.37-.63-.16-.17-.35-.3-.54-.44-.05-.04-.1-.08-.16-.11-.14-.09-.3-.14-.46-.2-.13-.05-.25-.1-.38-.14-.5-.18-1.01-.33-1.53-.45-.54-.13-1.09,.13-1.31,.64-.2,.49-.04,1.13,.46,1.39,.34,.17,.67,.36,.99,.56,.16,.1,.31,.2,.47,.31,.08,.05,.16,.11,.24,.17,.07,.05,.15,.09,.22,.12,0,0,0,0,0,0,0,0,0,0,.01,0,.07,.03,.13,.06,.2,.09,.45,.2,.9,.38,1.4,.2,.24-.08,.43-.2,.58-.4,.14-.18,.27-.45,.24-.68-.01-.13-.02-.28-.05-.41Z"/>
          <path class="parrot-6" d="M66.92,104.77c-.02-.08-.03-.08-.08-.2-.09-.2-.18-.36-.33-.53-.1-.11-.24-.2-.36-.29-.04-.03-.07-.05-.11-.08-.13-.08-.29-.12-.44-.18-.05-.02-.09-.04-.14-.06-.17-.07-.34-.14-.5-.2-.19-.08-.39-.17-.59-.23-.2-.06-.4-.11-.6-.17-.25-.07-.52-.04-.76,.06-.22,.09-.44,.25-.55,.47-.1,.18-.15,.38-.16,.59-.01,.27,.13,.64,.34,.82l.4,.36c.22,.19,.45,.36,.69,.53,.15,.11,.3,.22,.45,.33,.07,.05,.14,.1,.22,.16,.04,.03,.07,.05,.11,.08,.13,.09,.3,.14,.45,.2,.04,.02,.08,.03,.12,.05,.08,.02,.32,.06,.41,.06,.02,0,.04,0,.06,0,.11,0,.29-.02,.39-.05,.06-.02,.18-.07,.19-.08,.17-.07,.32-.17,.46-.3,.23-.22,.32-.48,.36-.77,.02-.18,.02-.36-.02-.55Z"/>
          <path class="parrot-6" d="M129.55,127.18c-.58-.88-1.72-1.36-2.59-1.92-.85-.54-1.68-1.11-2.5-1.7-1.62-1.17-3.23-2.34-4.86-3.49-.31-.22-.77-.09-.98,.2-.24,.32-.19,.7,.06,1,1.32,1.62,2.85,3.03,4.52,4.29,.8,.61,1.63,1.19,2.46,1.76,.89,.59,1.87,1.4,2.97,1.48,.8,.06,1.37-.97,.93-1.62Z"/>
          <path class="parrot-6" d="M131.03,124.64c-.52-.63-1.13-1.2-1.73-1.75-.62-.57-1.23-1.17-1.85-1.74-.61-.56-1.2-1.13-1.79-1.71-.29-.29-.56-.6-.86-.88-.31-.3-.66-.56-.99-.85-.31-.27-.75-.33-1.08-.06-.31,.25-.43,.71-.21,1.06,.49,.78,1.01,1.48,1.61,2.18,.55,.64,1.12,1.27,1.71,1.88,.58,.61,1.21,1.18,1.85,1.73,.68,.59,1.42,1.18,2.21,1.6,.41,.22,.91,.14,1.19-.24,.29-.39,.23-.85-.07-1.22Z"/>
          <path class="parrot-6" d="M137.42,114.58c-.4-.59-1.01-1.04-1.58-1.46-.5-.37-1.02-.73-1.53-1.09-1-.72-1.99-1.45-2.98-2.19-.4-.3-1.01-.1-1.28,.26-.28,.37-.3,.98,.08,1.31,.94,.8,1.88,1.59,2.84,2.38,.47,.39,.94,.77,1.41,1.15,.57,.45,1.19,.93,1.89,1.15,.82,.26,1.66-.76,1.15-1.5Z"/>
          <path class="parrot-6" d="M144.6,116.72c-.5-.72-1.11-1.36-1.77-1.94-.62-.55-1.24-1.11-1.89-1.63-.68-.54-1.35-1.1-2.05-1.61-.33-.24-.7-.5-1.06-.69-.41-.22-.83-.21-1.26-.32-.34-.09-.79,.25-.63,.63,.15,.36,.2,.74,.41,1.09,.24,.39,.6,.74,.9,1.08,.55,.62,1.2,1.16,1.8,1.72,.59,.56,1.21,1.07,1.83,1.59,.69,.59,1.42,1.17,2.23,1.58,.44,.22,.97,.19,1.33-.17,.33-.33,.45-.94,.17-1.33Z"/>
          <path class="parrot-6" d="M145.61,112.69c-.59-.66-1.38-1.13-2.09-1.64l-2.01-1.42c-.39-.27-.96-.1-1.22,.24-.27,.35-.29,.94,.07,1.25l1.88,1.58c.67,.56,1.33,1.2,2.12,1.61,.46,.24,1.01,.15,1.33-.27,.32-.42,.27-.97-.08-1.35Z"/>
          <path class="parrot-6" d="M55.8,30.15c-.08-.3-.18-.59-.3-.87-.26-.65-.57-1.26-.98-1.82-.16-.22-.34-.39-.61-.47-.24-.07-.57-.04-.79,.1-.49,.31-.62,.88-.37,1.39,.06,.11,.11,.22,.16,.34,.23,.57,.39,1.15,.47,1.76,.02,.18,.05,.36,.09,.53,.07,.25,.18,.48,.28,.72,.07,.15,.26,.31,.4,.4,.21,.13,.46,.16,.7,.13,.42-.06,.81-.36,.92-.79,.12-.47,.15-.94,.02-1.41Z"/>
          <path class="parrot-6" d="M53.03,32.29c-.04-.16-.09-.32-.13-.49-.09-.32-.22-.63-.33-.94-.08-.21-.2-.42-.41-.53-.18-.1-.37-.13-.57-.11-.19,.03-.38,.1-.51,.24-.05,.06-.09,.12-.14,.18-.08,.14-.12,.29-.12,.45-.04,.33-.1,.66-.12,1l-.02,.49c0,.18,0,.34,.05,.53,0,.04,.02,.07,.03,.11,.06,.2,.16,.38,.31,.53,.09,.07,.17,.13,.26,.2,.09,.04,.19,.08,.28,.12,.16,.05,.31,.06,.47,.02,.24-.03,.51-.13,.67-.32,.07-.08,.14-.17,.2-.26,.09-.14,.13-.29,.14-.45,.01-.09,.02-.18,.02-.27,0-.17-.04-.34-.08-.51Z"/>
          <path class="parrot-6" d="M55,37.05c-.01-.05-.03-.11-.05-.16-.06-.21-.12-.42-.18-.62-.03-.12-.09-.23-.17-.32-.07-.1-.16-.18-.27-.24-.08-.03-.15-.06-.23-.1-.13-.04-.25-.05-.38-.02-.09,0-.17,.02-.24,.06-.12,.04-.22,.1-.31,.2-.17,.18-.28,.41-.28,.67v.54c0,.09,0,.18,0,.26,0,.18,.04,.36,.08,.53,.05,.18,.14,.33,.27,.47,.13,.13,.29,.22,.47,.27,.45,.15,.96-.09,1.19-.48,.12-.2,.15-.42,.13-.65-.01-.13-.02-.27-.06-.4Z"/>
          <path class="parrot-10" d="M58.67,11.22c-.99-.16-1.98-.18-2.99-.23-1-.05-1.99-.16-2.98-.34-.37-.06-.52,.45-.16,.56,.99,.3,1.99,.55,3,.73,1.04,.19,2.07,.27,3.12,.1,.41-.07,.41-.77,0-.84Z"/>
          <path class="parrot-10" d="M66.51,9.16c-.23,.07-.46,.12-.68,.21-.3,.11-.28,.13-.59,.24-.45,.16-.89,.33-1.35,.45-.55,.14-.85,.15-1.35,.23-.41,.07-.87,.12-1.35,.22-.46,.1-.6,.87-.14,1.07,.24,.1,.48,.22,.74,.27,.29,.05,.59,.08,.89,.11,.54,.04,1.12-.07,1.65-.17,.53-.1,1.05-.25,1.54-.46,.23-.1,.48-.21,.7-.35,.25-.16,.47-.38,.68-.58,.52-.5,0-1.46-.72-1.23Z"/>
          <path class="parrot-12" d="M27.95,52.78c-.06-.21-.13-.38-.27-.56-.07-.08-.13-.17-.2-.25,.05,.06,.09,.12,.14,.18-.12-.15-.23-.28-.37-.41-.09-.08-.18-.17-.27-.25-.17-.17-.34-.35-.51-.53-.14-.15-.27-.32-.4-.48,0,0-.06-.08-.08-.1-.04-.05-.07-.1-.11-.15-.07-.1-.14-.2-.21-.3-.22-.33-.68-.51-1.04-.27-.36,.23-.47,.66-.27,1.04,.28,.54,.61,1.06,.98,1.54,.22,.28,.44,.56,.68,.83,.14,.16,.32,.28,.5,.4,.11,.07,.22,.14,.35,.18,.12,.03,.25,.04,.38,.05,.22,.03,.44-.12,.57-.29,.14-.18,.19-.41,.13-.63Z"/>
          <path class="parrot-12" d="M34.6,50.66c-.06-.14-.11-.24-.22-.36-.11-.11-.25-.18-.38-.26-.13-.07-.25-.15-.39-.19-.08-.02-.15-.04-.23-.06-.14-.04-.28-.07-.43-.11-.19-.05-.37-.09-.58-.04-.06,.01-.11,.03-.17,.04-.3,.08-.52,.43-.42,.74,.02,.05,.03,.11,.05,.16,.05,.15,.12,.27,.24,.38,.03,.03,.06,.05,.09,.08,.11,.1,.22,.2,.33,.3,.05,.05,.11,.1,.16,.15,.13,.11,.24,.17,.39,.25,.21,.1,.41,.21,.65,.21,.13,0,.27-.03,.41-.06,.25-.04,.45-.26,.54-.48,.05-.1,.08-.21,.07-.32,0-.15-.04-.29-.11-.42Z"/>
          <path class="parrot-12" d="M36.81,49.3c0-.12-.04-.22-.1-.32-.04-.07-.09-.13-.15-.19-.08-.08-.16-.15-.26-.2-.09-.05-.21-.09-.31-.13l-.12-.05c-.08-.03-.16-.04-.25-.06-.09-.02-.17-.04-.26-.06-.12-.04-.23-.04-.35-.02-.12,0-.22,.04-.32,.1-.06,.05-.12,.09-.18,.14-.08,.08-.14,.17-.18,.28-.04,.07-.06,.14-.06,.22-.03,.12-.02,.23,.02,.35,.07,.21,.2,.42,.4,.52,.21,.11,.43,.23,.65,.31,.08,.03,.17,.06,.25,.08,.05,.01,.09,.02,.14,.02,.05,.02,.09,.02,.14,.01,.02,0,.04,0,.06,0,.08,0,.17-.02,.25-.03,.07-.03,.14-.06,.21-.09,.07-.04,.13-.08,.18-.14,.08-.08,.14-.17,.18-.27,.05-.1,.08-.21,.07-.33,0-.04,0-.08-.02-.12Z"/>
          <path class="parrot-12" d="M44.63,41.41c-.02-.12-.09-.23-.15-.34-.06-.11-.14-.22-.23-.3-.07-.07-.15-.14-.23-.22-.11-.11-.21-.24-.31-.36-.17-.23-.32-.46-.45-.72-.08-.16-.28-.31-.46-.35-.17-.04-.33-.03-.5,.04-.36,.15-.52,.52-.44,.9,.1,.43,.25,.84,.43,1.24,.24,.52,.57,1.13,1.16,1.28,.33,.08,.68,0,.93-.24,.25-.25,.31-.59,.24-.93Z"/>
          <path class="parrot-12" d="M46.12,38.94s-.04-.07-.05-.11c-.06-.11-.14-.2-.22-.3-.05-.06-.1-.13-.15-.19-.11-.13-.22-.25-.34-.37-.29-.28-.65-.5-1-.68-.2-.1-.46-.16-.69-.09-.07,.03-.14,.06-.21,.09-.1,.06-.19,.13-.25,.23-.12,.15-.2,.34-.19,.54,.01,.24,.09,.46,.26,.63,.16,.16,.3,.32,.44,.5-.05-.07-.1-.13-.16-.2,.1,.14,.2,.28,.32,.4,.03,.03,.05,.07,.08,.1,.05,.07,.11,.14,.16,.22,.11,.17,.24,.34,.38,.5,.09,.1,.21,.17,.34,.22,.12,.07,.26,.1,.4,.09,.09-.01,.19-.02,.28-.04,.14-.03,.25-.09,.35-.19,.08-.05,.14-.11,.19-.19,.09-.1,.15-.22,.19-.35,.01-.09,.02-.19,.04-.28,0-.19-.05-.36-.14-.53Z"/>
          <path class="parrot-12" d="M45.48,35.27c-.02-.08-.06-.14-.12-.2-.06-.1-.15-.18-.26-.24-.32-.22-.64-.43-.96-.65-.1-.06-.21-.1-.33-.1-.12-.03-.23-.02-.35,.02-.11,.03-.21,.08-.3,.16-.1,.06-.17,.14-.23,.25-.11,.2-.16,.45-.09,.68,.03,.07,.06,.14,.09,.21,.08,.13,.18,.24,.32,.32,.31,.24,.61,.47,.92,.71,.14,.08,.3,.12,.46,.12,.16,0,.32-.04,.46-.12,.12-.06,.18-.14,.26-.23,.07-.1,.14-.18,.16-.31,.01-.08,.02-.16,.03-.24,0-.13-.02-.24-.08-.35Z"/>
          <path class="parrot-12" d="M48.05,26.73c-.09-.16-.21-.28-.37-.37-.24-.15-.47-.31-.7-.48-.32-.25-.63-.52-.92-.81-.31-.31-.81-.33-1.15-.07-.15,.11-.27,.27-.31,.46-.05,.21-.05,.49,.09,.68,.51,.68,1.08,1.31,1.74,1.85,.13,.13,.28,.22,.45,.27,.09,.01,.18,.02,.27,.04,.32,.01,.62-.16,.81-.41,.09-.1,.15-.22,.18-.35,.04-.14,.05-.27,.02-.41,0-.14-.05-.27-.12-.38Z"/>
          <path class="parrot-12" d="M48.79,24.32c-.1-.13-.26-.22-.4-.31l-.24-.16c-.17-.11-.35-.22-.52-.33-.35-.22-.7-.44-1.04-.67-.35-.22-.89-.08-1.09,.29-.1,.18-.15,.41-.08,.61,.07,.21,.19,.35,.37,.48,.34,.24,.67,.49,1.01,.73,.17,.12,.34,.24,.5,.36,.22,.16,.42,.33,.68,.41,.35,.1,.78-.06,.96-.39,.07-.13,.11-.28,.12-.43,.01-.24-.11-.42-.25-.6Z"/>
          <path class="parrot-12" d="M47.61,21.22c-.04-.1-.09-.19-.15-.28-.01-.02-.03-.05-.04-.07,0,0,0-.01-.01-.02-.05-.06-.1-.12-.14-.19-.01-.01-.02-.02-.03-.03-.04-.04-.08-.07-.12-.11-.22-.18-.45-.36-.7-.49-.1-.07-.21-.1-.33-.11-.12-.03-.24-.02-.36,.02-.12,.03-.22,.08-.3,.16-.1,.06-.17,.15-.23,.25-.03,.07-.06,.14-.09,.21-.04,.16-.04,.32,0,.47,.03,.07,.06,.14,.09,.21,.08,.13,.19,.24,.32,.32,.03,.02,.06,.05,.1,.07,.11,.09,.21,.18,.3,.28,.05,.06,.12,.11,.18,.16,.06,.05,.12,.11,.18,.17,.08,.08,.17,.14,.28,.18,.1,.05,.21,.08,.33,.07l.23-.03c.11-.03,.21-.08,.29-.15,.06-.04,.12-.09,.15-.15,.08-.08,.13-.18,.15-.29l.03-.23c0-.15-.04-.3-.12-.43Z"/>
        </g>
      </g>
    </g>
  </g>
</svg>
