<?xml version="1.0" encoding="UTF-8"?>
<svg xmlns="http://www.w3.org/2000/svg" viewBox="0 0 150.3 90.14">
  <defs>
    <style>
      .cls-1 {
        fill: #3f522a;
      }

      .cls-2 {
        fill: #d1d375;
      }

      .cls-3 {
        isolation: isolate;
      }

      .cls-4 {
        fill: #51661e;
      }

      .cls-5 {
        fill: #8da34f;
      }

      .cls-6 {
        fill: #a8ca5d;
      }

      .cls-7 {
        fill: #5f6d24;
      }

      .cls-8 {
        fill: #576c2e;
        mix-blend-mode: multiply;
        opacity: .15;
      }

      .cls-9 {
        fill: #a9be79;
      }

      .cls-10 {
        fill: #e8bad3;
      }

      .cls-11 {
        fill: #6d842f;
      }

      .cls-12 {
        fill: #748730;
      }

      .cls-13 {
        fill: #eae173;
      }

      .cls-14 {
        fill: #8ca840;
      }
    </style>
  </defs>
  <g class="cls-3">
    <g id="Layer_2" data-name="Layer 2">
      <g id="OBJECTS">
        <g>
          <g>
            <path class="cls-6" d="M150.19,43.27c1.09,1.76-6.41,13.37-15.69,13.23l-.42-.1c.19-.7,.34-1.59,.43-2.63,.17-1.9,.16-4.32-.07-7.08,.98,.26,4.84,1.04,9.46-.93,3-1.28,5.2-4.25,6.29-2.49Z"/>
            <path class="cls-13" d="M127.75,55.76l2.82,4.49c-1.58,.76-3.96,1.59-7.56,2.41l-1.56-5.48c1.13-.23,2.18-.46,3.16-.68,1.15-.26,2.19-.51,3.14-.74Z"/>
            <path class="cls-13" d="M114.97,63.8l.06,.36c-3.14,.48-6.81,.95-11.1,1.39l-1.53-5.23-.02-.17c3.82-.44,7.28-.92,10.37-1.42l2.22,5.07Z"/>
            <path class="cls-13" d="M93.32,66.11l.03,.36c-4.66,.35-8.89,.57-12.74,.69l-.35-5.45v-.05c3.79-.02,7.89-.17,12.26-.52v.09s.8,4.88,.8,4.88Z"/>
            <path class="cls-13" d="M70.02,61.36l-.66,5.87c-5.48-.12-9.83-.49-13.29-.99l3.22-5.99c2.94,.43,6.55,.84,10.73,1.11Z"/>
            <path class="cls-2" d="M134.5,53.77h.01c-.09,1.04-.24,1.93-.43,2.63-.06,.25-.13,.47-.21,.67-.16,.41-.13,1.66-3.3,3.18l-2.82-4.49c4.6-1.16,6.75-1.99,6.75-1.99Z"/>
            <path class="cls-2" d="M121.45,57.18l1.56,5.48c-2.18,.51-4.81,1.01-7.98,1.5l-.06-.36-2.22-5.07c3.3-.51,6.19-1.04,8.7-1.55Z"/>
            <path class="cls-2" d="M93.32,66.11l-.79-4.88v-.09c.57-.05,1.16-.1,1.76-.15,1.34-.12,2.65-.25,3.92-.38,1.43-.15,2.83-.3,4.17-.46l.02,.17,1.53,5.23c-3.16,.32-6.66,.63-10.54,.92h-.04l-.03-.36Z"/>
            <path class="cls-2" d="M80.26,61.71l.35,5.45c-4.19,.14-7.93,.16-11.25,.07l.66-5.87c.6,.04,1.22,.07,1.85,.11,2.6,.13,5.4,.2,8.39,.19v.05Z"/>
            <path class="cls-2" d="M57.16,59.92c.67,.11,1.37,.22,2.13,.33l-3.22,5.99c-11.51-1.65-13.14-4.71-13.14-4.71,.65-.24,1.26-.46,1.83-.66,0,0,2.35,2.47,4.91,.89,.5-.3,.6-1.61,.39-3.33,0,0,2.51,.72,7.1,1.48h0Z"/>
            <path class="cls-7" d="M113.8,33.66s9.15,19.36,10.81,22.84c-.98,.22-2.03,.45-3.16,.68-2.51,.51-5.4,1.04-8.7,1.55-3.09,.5-6.55,.98-10.37,1.42-1.34,.16-2.74,.31-4.17,.46-1.46-9.01-5.29-29.7-5.29-29.7,1.81,.45,8.65-6.15,9.48-6.82,.03-.02,.05-.06,.08-.11h.69s7.33,9.26,9.9,9.66c.22,.03,.47,.03,.73-.01v.03Z"/>
            <path class="cls-7" d="M71.87,61.47c-.63-.04-1.25-.07-1.85-.11-4.18-.27-7.79-.68-10.73-1.11-.76-.11-1.46-.22-2.13-.33h0c-.01-3.7,3.81-23.86,3.81-23.86,1.12-.23,7.71-7.36,7.16-9.44,1.38,1.72,4.58,3.65,6.26,3.64,0,0-2.22,25.95-2.51,30.97v.24Z"/>
            <path class="cls-12" d="M134.44,46.69c.23,2.76,.24,5.18,.07,7.08h-.01s-2.15,.83-6.75,1.99c-.95,.23-1.99,.48-3.14,.74-1.66-3.48-10.81-22.84-10.81-22.84v-.03c2.84-.41,7.96-4.64,9.21-6.07,0,0,7.71,9.39,11.06,16.36,.06,.13,.09,.28,.13,.42,.1,.8,.18,1.59,.24,2.35Z"/>
            <path class="cls-12" d="M98.21,60.61c-1.27,.13-2.58,.26-3.92,.38-.6,.05-1.19,.1-1.77,.15-4.37,.35-8.47,.5-12.26,.52-2.99,0-5.79-.06-8.39-.19v-.24c.3-5.02,2.52-30.97,2.52-30.97,1.92-.02,6.22-5.27,6.22-5.27,1.16,.78,10.5,5.48,12.31,5.92,0,0,3.83,20.69,5.29,29.7Z"/>
            <path class="cls-12" d="M51.13,32.7c1.45,1.79,8.72,3.58,9.84,3.36,0,0-3.82,20.16-3.81,23.85-4.59-.76-7.1-1.48-7.1-1.48-.35-2.8-1.52-6.69-3.18-9.18-.46-.7-.9-1.18-1.31-1.5,.36-5.51,5.56-15.05,5.56-15.05Z"/>
            <path class="cls-5" d="M134.2,44.34c-.04-.14-.07-.29-.13-.42-3.35-6.97-11.06-16.36-11.06-16.36,1.35-1.57,3.14-7.98,3.14-7.98,4.74,8.12,7.15,17.36,8.05,24.76Z"/>
            <path class="cls-5" d="M106.14,2.13c-1,5.93-2.79,20.35-3.66,21.85-.03,.05-.05,.09-.08,.11-.83,.67-7.67,7.27-9.48,6.82-1.81-.44-11.15-5.14-12.31-5.92-1.14-.78-1.2-22.47-1.2-23.12,3.03-.83,6.3-1.41,9.85-1.7,6.45-.53,12.04,.24,16.88,1.96Z"/>
            <path class="cls-5" d="M68.13,26.62c.55,2.08-6.04,9.21-7.16,9.44-1.12,.22-8.39-1.57-9.84-3.36-1.4-1.72,.52-9.33,.66-9.88,2.82-4.57,6.52-9.08,11.36-12.87,.05,.41,1.46,12.32,4.98,16.67Z"/>
            <path class="cls-9" d="M126.15,19.58s-1.79,6.41-3.14,7.98c-1.25,1.43-6.37,5.66-9.21,6.07-.26,.04-.51,.04-.73,.01-2.57-.4-9.9-9.66-9.9-9.66h-.69c.87-1.5,2.66-15.92,3.66-21.85,9.14,3.24,15.59,9.86,20.01,17.45Z"/>
            <path class="cls-9" d="M79.41,1.87c0,.65,.06,22.34,1.2,23.12,0,0-4.3,5.25-6.22,5.27-1.68,.01-4.88-1.92-6.26-3.64-3.52-4.35-4.93-16.26-4.98-16.67h0c4.41-3.46,9.76-6.32,16.26-8.08Z"/>
            <path class="cls-9" d="M51.13,32.7s-5.2,9.54-5.56,15.05c-1.2-.93-2.12-.41-2.64,.1,.06-.61,1.42-13,8.86-25.03-.14,.55-2.06,8.16-.66,9.88Z"/>
            <path class="cls-6" d="M50.06,58.43c.21,1.72,.11,3.03-.39,3.33-2.56,1.58-4.91-.89-4.91-.89-.57,.2-1.18,.42-1.83,.66-4.43,1.58-10.82,3.6-21.65,2.36-13.77-1.57-16.66-9.69-17.07-11.1-1.58,.81-2.79,1.55-3.28,.37-2.88-6.92,.58-21.77,15.09-22.9,11.69-.91,15.95,8.32,18.45,12.67,2.3,4,5.73,5.21,7.99,5.55,0,0,.16-.31,.47-.63,.52-.51,1.44-1.03,2.64-.1,.41,.32,.85,.8,1.31,1.5,1.66,2.49,2.83,6.38,3.18,9.18Z"/>
          </g>
          <g>
            <path class="cls-4" d="M134.59,53.99c-6.71,2.4-13.68,3.79-20.66,4.98-6.99,1.16-14.02,2.06-21.08,2.63-7.07,.55-14.17,.64-21.26,.25-3.54-.2-7.07-.55-10.58-1.06-1.76-.23-3.51-.6-5.24-.94l-5.2-1.03h-.01c-.13-.03-.21-.15-.19-.28,.03-.13,.15-.21,.28-.19l5.22,1c1.74,.33,3.45,.69,5.21,.87,3.5,.41,7.02,.67,10.55,.86,7.04,.33,14.11,.17,21.13-.43,7.03-.64,14.06-1.37,21.03-2.49,3.49-.54,6.96-1.17,10.4-1.93,3.44-.75,6.9-1.53,10.22-2.66h.01c.12-.05,.26,.02,.3,.14,.04,.12-.02,.26-.14,.3Z"/>
            <path class="cls-4" d="M59.5,60.36c-.17,.55-.4,1.07-.63,1.59-.23,.52-.49,1.02-.75,1.53-.55,.99-1.13,1.97-1.84,2.87-.08,.1-.24,.12-.34,.04-.08-.06-.11-.17-.08-.27,.36-1.09,.85-2.11,1.38-3.12,.27-.5,.55-.99,.86-1.47,.31-.48,.62-.95,.98-1.4,.08-.1,.24-.12,.34-.03,.08,.06,.11,.17,.08,.26Z"/>
            <path class="cls-4" d="M70.26,61.38c.05,.5,.05,1,.04,1.49,0,.49-.06,.98-.11,1.47-.06,.49-.12,.98-.22,1.46-.1,.48-.2,.97-.36,1.45v.02s-.02,.05-.02,.05c-.05,.12-.2,.18-.32,.13-.09-.04-.15-.13-.15-.22v-.05s0,.02,0,.02c-.05-.5-.04-1-.03-1.49,0-.49,.06-.98,.11-1.47,.06-.49,.12-.98,.22-1.46,.1-.48,.2-.97,.37-1.44,.04-.13,.18-.2,.31-.15,.09,.03,.15,.11,.16,.21Z"/>
            <path class="cls-4" d="M80.5,61.69c.14,.45,.22,.9,.29,1.36,.08,.45,.11,.91,.15,1.37,.05,.92,.06,1.82-.09,2.75-.02,.13-.14,.22-.27,.2-.1-.01-.17-.08-.19-.17v-.03c-.27-.89-.37-1.8-.44-2.71-.03-.45-.05-.91-.03-1.36,.01-.46,.03-.91,.11-1.37,.02-.13,.15-.22,.28-.2,.09,.02,.17,.08,.19,.17Z"/>
            <path class="cls-4" d="M92.77,61.19c.17,.39,.29,.79,.4,1.19,.11,.4,.19,.8,.25,1.21,.12,.82,.2,1.64,.14,2.48-.01,.14-.13,.24-.26,.23-.09,0-.17-.07-.21-.15-.33-.78-.51-1.59-.65-2.4-.06-.41-.12-.82-.14-1.23-.02-.41-.04-.83,0-1.25,.01-.14,.13-.23,.27-.22,.09,0,.17,.07,.2,.14Z"/>
            <path class="cls-4" d="M102.63,60.25c.23,.4,.41,.83,.58,1.25,.17,.42,.31,.86,.44,1.29,.24,.87,.45,1.76,.51,2.69,0,.13-.09,.25-.23,.26-.1,0-.19-.05-.23-.13-.45-.82-.75-1.67-1.02-2.54-.12-.44-.24-.88-.33-1.32-.09-.45-.17-.9-.19-1.36,0-.14,.1-.25,.23-.26,.09,0,.18,.05,.22,.12Z"/>
            <path class="cls-4" d="M112.84,58.33c.29,.4,.54,.83,.77,1.26,.24,.43,.44,.87,.64,1.32,.38,.9,.73,1.81,.94,2.79,.03,.13-.06,.26-.19,.29-.1,.02-.19-.02-.25-.1-.58-.81-1.01-1.69-1.41-2.58-.19-.45-.38-.9-.53-1.37-.16-.47-.31-.93-.4-1.42-.03-.13,.06-.26,.19-.29,.1-.02,.19,.02,.24,.1Z"/>
            <path class="cls-4" d="M121.69,57.17h0s0-.06,0-.06c.23,.43,.41,.87,.58,1.31,.17,.44,.31,.9,.45,1.35,.25,.92,.46,1.84,.53,2.81v.07s0,0,0,0c-.03,.13-.16,.22-.29,.19-.1-.02-.17-.1-.19-.19h0s0,.06,0,.06c-.45-.86-.76-1.76-1.03-2.67-.13-.46-.25-.92-.33-1.39-.09-.47-.17-.94-.2-1.43v-.07s0,0,0,0c.03-.13,.16-.21,.29-.19,.1,.02,.16,.1,.19,.19Z"/>
            <path class="cls-4" d="M127.95,55.63c.33,.32,.61,.66,.88,1.01,.27,.35,.52,.72,.75,1.09,.46,.75,.89,1.53,1.19,2.38,.04,.13-.02,.27-.15,.31-.09,.03-.19,0-.25-.06-.64-.64-1.15-1.36-1.63-2.11-.23-.38-.46-.75-.66-1.15-.2-.4-.39-.8-.53-1.23-.04-.13,.03-.27,.16-.31,.09-.03,.18,0,.25,.06Z"/>
            <path class="cls-4" d="M79.65,2.6c.07,4,.21,7.99,.36,11.99,.08,2,.18,3.99,.33,5.97,.08,.99,.17,1.98,.31,2.95,.04,.24,.08,.48,.13,.7,.03,.11,.06,.22,.09,.31,.02,.09,.11,.19,0,.09,.37,.24,.84,.48,1.27,.71,1.76,.93,3.55,1.82,5.34,2.69,1.79,.84,3.63,1.75,5.41,2.38,.27,.14,.66-.03,1.09-.22,.42-.2,.83-.46,1.23-.72,.81-.54,1.59-1.15,2.36-1.77,1.55-1.25,2.99-2.58,4.53-3.94l.03-.03h0s0,0,0,0c-.17,.16-.05,.04-.05,.02l.05-.1c.03-.09,.07-.18,.1-.28,.06-.2,.12-.41,.17-.62l.29-1.28c.18-.87,.34-1.74,.49-2.62l.86-5.27c.55-3.52,1.09-7.05,1.72-10.57,.02-.13,.15-.22,.28-.19,.13,.02,.21,.14,.19,.27-.53,3.52-.94,7.07-1.43,10.6l-.77,5.3c-.14,.88-.28,1.77-.45,2.65-.09,.44-.17,.88-.28,1.33-.06,.22-.11,.45-.18,.67-.03,.11-.08,.24-.12,.35l-.1,.2c-.06,.08,.02,.06-.24,.3l.03-.02c-1.45,1.3-2.95,2.69-4.51,3.96-.78,.64-1.58,1.26-2.43,1.84-.43,.29-.87,.56-1.35,.8-.24,.12-.5,.23-.79,.31-.14,.04-.31,.07-.49,.07-.09,0-.2-.01-.3-.03-.09-.02-.14-.04-.21-.06-1.03-.33-1.92-.75-2.84-1.16-.92-.42-1.82-.85-2.72-1.29-1.8-.88-3.59-1.78-5.36-2.73-.45-.25-.87-.47-1.34-.77-.3-.25-.3-.41-.37-.55-.05-.15-.08-.28-.12-.41-.06-.26-.1-.52-.14-.77-.15-1.02-.22-2.02-.29-3.02-.12-2.01-.18-4.01-.23-6.01-.1-4-.08-8.01-.04-12.01,0-.13,.11-.24,.24-.24,.13,0,.23,.11,.24,.24Z"/>
            <path class="cls-4" d="M103.25,23.91c1.93,2.13,3.85,4.26,5.89,6.25,1.03,.96,2.07,1.99,3.22,2.67,.14,.07,.29,.17,.42,.22l.39,.12c.28,.04,.58-.01,.9-.1,.63-.16,1.26-.44,1.87-.77,2.45-1.31,4.79-3.08,6.76-5.01,.8-1,1.33-2.42,1.87-3.71,.54-1.32,1.01-2.68,1.5-4.03,.02-.05,.07-.07,.11-.05,.04,.01,.07,.06,.06,.1-.31,1.41-.7,2.79-1.12,4.18-.49,1.37-.87,2.74-1.8,4.05-.99,1.14-2.12,2.03-3.26,2.94-1.15,.89-2.35,1.72-3.65,2.43-.66,.34-1.35,.64-2.12,.82-.38,.09-.8,.16-1.23,.1-.22-.05-.43-.13-.64-.2-.2-.08-.35-.19-.53-.28-1.31-.82-2.33-1.84-3.33-2.9-1.98-2.11-3.8-4.35-5.47-6.69-.03-.05-.02-.11,.02-.15,.04-.03,.11-.02,.14,.02Z"/>
            <path class="cls-4" d="M63.54,11.06c.21,1.32,.46,2.62,.75,3.92,.28,1.3,.58,2.59,.95,3.87,.73,2.53,1.57,5.1,3.06,7.18,.73,1.01,1.77,1.82,2.86,2.51,.55,.34,1.12,.65,1.71,.89,.57,.23,1.23,.44,1.69,.38,.51-.1,1.08-.48,1.59-.85,.52-.39,1.01-.82,1.5-1.27,.97-.89,1.9-1.85,2.78-2.84,.09-.1,.24-.11,.34-.03,.1,.08,.11,.23,.03,.33-.83,1.06-1.71,2.08-2.65,3.06-.47,.49-.97,.95-1.51,1.38-.55,.42-1.1,.86-1.9,1.07-.88,.13-1.54-.13-2.2-.37-.65-.26-1.27-.58-1.86-.94-1.17-.73-2.29-1.57-3.16-2.73-.84-1.13-1.42-2.39-1.91-3.66-.49-1.27-.89-2.57-1.22-3.88-.65-2.62-1.08-5.28-1.31-7.96-.01-.13,.09-.25,.22-.26,.13-.01,.24,.08,.26,.2Z"/>
            <path class="cls-4" d="M51.91,22.79s0,.05-.02,.08v-.02c-.23,1.34-.48,2.68-.63,4.03-.17,1.34-.31,2.7-.2,4,.07,.64,.17,1.29,.52,1.63,.4,.39,.99,.73,1.58,1,1.2,.56,2.49,.97,3.78,1.32,.65,.18,1.3,.36,1.95,.5,.63,.13,1.36,.28,1.89,.28,.11,.05,.4-.18,.65-.36,.25-.2,.5-.42,.75-.64,.49-.46,.97-.93,1.44-1.41,.94-.97,1.84-1.99,2.66-3.06,.41-.53,.81-1.08,1.15-1.66,.31-.57,.68-1.2,.61-1.83v-.02s.03-.09,.08-.1c.04,0,.08,.02,.09,.07,.17,.75-.16,1.43-.43,2.06-.3,.63-.65,1.23-1.03,1.81-.77,1.15-1.63,2.23-2.53,3.28-.45,.52-.92,1.03-1.43,1.51-.25,.24-.51,.48-.79,.71-.14,.11-.28,.23-.45,.33-.08,.05-.18,.11-.29,.16-.16,.07-.28,.08-.38,.08-.84,.02-1.46-.13-2.17-.25-.68-.13-1.36-.3-2.03-.48-1.33-.39-2.65-.83-3.92-1.45-.63-.31-1.27-.65-1.83-1.22-.62-.67-.65-1.5-.69-2.19-.02-2.85,.67-5.51,1.45-8.14v-.02s0,.01,0,.02c0-.06,.05-.11,.11-.11s.11,.05,.11,.11Z"/>
            <path class="cls-4" d="M61.21,36.1c-.26,2-.58,3.99-.89,5.98l-.99,5.96-1.03,5.95c-.33,1.98-.7,3.97-.89,5.93v.02c-.01,.13-.13,.23-.26,.21-.12-.01-.21-.11-.22-.23-.02-2.06,.26-4.06,.51-6.06,.26-2,.59-3.99,.91-5.98,.35-1.99,.71-3.97,1.1-5.95,.4-1.98,.81-3.95,1.29-5.91,.03-.13,.16-.21,.29-.18,.12,.03,.19,.14,.18,.26Z"/>
            <path class="cls-4" d="M74.63,30.28c-.11,2.59-.25,5.17-.43,7.76l-.57,7.74-.69,7.74c-.24,2.58-.52,5.15-.83,7.73h0c-.02,.14-.13,.24-.26,.22-.12-.01-.22-.12-.21-.25,.11-2.59,.25-5.17,.43-7.76l.57-7.75,.69-7.74c.24-2.58,.52-5.16,.83-7.73,.02-.13,.13-.22,.27-.21,.12,.01,.21,.13,.21,.25Z"/>
            <path class="cls-4" d="M93.16,30.86c.54,2.46,1.05,4.92,1.52,7.39l1.38,7.42,1.26,7.44c.41,2.48,.78,4.97,1.13,7.46,.02,.13-.07,.25-.2,.27-.12,.02-.24-.06-.27-.18h0c-.53-2.47-1.04-4.93-1.52-7.4l-1.38-7.41-1.27-7.43c-.41-2.48-.78-4.97-1.12-7.46-.02-.13,.07-.25,.2-.27,.12-.02,.24,.07,.27,.18Z"/>
            <path class="cls-4" d="M114.02,33.55c.99,1.86,1.95,3.74,2.89,5.62l2.75,5.68c.88,1.91,1.79,3.81,2.65,5.74,.87,1.92,1.71,3.85,2.52,5.8,.05,.12,0,.26-.13,.31-.11,.05-.25,0-.3-.11-.99-1.86-1.95-3.74-2.88-5.62-.94-1.88-1.84-3.79-2.76-5.68l-2.65-5.74c-.87-1.92-1.71-3.85-2.52-5.8-.05-.12,0-.26,.13-.31,.11-.05,.25,0,.3,.11Z"/>
            <path class="cls-4" d="M51.34,32.81l-1.61,3.68c-.53,1.23-1.07,2.45-1.55,3.69-.52,1.23-.97,2.48-1.39,3.74-.41,1.26-.78,2.53-.98,3.84-.02,.13-.14,.22-.27,.2-.12-.02-.2-.12-.21-.24,0-1.38,.28-2.74,.62-4.05,.34-1.32,.82-2.6,1.3-3.86,.52-1.25,1.07-2.49,1.68-3.7,.61-1.21,1.26-2.39,1.99-3.53,.07-.11,.22-.14,.33-.07,.1,.06,.13,.19,.09,.3Z"/>
            <path class="cls-4" d="M123.09,27.49c1.19,1.21,2.29,2.5,3.35,3.81,1.07,1.31,2.07,2.67,3.04,4.06,.95,1.4,1.87,2.82,2.7,4.31,.8,1.5,1.63,2.98,2.1,4.65,.01,.05-.01,.1-.06,.11-.04,.01-.09-.02-.11-.06-.13-.38-.38-.73-.59-1.09-.21-.36-.43-.72-.67-1.07-.43-.72-.9-1.42-1.36-2.12l-2.83-4.16-2.88-4.14c-.96-1.38-1.93-2.76-2.86-4.17-.03-.05-.02-.11,.03-.15,.04-.03,.1-.02,.13,.01Z"/>
          </g>
          <path class="cls-10" d="M26.42,46.67c0-2.1-1.7-3.8-3.8-3.8s-3.8,1.7-3.8,3.8,1.7,3.8,3.8,3.8,3.8-1.7,3.8-3.8Z"/>
          <path d="M6.01,44.86c0,.68-.48,1.24-1.07,1.24s-1.07-.55-1.07-1.24,.48-1.24,1.07-1.24,1.07,.55,1.07,1.24Z"/>
          <path d="M15.5,44.33c0,.68-.48,1.24-1.07,1.24s-1.07-.55-1.07-1.24,.48-1.24,1.07-1.24,1.07,.55,1.07,1.24Z"/>
          <path class="cls-6" d="M63.77,61.11s-9.75,8.82-13.71,13.06c-3.96,4.25-4.19,12.19-3.74,13.3,.44,1.12,3.85-3.13,3.85-3.13,0,0-.1,4.86,.9,4.98,1.01,.11,3.79-3.05,3.79-3.05,0,0,.74,3.86,1.84,3.86,1.59,0,5.87-7.63,9.89-8.97,2.48-.83,14.17-4.86,17.64-10.23s4.55-15.65-1.68-18.36c-5.39-2.34-14.42-2.29-18.78,8.53Z"/>
          <path class="cls-6" d="M128.03,46.27c-4.02-1.95-12.83-1.28-16.18,7.1-3.35,8.39,6.28,18.29,10.39,21.81,4.11,3.52,4.96,10.22,6.05,11.48s3.63-4.02,3.63-4.02c0,0,.73,2.68,2.32,3.35,1.59,.67,1.59-5.12,1.59-5.12,0,0,3.1,3.61,4.28,2.85,1.17-.75,2.85-6.88,1.43-12.33-1.04-3.98-10.23-13.28-11.07-14.69-.84-1.41,.91-2.48,.94-4.37,.06-3.33-2.26-5.54-3.37-6.07Z"/>
          <path class="cls-11" d="M1.77,53.66c.85-.16,1.61-.75,2.41-1.2,.81-.46,1.67-.89,2.64-1.12,.47-.12,1.02-.16,1.47-.14h1.38c.92,0,1.84,.02,2.75-.01,.91-.01,1.82-.06,2.7-.19,.89-.1,1.74-.34,2.51-.71,.77-.37,1.42-.96,1.88-1.71,.5-.74,.74-1.62,1-2.5h0c.01-.05,.06-.08,.11-.07,.04,.01,.07,.05,.06,.09-.08,.93-.25,1.87-.67,2.76-.44,.87-1.14,1.63-2,2.13-1.74,1.01-3.73,1.11-5.58,1.19-.94,.02-1.87,0-2.79-.03l-1.39-.06c-.48-.02-.85-.03-1.29,.04-.85,.13-1.69,.47-2.53,.85l-1.28,.55c-.43,.17-.89,.35-1.4,.33-.06,0-.1-.05-.1-.11,0-.05,.04-.09,.08-.1h.01Z"/>
          <path class="cls-1" d="M50.6,56.61c-.14-1.22-.32-2.44-.64-3.62-.56-2.05-1.75-3.72-3.34-5.1-.73-.63-1.63-1.13-2.62-1.02-.66,.07-1.65,.48-1.55,1.29,.02,.19,.17,.33,.37,.28,.62-.14,1.02-.57,1.71-.39,.73,.19,1.44,.84,1.86,1.46,.82,1.21,1.28,2.75,1.65,4.15,.43,1.61,.58,3.27,.73,4.92,.05,.58,.22,1.44-.34,1.84-.66,.47-1.57,.06-2.3,.12-.72,.07-1.07,1.01-.38,1.42,1.93,1.16,4.85,.34,5.09-2.09,.11-1.06-.1-2.2-.22-3.26Z"/>
          <path class="cls-1" d="M87.4,56.3c-1.4-3.3-4.13-5.15-7.64-5.62-3.19-.42-6.79-.17-9.52,1.71-1.44,.99-2.55,2.36-3.66,3.69-1.18,1.4-2.79,2.82-3.61,4.47-.35,.71,.5,1.4,1.1,.85,1.18-1.06,2.03-2.64,3.04-3.88,.93-1.13,1.9-2.34,3.04-3.27,2.31-1.87,5.55-2.21,8.4-1.8,2.99,.43,5.56,1.83,6.75,4.72,.57,1.38,.75,2.88,.7,4.37-.06,1.6,.2,3.39,.07,5.1-.05,.63,.82,.23,.82,.23,1.3-1.2,1.38-3.66,1.43-5.33,.05-1.79-.23-3.6-.93-5.25Z"/>
          <path class="cls-1" d="M133.24,51.87c-.17-1.51-.75-2.94-1.68-4.14-1.92-2.48-5.26-3.56-8.31-3.44-5.89,.24-11.25,4.41-12.55,10.22-.67,2.99-.61,7.59,1.42,10.06,.29,.35,1.13-.16,1.13-.16-.38-1.24-1.1-3.22-1.3-4.51-.21-1.34-.19-2.73,.05-4.07,.46-2.53,1.73-4.77,3.66-6.47,3.55-3.12,9.98-4.32,13.39-.3,.83,.98,1.42,2.22,1.44,3.52,.02,1.56-1.9,3.4,1.83,6.39,0,0,1.36-.55,.44-2.57-.33-.72,.21-1.53,.36-2.3,.14-.74,.19-1.48,.11-2.24Z"/>
          <path class="cls-14" d="M14.36,32.54c-.05-.11-.09-.22-.14-.33-.12-.21-.29-.38-.5-.5l-.33-.14c-.25-.07-.49-.07-.74,0h-.08s-.03,.02-.04,.02c-.06,.01-.12,.04-.18,.07-.07,.02-.12,.04-.18,.08-.04,.03-.09,.06-.13,.09-.02,.01-.04,.03-.07,.04-.1,.07-.2,.13-.29,.22l-.2,.26c-.07,.1-.11,.21-.13,.32,0,.01,0,.02,0,.04-.01,.06-.02,.11-.02,.18-.04,.16-.03,.32,.02,.48,.06,.2,.16,.38,.31,.53,0,.01,.02,.02,.03,.03,0,0,0,0,.01,.01,.04,.04,.08,.08,.14,.11,.13,.12,.27,.19,.44,.23,.06,.02,.12,.03,.19,.03,.06,.01,.13,.02,.19,.02,.01,0,.02,0,.03,0,.02,0,.05,0,.07,0,.05,0,.1,0,.15,.01,.12-.02,.25-.03,.37-.05,0,0,.01,0,.02,0,.01,0,.02,0,.03-.01,.03,0,.05-.02,.08-.03,.18-.04,.34-.13,.47-.25,.15-.1,.27-.23,.36-.39,.1-.16,.16-.33,.17-.52,.04-.19,.03-.37-.02-.56Z"/>
          <path class="cls-14" d="M20.07,32.3c-.06-.38-.35-.7-.67-.89-.23-.14-.53-.21-.82-.18-.08-.04-.15-.09-.23-.12-.26-.11-.56-.13-.84-.16-.2-.02-.39-.03-.59-.02-.33,0-.63,.17-.79,.46-.18,.3-.15,.63,0,.93,.29,.6,.85,1.01,1.47,1.25,.54,.21,1.23,.23,1.77,.01,.25-.1,.48-.22,.61-.47,.03-.08,.07-.16,.1-.24,.05-.18,.05-.36,0-.54Z"/>
          <path class="cls-14" d="M21.04,33.25s0,.07,.01,.11c.12,1.08,1.57,1.09,1.69,0,0-.04,0-.07,.01-.11,.12-1.1-1.83-1.1-1.71,0Z"/>
          <path class="cls-14" d="M61.19,69.35c0-.07-.03-.25-.04-.32,0-.02,0-.03-.02-.05-.04-.1-.08-.22-.14-.31-.03-.05-.09-.12-.1-.14,0-.01-.07-.09-.1-.13-.01-.01-.02-.02-.03-.03-.2-.18-.33-.25-.58-.34,0,0-.02,0-.03-.01-.1-.01-.21-.03-.31-.04h-.01s-.01,0-.02,0c-.08,0-.25,.02-.33,.04-.06,.02-.12,.05-.18,.07-.01,0-.1,.04-.15,.06-.06,.04-.2,.14-.25,.19,0,0,0,0-.01,.01-.06,.08-.12,.15-.18,.23,0,0,0,0,0,.01-.09,.07-.19,.12-.27,.2-.18,.15-.35,.33-.47,.52-.12,.21-.22,.44-.3,.67-.05,.2-.05,.4,0,.6,.03,.15,.1,.27,.2,.38,.08,.12,.18,.22,.32,.29,.18,.1,.36,.15,.57,.15,.28-.02,.57-.06,.84-.17,.17-.07,.35-.14,.51-.23,.16-.1,.31-.22,.45-.33,.11-.09,.2-.2,.29-.32,.14-.19,.27-.39,.31-.63,.02-.1,.04-.23,.04-.33,0-.01,0-.02,0-.03,0-.01,0-.02,0-.03Z"/>
          <path class="cls-14" d="M64.13,67.22s0-.02,0-.02c-.09-.35-.39-.65-.74-.74,0,0-.02,0-.02,0-.19-.05-.39-.05-.59,0l-.26,.11c-.09,.05-.17,.1-.23,.18,0,0-.01,.01-.02,.02-.02,.03-.04,.05-.07,.08-.11,.1-.18,.22-.23,.35-.07,.13-.1,.27-.09,.42,0,.15,.03,.29,.09,.42,.04,.14,.12,.25,.23,.35,.07,.06,.15,.11,.22,.17,.17,.1,.35,.15,.55,.15,.1-.01,.19-.03,.29-.04,.18-.05,.34-.15,.48-.28,.03-.02,.05-.04,.08-.07,0,0,.01-.01,.02-.02,.07-.06,.13-.15,.18-.23,.05-.08,.09-.17,.11-.26,.05-.2,.05-.39,0-.59Z"/>
          <path class="cls-14" d="M64.44,70.02c0-.05-.01-.11-.02-.16-.03-.06-.05-.12-.08-.18-.05-.09-.12-.16-.2-.22-.05-.05-.11-.08-.17-.1-.09-.05-.19-.07-.3-.07-.07,0-.14,.02-.21,.03l-.18,.08c-.09,.05-.16,.11-.22,.2-.07,.07-.11,.16-.14,.26,0,.05-.01,.11-.02,.16-.04,.14-.04,.28,0,.42,.04,.13,.11,.25,.2,.35,.05,.04,.11,.08,.16,.12,.12,.07,.26,.11,.4,.11,.11,0,.21-.02,.31-.07,.1-.03,.18-.09,.26-.16,.1-.1,.17-.22,.2-.35,.04-.14,.04-.28,0-.42Z"/>
          <path class="cls-14" d="M68.39,61.6c-1.21,0-1.21,1.88,0,1.88s1.21-1.88,0-1.88Z"/>
          <path class="cls-14" d="M118.14,62.41c-.07-.28-.21-.54-.42-.74-.15-.15-.33-.26-.54-.31-.16-.05-.32-.06-.49-.02,.11-.01-.12,.01-.17,.02-.06,.02-.03,.01-.14,.06-.08,.04-.15,.07-.21,.11-.26,.09-.48,.25-.63,.49-.02,.03-.04,.06-.05,.1-.07,.14-.14,.29-.18,.45-.04,.16-.06,.34-.07,.5,0,.07,0,.14,0,.2,.01,.17,.02,.28,.08,.42,.05,.13,.1,.26,.16,.38,.08,.15,.19,.28,.29,.41,.05,.06,.1,.11,.16,.16,.15,.15,.34,.26,.55,.32,.16,.05,.33,.06,.49,.02,.16,0,.32-.06,.46-.15,.19-.11,.33-.26,.44-.44,.35-.6,.43-1.31,.27-1.98Z"/>
          <path class="cls-14" d="M121.28,66.76c-.06-.2-.16-.38-.31-.53-.08-.06-.16-.13-.24-.19-.19-.11-.39-.16-.61-.16-.17,0-.32,.03-.46,.1-.15,.05-.28,.13-.39,.25-.12,.11-.2,.24-.25,.39-.08,.14-.11,.3-.1,.47,.01,.11,.03,.21,.04,.32,.06,.2,.16,.38,.31,.53,.08,.06,.16,.13,.24,.19,.19,.11,.39,.16,.61,.16,.17,0,.32-.03,.46-.1,.15-.05,.28-.13,.39-.25,.12-.11,.2-.24,.25-.39,.08-.14,.11-.3,.1-.47-.01-.11-.03-.21-.04-.32Z"/>
          <path class="cls-14" d="M123.96,69.43c-.05-.14-.13-.27-.24-.37-.1-.11-.23-.19-.37-.24-.14-.07-.28-.1-.44-.1-.1,.01-.2,.03-.31,.04-.19,.05-.36,.15-.51,.3-.06,.08-.12,.15-.18,.23-.1,.18-.16,.37-.16,.58h0c0,.16,.03,.31,.1,.45,.05,.14,.13,.27,.24,.37,.1,.11,.23,.19,.37,.24,.14,.07,.28,.1,.44,.1,.1-.01,.2-.03,.31-.04,.19-.05,.36-.15,.51-.3,.06-.08,.12-.15,.18-.23,.1-.18,.16-.37,.16-.58h0c0-.16-.03-.31-.1-.45Z"/>
          <path class="cls-14" d="M122.19,64.58s0,0,0,0c-.03-.07-.06-.14-.09-.21-.06-.1-.13-.18-.23-.25-.05-.05-.12-.09-.19-.11-.1-.06-.22-.08-.34-.08-.08,.01-.16,.02-.23,.03-.07,.03-.14,.06-.21,.09-.1,.06-.18,.13-.25,.23-.08,.08-.13,.18-.16,.3,0,0,0,0,0,0-.04,.16-.04,.31,0,.47,.04,.15,.12,.28,.23,.39,.06,.05,.12,.09,.18,.14,.14,.08,.29,.12,.44,.12,.12,0,.23-.02,.34-.08,.11-.04,.2-.1,.28-.18,.11-.11,.18-.24,.23-.39,.04-.16,.04-.31,0-.47Z"/>
          <path class="cls-14" d="M139.15,49.16s0-.05,0-.07c0-.09-.02-.17-.07-.25-.01-.02-.03-.03-.04-.05-.02-.04-.05-.07-.09-.09-.03-.02-.04-.03-.06-.04l-.03-.02s0,0-.01,0c0,0,0,0,0,0-.03-.01-.05-.02-.08-.03-.08-.04-.16-.06-.24-.05-.03,0-.15,.02-.17,.02,0,0,0,0-.01,0-.01,0-.02,0-.03,.01-.02,0-.04,.01-.06,.02-.03,.01-.05,.02-.08,.03-.06,.02-.11,.04-.15,.09,0,0-.06,.04-.07,.06,0,0-.02,.02-.03,.03-.06,.08-.13,.16-.19,.24-.03,.04-.06,.08-.09,.11-.04,.06-.06,.13-.07,.21-.01,.05-.01,.1,0,.15,0,.07,.03,.14,.07,.21,.03,.04,.06,.08,.09,.11,.04,.03,.08,.06,.11,.09,.06,.04,.13,.06,.21,.07,.07,.02,.15,.01,.22-.01l.25-.07s.04-.01,.06-.02c.03-.01,.05-.02,.09-.04-.02,0,.07-.02,.09-.04,.02-.01,.12-.09,.14-.11,0,0,0-.01,.01-.02,.01-.02,.03-.03,.04-.05,0,0,.01-.02,.02-.02l.1-.13c.02-.05,.04-.1,.06-.15,0-.06,.02-.11,.02-.17,0,0,0,0,0,0Z"/>
          <path class="cls-14" d="M140.91,47.64c-1.4,0-1.4,2.18,0,2.18s1.4-2.18,0-2.18Z"/>
          <path class="cls-14" d="M145.6,46.75c-.04-.15-.12-.28-.23-.39-.06-.05-.12-.09-.18-.14-.14-.08-.28-.12-.44-.12-.12,0-.23,.02-.34,.08-.11,.04-.2,.1-.28,.18-.09,.08-.15,.17-.18,.28-.05,.1-.08,.22-.08,.34,.01,.08,.02,.16,.03,.23,.04,.15,.12,.28,.23,.39,.06,.05,.12,.09,.18,.14,.14,.08,.28,.12,.44,.12,.12,0,.23-.02,.34-.08,.11-.04,.2-.1,.28-.18,.09-.08,.15-.17,.18-.28,.05-.1,.08-.22,.08-.34-.01-.08-.02-.16-.03-.23Z"/>
          <path class="cls-14" d="M140.21,50.38c-.57,0-.57,.89,0,.89s.57-.89,0-.89Z"/>
          <path class="cls-14" d="M54.65,73.94c-.03-.13-.09-.25-.18-.34-.04-.08-.1-.14-.18-.18-.06-.06-.14-.11-.22-.13-.08-.05-.16-.07-.25-.07-.13-.03-.27-.02-.4,.02-.07,.02-.13,.03-.2,.05-.12,.03-.23,.09-.34,.14-.12,.05-.21,.15-.31,.23-.05,.05-.1,.09-.15,.14-.09,.08-.17,.19-.23,.3,0,.02-.02,.03-.02,.05-.1,.2-.14,.32-.15,.55,.01,.09,.02,.18,.04,.28,.03,.13,.09,.25,.19,.35,.05,.08,.11,.14,.19,.19,.1,.09,.22,.15,.35,.19,.22,.05,.35,.05,.58,0,.02,0,.03,0,.05-.01,.12-.03,.24-.07,.35-.14,.06-.04,.12-.07,.17-.11,.11-.07,.22-.14,.3-.24,.08-.09,.16-.18,.22-.29,.03-.06,.07-.12,.1-.18,.03-.08,.07-.16,.1-.24l.04-.27-.04-.27Z"/>
          <path class="cls-8" d="M58.51,30.3c-.53-.34-1.18-.53-1.77-.76-.31-.13-.61-.29-.89-.47-.02-.02-.03-.03-.05-.05-.04-.06-.08-.13-.12-.19-.08-.23-.14-.46-.18-.69-.03-.35-.05-.71-.1-1.06,.02,.14,.04,.28,.06,.43-.04-.28-.05-.56-.08-.84-.07-.8-.74-1.65-1.65-1.39-.37,.11-.75,.35-.93,.69-.08,.14-.14,.29-.2,.44-.18,.4-.34,.77-.41,1.21-.07,.43-.13,.88-.12,1.32,.02,.61,.16,1.13,.41,1.69,.38,.85,1.11,1.51,1.92,1.95,.36,.2,.74,.37,1.11,.54,.5,.23,1.03,.52,1.56,.62,.48,.08,1,.09,1.44-.19,.35-.22,.6-.51,.76-.89,.37-.87,.03-1.82-.76-2.33Z"/>
          <path class="cls-8" d="M74.88,24.53c-.14-.08-.25-.15-.41-.22-.05-.02-.11-.05-.16-.07-.05-.04-.17-.09-.21-.11-.02,0-.02,0-.03-.01-.29-.27-.57-.54-.84-.83-.15-.17-.3-.34-.44-.51-.03-.04-.23-.27-.06-.08,.18,.21-.06-.09-.1-.14-.25-.35-.48-.71-.7-1.07-.43-.7-.78-1.45-1.12-2.2,0,0,0-.01,0-.02-.04-.09-.07-.19-.11-.28-.07-.19-.13-.38-.2-.57-.17-.47-.3-.97-.59-1.39-.43-.64-1.61-.85-1.98,0-.25,.58-.33,1.15-.31,1.78,.01,.58,.11,1.17,.21,1.74,.19,1.07,.62,2.12,1.12,3.08,.51,.97,1.21,1.87,1.94,2.67,.4,.44,.84,.86,1.35,1.16,.42,.25,.9,.41,1.39,.43,.65,.03,1.12-.27,1.6-.65,.89-.69,.52-2.21-.35-2.71Z"/>
          <path class="cls-8" d="M98.84,14.01c-1.46,.69-2.58,1.85-3.74,2.94-.86,.81-2,1.86-3.29,1.68-2.6-.35-4.51-2.53-5.51-4.79-.68-1.55-2.96-1.26-3.72,0-.12,.2-.22,.43-.31,.66-.23,.1-.43,.29-.52,.58-.79,2.53,.03,5.57,2.01,7.31,1,.88,2.16,1.56,3.3,2.24,1.2,.72,2.51,1.79,3.9,2.1,1.52,.34,2.87-.4,4.06-1.26,1.07-.77,2.08-1.63,2.96-2.61,1.72-1.91,3.01-4.14,3.79-6.59,.58-1.81-1.48-2.98-2.96-2.28Z"/>
          <path class="cls-8" d="M118.78,20.33c-1.11,.34-2.08,.98-3.11,1.5-.02,.01-.03,.02-.05,.03,0,0,0,0-.01,0-.12,.03-.26,.07-.38,.12-.03,.01-.04,.02-.06,.02-.11,0-.23,0-.34,0-.03,0-.07-.02-.12-.03,0,0-.22-.08-.31-.1-.08-.04-.27-.13-.29-.14-.14-.08-.28-.16-.42-.24-.5-.3-1-.6-1.46-.94-.02-.02-.05-.05-.09-.08-.11-.1-.22-.21-.33-.32-.05-.05-.09-.11-.12-.14-.06-.08-.12-.17-.17-.26-.07-.12-.13-.24-.19-.36-.06-.25-.14-.49-.2-.74,0-.03,0-.05,0-.09-.01-.28-.04-.5-.08-.8-.06-.37-.21-.7-.36-1.04-.24-.57-1-.91-1.58-.91-.69,0-1.19,.37-1.58,.91-.5,.68-.59,1.57-.46,2.45-.07,.42-.12,.85-.16,1.25-.12,1.02-.03,2.02,.41,2.95,.8,1.67,2.75,2.67,4.21,3.69,.83,.58,1.68,1.29,2.65,1.61,1.23,.41,2.45-.05,3.34-.92,1.35-1.31,2.48-2.98,3.43-4.6,.83-1.4-.55-3.3-2.16-2.81Z"/>
          <path class="cls-8" d="M111.27,41.03c-2.26,.12-4.22,1.46-5.54,3.24-.64,.86-1.09,1.82-1.51,2.8-.09-.61-.16-1.23-.27-1.76-.42-2.15-.97-4.27-1.65-6.35-.31-.96-1.3-1.59-2.31-1.31-.19,.05-.37,.15-.53,.26-2.3,.09-3.23,2.4-2.85,4.42,.18,.93,.56,1.82,.83,2.73,.27,.92,.47,1.85,.66,2.79,.41,2.02,.81,4.01,1.68,5.89,.46,.98,1.04,1.99,2.11,2.37,.94,.33,2.02,.19,3.01,.18,1.17,0,2.3,0,3.13-.93,.74-.82,.74-1.91,1.02-2.92,.41-1.48,1.17-2.87,2.24-4,.54-.57,1.12-1.07,1.77-1.48,.94-.59,1.97-1.22,2.29-2.38,.67-2.44-2.12-3.67-4.09-3.56Z"/>
          <path class="cls-8" d="M93.03,43.87c-.29-1.48-.59-2.96-.89-4.44-.25-1.23-1.74-1.63-2.72-1.11-1.69,.89-3.2,1.17-4.9,.62-1.63-.53-3.27-1.77-4.75-2.85-1.27-.93-2.82,.35-2.9,1.66-.08,1.18-.06,2.36,0,3.54-.15,1.05-.29,2.11-.41,3.17-.13,1.22-.03,2.37,.95,3.24,1.04,.93,2.4,1.01,3.73,.98,.94-.02,1.82,.11,2.61,.46,.93,.41,1.55,.91,2.22,1.64,.74,.8,1.53,1.59,2.63,1.88,2.97,.77,4.68-2.34,4.87-4.81,.1-1.33-.17-2.68-.42-3.98Z"/>
          <path class="cls-8" d="M69.6,36.98c-.79-.77-2.02-.9-3.04-.62-1.72,.48-2.74,2.12-3.08,3.78-.38,1.86-.55,3.78-.7,5.67-.08,.93-.13,1.86-.16,2.8-.04,1.17-.22,2.45,.74,3.34,.49,.46,1.18,.58,1.76,.34,.36,.16,.75,.26,1.16,.24,1.83-.07,3.09-1.73,3.59-3.34,.44-1.42,.38-2.97,.4-4.43,.02-1.69,.03-3.39,.04-5.08,0-.97,.06-1.95-.71-2.7Z"/>
          <path class="cls-8" d="M57.12,38.51c-.99-.58-2.2-.5-3.14,.15-1.03,.72-1.4,1.81-1.54,3-.04,.4-.08,.83-.11,1.24-.27,.88-.49,1.79-.72,2.65-.24,.89-.45,1.78-.66,2.68-.24,1.02-.43,2.07,0,3.07,.42,1,1.34,1.64,2.41,1.74,1.23,.11,2.14-.74,2.57-1.81,.63-1.55,.99-3.28,1.31-4.92,.41-2.06,.66-4.16,.77-6.25,.03-.62-.37-1.25-.89-1.56Z"/>
          <path class="cls-8" d="M129.88,41.12c-1.71-2.85-3.91-5.42-6.45-7.57-.23-.19-.48-.32-.74-.4-.27-.23-.57-.43-.95-.54-1.34-.39-3,.7-2.97,2.15,0,.36,.15,.74,.39,1.03,0,.06-.02,.11-.03,.17-.03,.38,0,.72,.06,1.1,.08,.54,.19,1.08,.33,1.61,.33,1.16,.86,2.5,1.68,3.42,.54,.6,1.31,.9,2.11,.91,.52,0,1.03-.11,1.55-.12,.28,0,.56,.02,.84,.04,.01,0,.02,0,.03,0,.02,0,.03,0,.07,.01,.14,.03,.28,.05,.41,.09,.27,.06,.54,.14,.81,.24,.02,0,.1,.04,.17,.06,.08,.04,.29,.14,.32,.15,.67,.33,1.55,.32,2.09-.27,.52-.56,.68-1.41,.27-2.09Z"/>
        </g>
      </g>
    </g>
  </g>
</svg>